<?xml version="1.0" encoding="UTF-8" standalone="no"?>

<svg
	xmlns="http://www.w3.org/2000/svg" version="1.1"
	xmlns:freecad="http://www.freecadweb.org/wiki/index.php?title=Svg_Namespace"
	width="210mm"
	height="297mm"
	viewBox="0 0 210 297">
	<!-- Working space 20 10 200 287 -->
	<!-- Title block 20 227 200 287 -->
	<g>
		<rect
			id="drawing-border"
			style="fill:none;stroke:#000000;stroke-width:0.35;stroke-linecap:miter;stroke-miterlimit:4"
			width="180"
			height="277"
			x="20"
			y="10" />
			<!-- width-30, height-20 -->
		<g
			transform="translate(0,0)">
			<!-- A4 Portrait based for other formats width-210, height-297 -->
			<!--        page       rect   translation
			               w    h    rw   rh   tx   ty
			        A4-P  210  297  180  277    0    0
			        A3-L  420  297  390  277  210    0
			        A2-L  594  420  564  400  384  123
			        A1-L  841  594  811  574  631  297
			        A0-L 1189  841 1159  821  979  544
			-->
			<g
				id="titleblock-structure"
				style="fill:none;stroke:#000000;stroke-width:0.35;stroke-linecap:miter;stroke-miterlimit:4">
				<rect width="180" height="60" x="20" y="227" />
				<path d="m 20,239 h 180" />
				<path d="m 80,227 v 12" />
				<path d="m 140,239 v 48" />
				<path d="m 160,239 v 12" />
				<path d="m 180,239 v 12" />
				<path d="m 140,251 h 60" />
				<path d="m 140,275 h 60" />
				<path d="m 180,275 v 12" />
			</g>
			<g
				id="titleblock-text-non-editable"
				style="font-size:3px;text-anchor:start;fill:#000000;font-family:osifont"
				xml:space="preserve">
				<text x="21" y="230">Created by:</text>
				<text x="81" y="230">Title:</text>
				<text x="21" y="242">Supplementary information:</text>
				<text x="141" y="242">Size:</text>
				<text x="161" y="242">Sheet:</text>
				<text x="181" y="242">Scale:</text>
				<text x="141" y="254">Part number:</text>
				<text x="141" y="266">Drawing number:</text>
				<text x="141" y="278">Date:</text>
				<text x="181" y="278">Revision:</text>
			</g>
			<g
				id="titleblock-text-editable"
				style="font-size:5px;text-anchor:middle;fill:#000000;font-family:osifont"
				xml:space="preserve">
				<text freecad:editable="AUTHOR NAME" x="50" y="236"><tspan>AUTHOR NAME</tspan></text>
				<text freecad:editable="DRAWING TITLE" x="140" y="236"><tspan>DRAWING TITLE</tspan></text>
				<text freecad:editable="SI-1" x="80" y="248"><tspan></tspan></text>
				<text freecad:editable="SI-2" x="80" y="255"><tspan></tspan></text>
				<text freecad:editable="FreeCAD DRAWING" x="80" y="262"><tspan>FreeCAD DRAWING</tspan></text>
				<text freecad:editable="SI-4" x="80" y="269"><tspan></tspan></text>
				<text freecad:editable="SI-5" x="80" y="276"><tspan></tspan></text>
				<text freecad:editable="SI-6" x="80" y="283"><tspan></tspan></text>
				<text freecad:editable="FC-SI" x="150" y="248"><tspan>A4</tspan></text>
				<text freecad:editable="FC-SH" x="170" y="248"><tspan>X / Y</tspan></text>
				<text freecad:editable="FC-SC" x="190" y="248"><tspan>SCALE</tspan></text>
				<text freecad:editable="PN" x="170" y="260"><tspan>PN</tspan></text>
				<text freecad:editable="DN" x="170" y="272"><tspan>DN</tspan></text>
				<text freecad:editable="FC-DATE" x="160" y="284"><tspan>DD/MM/YYYY</tspan></text>
				<text freecad:editable="FC-REV" x="190" y="284"><tspan>REV A</tspan></text>
			</g>
			<!-- Set display:none to hide FreeCAD Logo -->
			<g
				style="display:inline"
				id="freecad-logo"
				transform="translate(128.5,276)"
				fill-rule="evenodd"
				stroke="#000"
				stroke-width="0.35"
				fill="none">
					<path d="m0.1524 0.15254v8.8549h1.9744v-3.4652h1.396v-1.3661h-1.396v-1.4745h3.4391v-2.5441l-5.4135-0.005z"/>
					<path d="m7.7927 3.4504-0.50715-0.176-0.48387-1.2366-0.76115 0.04-0.34718 1.2787-0.4859 0.23269-1.2119-0.53015-0.51188 0.56882 0.65892 1.1485-0.18006 0.50567-1.2366 0.48387 0.044064 0.76263 1.2787 0.34718 0.23269 0.4859-0.53421 1.2104 0.56882 0.51188 1.1485-0.65891 0.50973 0.18155 0.4798 1.2351 0.7667-0.04258 0.34311-1.2802 0.4859-0.23269 1.2145 0.5357 0.51188-0.56882-0.65891-1.1485 0.17748-0.51122 1.2351-0.4798-0.03851-0.76521-1.2802-0.34311-0.23269-0.4859 0.53163-1.216-0.56881-0.51184zm-0.5715 1.2244 0.23576 0.13679 0.20426 0.18519 0.16353 0.22101 0.11763 0.24572 0.06916 0.26489 0.01146 0.27146-0.03921 0.27139-0.08948 0.25764-0.14234 0.23834-0.17964 0.20167-0.22101 0.16353-0.24572 0.11763-0.26489 0.06916-0.27295 0.01553-0.2719-0.04-0.2576-0.089-0.2383-0.143-0.2002-0.183-0.165-0.217-0.1177-0.246-0.0676-0.269-0.0156-0.273 0.039206-0.2714 0.089484-0.25764 0.14085-0.23427 0.18113-0.20574 0.22101-0.16352 0.24572-0.11763 0.26895-0.06768 0.27147-0.01146 0.27139 0.03921 0.25764 0.08948z"/>
			</g>
		</g>
	</g>
<g id="Ortho_0_0"
   transform="rotate(90,110,75) translate(110,75) scale(1,1)"
  >
<g   stroke="rgb(0, 0, 0)"
   stroke-width="0.35"
   stroke-linecap="butt"
   stroke-linejoin="miter"
   fill="none"
   transform="scale(1,-1)"
  >
<path id= "1" d=" M 140 -59 L 140 59 " />
<path d="M140 -59 A1 1 0 0 0 139 -60" /><path d="M140 59 A1 1 0 0 1 139 60" /><path id= "4" d=" M -52 -60 L 139 -60 " />
<path id= "5" d=" M 139 60 L -52 60 " />
<path d="M-53 -59 A1 1 0 0 1 -52 -60" /><path d="M-52 60 A1 1 0 0 1 -53 59" /><path id= "8" d=" M -53 59 L -53 -59 " />
<circle cx ="-9.5" cy ="-56.7468" r ="1.625" /><circle cx ="9.5" cy ="-56.7468" r ="1.625" /><path id= "11" d=" M 13.6942 -13.7908 L -13.1036 -13.7908 " />
<path id= "12" d=" M 13.6942 -41.4673 L 13.6942 -13.7908 " />
<path id= "13" d=" M -13.1036 -41.4673 L 13.6942 -41.4673 " />
<path id= "14" d=" M -13.1036 -13.7908 L -13.1036 -41.4673 " />
<circle cx ="21" cy ="-30" r ="2.6" /><circle cx ="20" cy ="-15" r ="2.5" /><circle cx ="21" cy ="-40" r ="2.6" /><circle cx ="-8" cy ="-5" r ="2.5" /><circle cx ="8" cy ="-5" r ="2.5" /><path id= "20" d=" M 74.8971 -51.4573 L 74.8971 -6.7394 " />
<path id= "21" d=" M 33.8217 -51.4573 L 74.8971 -51.4573 " />
<path id= "22" d=" M 74.8971 -6.7394 L 35.0672 -6.7394 " />
<path id= "23" d=" M 33.8217 -45.3924 L 33.8217 -51.4573 " />
<path id= "24" d=" M 35.0672 -6.7394 L 35.0672 -20.7373 " />
<path id= "25" d=" M 48.4661 -45.3924 L 33.8217 -45.3924 " />
<path id= "26" d=" M 35.0672 -20.7373 L 48.4661 -20.7373 " />
<path id= "27" d=" M 48.4661 -20.7373 L 48.4661 -45.3924 " />
<circle cx ="37" cy ="-40" r ="2.6" /><circle cx ="37" cy ="-30" r ="2.6" /><path id= "30" d=" M 125.565 -51.2352 L 125.565 -21.4563 " />
<path id= "31" d=" M 83.6108 -51.2352 L 125.565 -51.2352 " />
<path id= "32" d=" M 125.565 -21.4563 L 89.1022 -21.4563 " />
<path id= "33" d=" M 83.6108 -6.08043 L 83.6108 -51.2352 " />
<path id= "34" d=" M 89.1022 -21.4563 L 89.1022 -6.08043 " />
<path id= "35" d=" M 89.1022 -6.08043 L 83.6108 -6.08043 " />
<circle cx ="113" cy ="-15.5" r ="2.1" /><circle cx ="98" cy ="-15.5" r ="2.1" /><circle cx ="-21" cy ="-30" r ="2.6" /><circle cx ="-21" cy ="-40" r ="2.6" /><circle cx ="-20" cy ="-15" r ="2.5" /><circle cx ="-37" cy ="-40" r ="2.6" /><circle cx ="-37" cy ="-30" r ="2.6" /><circle cx ="-48" cy ="-56" r ="2.5" /><circle cx ="-48" cy ="-16.5" r ="2.1" /><circle cx ="-48" cy ="-24" r ="2.5" /><circle cx ="-47.9314" cy ="56" r ="2.5" /><circle cx ="-48" cy ="24" r ="2.5" /><circle cx ="-21" cy ="40" r ="2.6" /><circle cx ="-21" cy ="30" r ="2.6" /><circle cx ="-37" cy ="30" r ="2.6" /><circle cx ="-37" cy ="40" r ="2.6" /><circle cx ="-48" cy ="16.5" r ="2.1" /><circle cx ="-20" cy ="15" r ="2.5" /><circle cx ="8" cy ="5" r ="2.5" /><circle cx ="-8" cy ="5" r ="2.5" /><path id= "56" d=" M 13.9139 48.5911 L -14.4216 48.5911 " />
<path id= "57" d=" M 13.9139 14.5446 L 13.9139 48.5911 " />
<path id= "58" d=" M -14.4216 14.5446 L 13.9139 14.5446 " />
<path id= "59" d=" M -14.4216 48.5911 L -14.4216 14.5446 " />
<circle cx ="37" cy ="30" r ="2.6" /><path id= "61" d=" M 75.4097 6.77027 L 75.4097 52.6594 " />
<path id= "62" d=" M 34.8641 6.77027 L 75.4097 6.77027 " />
<path id= "63" d=" M 75.4097 52.6594 L 35.1259 52.6594 " />
<path id= "64" d=" M 34.8641 22.7759 L 34.8641 6.77027 " />
<path id= "65" d=" M 35.1259 52.6594 L 35.1259 46.1548 " />
<path id= "66" d=" M 48.3519 22.7759 L 34.8641 22.7759 " />
<path id= "67" d=" M 35.1259 46.1548 L 48.3519 46.1548 " />
<path id= "68" d=" M 48.3519 46.1548 L 48.3519 22.7759 " />
<circle cx ="37" cy ="40" r ="2.6" /><circle cx ="21" cy ="40" r ="2.6" /><circle cx ="21" cy ="30" r ="2.6" /><circle cx ="20" cy ="15" r ="2.5" /><path id= "73" d=" M 125.248 23.4859 L 125.248 53.2697 " />
<path id= "74" d=" M 89.0446 23.4859 L 125.248 23.4859 " />
<path id= "75" d=" M 125.248 53.2697 L 82.8942 53.2697 " />
<path id= "76" d=" M 89.0446 8.54943 L 89.0446 23.4859 " />
<path id= "77" d=" M 82.8942 53.2697 L 82.8942 8.54943 " />
<path id= "78" d=" M 82.8942 8.54943 L 89.0446 8.54943 " />
<circle cx ="98" cy ="15.5" r ="2.1" /><circle cx ="113" cy ="15.5" r ="2.1" /><circle cx ="135" cy ="24" r ="2.5" /><circle cx ="135" cy ="56" r ="2.5" /><circle cx ="135" cy ="-24" r ="2.5" /><circle cx ="135" cy ="-56" r ="2.5" /></g>
</g>



</svg>

