  0
SECTION
  2
HEADER
  9
$ACADVER
  1
AC1009
  9
$INSBASE
 10
0.0
 20
0.0
 30
0.0
  9
$EXTMIN
 10
0.0
 20
0.0
 30
0.0
  9
$EXTMAX
 10
0.0
 20
0.0
 30
0.0
  0
ENDSEC
  0
SECTION
  2
TABLES
  0
TABLE
  2
VPORT
 70
0
  0
ENDTAB
  0
TABLE
  2
LTYPE
 70
1
  0
LTYPE
  2
CONTINUOUS
 70
0
  3
Solid line
 72
65
 73
0
 40
0.0
  0
ENDTAB
  0
TABLE
  2
LAYER
 70
1
  0
LAYER
  2
0
 70
64
 62
7
  6
continuous
  0
ENDTAB
  0
TABLE
  2
STYLE
 70
1
  0
STYLE
  2
STANDARD
 70
0
 40
0
 41
1.0
 50
0.0
 71
0
 42
1
 3
ARIAL.TTF
 4

  0
ENDTAB
  0
TABLE
  2
VIEW
 70
0
  0
ENDTAB
  0
ENDSEC
  0
SECTION
  2
BLOCKS
  0
BLOCK
  8
0
  2
FILLET
 70
0
 10
0.0
 20
0.0
 30
0.0
  3
FILLET
  0
POLYLINE
  8
0
 62
0
 70
0
 66
1
 10
0.0
 20
0.0
 30
0.0
  0
VERTEX
  8
0
 10
-45.0
 20
1.66533453694e-14
 30
0.0
  0
VERTEX
  8
0
 10
-45.05
 20
1.66524101376e-14
 30
0.0
  0
VERTEX
  8
0
 10
-45.1
 20
1.66514749057e-14
 30
0.0
  0
VERTEX
  8
0
 10
-45.15
 20
1.66505396739e-14
 30
0.0
  0
VERTEX
  8
0
 10
-45.2
 20
1.66496044421e-14
 30
0.0
  0
VERTEX
  8
0
 10
-45.25
 20
1.66486692103e-14
 30
0.0
  0
VERTEX
  8
0
 10
-45.3
 20
1.66477339785e-14
 30
0.0
  0
VERTEX
  8
0
 10
-45.35
 20
1.66467987467e-14
 30
0.0
  0
VERTEX
  8
0
 10
-45.4
 20
1.66458635149e-14
 30
0.0
  0
VERTEX
  8
0
 10
-45.45
 20
1.6644928283e-14
 30
0.0
  0
VERTEX
  8
0
 10
-45.5
 20
1.66439930512e-14
 30
0.0
  0
VERTEX
  8
0
 10
-45.55
 20
1.66430578194e-14
 30
0.0
  0
VERTEX
  8
0
 10
-45.6
 20
1.66406004301e-14
 30
0.0
  0
VERTEX
  8
0
 10
-45.65
 20
1.66377709129e-14
 30
0.0
  0
VERTEX
  8
0
 10
-45.7
 20
1.66349413957e-14
 30
0.0
  0
VERTEX
  8
0
 10
-45.75
 20
1.66321118785e-14
 30
0.0
  0
VERTEX
  8
0
 10
-45.8
 20
1.66292823613e-14
 30
0.0
  0
VERTEX
  8
0
 10
-45.85
 20
1.66264528441e-14
 30
0.0
  0
VERTEX
  8
0
 10
-45.9
 20
1.6623623327e-14
 30
0.0
  0
VERTEX
  8
0
 10
-45.95
 20
1.66207938098e-14
 30
0.0
  0
VERTEX
  8
0
 10
-46.0
 20
1.66179642926e-14
 30
0.0
  0
VERTEX
  8
0
 10
-46.05
 20
1.66151347754e-14
 30
0.0
  0
VERTEX
  8
0
 10
-46.1
 20
1.66123052582e-14
 30
0.0
  0
VERTEX
  8
0
 10
-46.15
 20
1.66080036896e-14
 30
0.0
  0
VERTEX
  8
0
 10
-46.2
 20
1.66032059434e-14
 30
0.0
  0
VERTEX
  8
0
 10
-46.25
 20
1.65984081973e-14
 30
0.0
  0
VERTEX
  8
0
 10
-46.3
 20
1.65936104511e-14
 30
0.0
  0
VERTEX
  8
0
 10
-46.35
 20
1.6588812705e-14
 30
0.0
  0
VERTEX
  8
0
 10
-46.4
 20
1.65840149588e-14
 30
0.0
  0
VERTEX
  8
0
 10
-46.45
 20
1.65792172127e-14
 30
0.0
  0
VERTEX
  8
0
 10
-46.5
 20
1.65744194665e-14
 30
0.0
  0
VERTEX
  8
0
 10
-46.55
 20
1.65696217204e-14
 30
0.0
  0
VERTEX
  8
0
 10
-46.6
 20
1.65648239742e-14
 30
0.0
  0
VERTEX
  8
0
 10
-46.65
 20
1.65600262281e-14
 30
0.0
  0
VERTEX
  8
0
 10
-46.7
 20
1.65531867978e-14
 30
0.0
  0
VERTEX
  8
0
 10
-46.75
 20
1.65462887563e-14
 30
0.0
  0
VERTEX
  8
0
 10
-46.8
 20
1.65393907148e-14
 30
0.0
  0
VERTEX
  8
0
 10
-46.85
 20
1.65324926733e-14
 30
0.0
  0
VERTEX
  8
0
 10
-46.9
 20
1.65255946318e-14
 30
0.0
  0
VERTEX
  8
0
 10
-46.95
 20
1.65186965903e-14
 30
0.0
  0
VERTEX
  8
0
 10
-47.0
 20
1.65117985488e-14
 30
0.0
  0
VERTEX
  8
0
 10
-47.05
 20
1.65049005072e-14
 30
0.0
  0
VERTEX
  8
0
 10
-47.1
 20
1.64980024657e-14
 30
0.0
  0
VERTEX
  8
0
 10
-47.15
 20
1.64911044242e-14
 30
0.0
  0
VERTEX
  8
0
 10
-47.2
 20
1.64827960114e-14
 30
0.0
  0
VERTEX
  8
0
 10
-47.25
 20
1.64735920328e-14
 30
0.0
  0
VERTEX
  8
0
 10
-47.3
 20
1.64643880541e-14
 30
0.0
  0
VERTEX
  8
0
 10
-47.35
 20
1.64551840755e-14
 30
0.0
  0
VERTEX
  8
0
 10
-47.4
 20
1.64459800968e-14
 30
0.0
  0
VERTEX
  8
0
 10
-47.45
 20
1.64367761182e-14
 30
0.0
  0
VERTEX
  8
0
 10
-47.5
 20
1.64275721395e-14
 30
0.0
  0
VERTEX
  8
0
 10
-47.55
 20
1.64183681609e-14
 30
0.0
  0
VERTEX
  8
0
 10
-47.6
 20
1.64091641822e-14
 30
0.0
  0
VERTEX
  8
0
 10
-47.65
 20
1.63999602036e-14
 30
0.0
  0
VERTEX
  8
0
 10
-47.7
 20
1.63886748439e-14
 30
0.0
  0
VERTEX
  8
0
 10
-47.75
 20
1.63768586652e-14
 30
0.0
  0
VERTEX
  8
0
 10
-47.8
 20
1.63650424866e-14
 30
0.0
  0
VERTEX
  8
0
 10
-47.85
 20
1.63532263079e-14
 30
0.0
  0
VERTEX
  8
0
 10
-47.9
 20
1.63414101292e-14
 30
0.0
  0
VERTEX
  8
0
 10
-47.95
 20
1.63295939505e-14
 30
0.0
  0
VERTEX
  8
0
 10
-48.0
 20
1.63177777718e-14
 30
0.0
  0
VERTEX
  8
0
 10
-48.05
 20
1.63059615932e-14
 30
0.0
  0
VERTEX
  8
0
 10
-48.1
 20
1.62941454145e-14
 30
0.0
  0
VERTEX
  8
0
 10
-48.15
 20
1.62803331045e-14
 30
0.0
  0
VERTEX
  8
0
 10
-48.2
 20
1.62654507652e-14
 30
0.0
  0
VERTEX
  8
0
 10
-48.25
 20
1.62505684259e-14
 30
0.0
  0
VERTEX
  8
0
 10
-48.3
 20
1.62356860866e-14
 30
0.0
  0
VERTEX
  8
0
 10
-48.35
 20
1.62208037473e-14
 30
0.0
  0
VERTEX
  8
0
 10
-48.4
 20
1.6205921408e-14
 30
0.0
  0
VERTEX
  8
0
 10
-48.45
 20
1.61910390687e-14
 30
0.0
  0
VERTEX
  8
0
 10
-48.5
 20
1.61761567294e-14
 30
0.0
  0
VERTEX
  8
0
 10
-48.55
 20
1.61601886337e-14
 30
0.0
  0
VERTEX
  8
0
 10
-48.6
 20
1.61415535316e-14
 30
0.0
  0
VERTEX
  8
0
 10
-48.65
 20
1.61229184295e-14
 30
0.0
  0
VERTEX
  8
0
 10
-48.7
 20
1.61042833275e-14
 30
0.0
  0
VERTEX
  8
0
 10
-48.75
 20
1.60856482254e-14
 30
0.0
  0
VERTEX
  8
0
 10
-48.8
 20
1.60670131233e-14
 30
0.0
  0
VERTEX
  8
0
 10
-48.85
 20
1.60483780212e-14
 30
0.0
  0
VERTEX
  8
0
 10
-48.9
 20
1.60297429192e-14
 30
0.0
  0
VERTEX
  8
0
 10
-48.95
 20
1.60071578555e-14
 30
0.0
  0
VERTEX
  8
0
 10
-49.0
 20
1.59836871617e-14
 30
0.0
  0
VERTEX
  8
0
 10
-49.05
 20
1.59602164678e-14
 30
0.0
  0
VERTEX
  8
0
 10
-49.1
 20
1.5936745774e-14
 30
0.0
  0
VERTEX
  8
0
 10
-49.15
 20
1.59132750802e-14
 30
0.0
  0
VERTEX
  8
0
 10
-49.2
 20
1.58898043864e-14
 30
0.0
  0
VERTEX
  8
0
 10
-49.25
 20
1.58641515946e-14
 30
0.0
  0
VERTEX
  8
0
 10
-49.3
 20
1.58340196351e-14
 30
0.0
  0
VERTEX
  8
0
 10
-49.35
 20
1.58038876756e-14
 30
0.0
  0
VERTEX
  8
0
 10
-49.4
 20
1.57737557161e-14
 30
0.0
  0
VERTEX
  8
0
 10
-49.45
 20
1.57436237566e-14
 30
0.0
  0
VERTEX
  8
0
 10
-49.5
 20
1.5713491797e-14
 30
0.0
  0
VERTEX
  8
0
 10
-49.55
 20
1.56742629834e-14
 30
0.0
  0
VERTEX
  8
0
 10
-49.6
 20
1.56340582512e-14
 30
0.0
  0
VERTEX
  8
0
 10
-49.65
 20
1.55938535189e-14
 30
0.0
  0
VERTEX
  8
0
 10
-49.7
 20
1.55536487867e-14
 30
0.0
  0
VERTEX
  8
0
 10
-49.75
 20
1.5502678527e-14
 30
0.0
  0
VERTEX
  8
0
 10
-49.8
 20
1.54448734862e-14
 30
0.0
  0
VERTEX
  8
0
 10
-49.85
 20
1.53870684454e-14
 30
0.0
  0
VERTEX
  8
0
 10
-49.9
 20
1.5308868778e-14
 30
0.0
  0
VERTEX
  8
0
 10
-49.95
 20
1.52108542073e-14
 30
0.0
  0
VERTEX
  8
0
 10
-50.0
 20
1.49880108324e-14
 30
0.0
  0
SEQEND
  8
0
  0
POLYLINE
  8
0
 62
0
 70
0
 66
1
 10
0.0
 20
0.0
 30
0.0
  0
VERTEX
  8
0
 10
45.0
 20
1.66533453694e-14
 30
0.0
  0
VERTEX
  8
0
 10
45.05
 20
1.66524101376e-14
 30
0.0
  0
VERTEX
  8
0
 10
45.1
 20
1.66514749057e-14
 30
0.0
  0
VERTEX
  8
0
 10
45.15
 20
1.66505396739e-14
 30
0.0
  0
VERTEX
  8
0
 10
45.2
 20
1.66496044421e-14
 30
0.0
  0
VERTEX
  8
0
 10
45.25
 20
1.66486692103e-14
 30
0.0
  0
VERTEX
  8
0
 10
45.3
 20
1.66477339785e-14
 30
0.0
  0
VERTEX
  8
0
 10
45.35
 20
1.66467987467e-14
 30
0.0
  0
VERTEX
  8
0
 10
45.4
 20
1.66458635149e-14
 30
0.0
  0
VERTEX
  8
0
 10
45.45
 20
1.6644928283e-14
 30
0.0
  0
VERTEX
  8
0
 10
45.5
 20
1.66439930512e-14
 30
0.0
  0
VERTEX
  8
0
 10
45.55
 20
1.66430578194e-14
 30
0.0
  0
VERTEX
  8
0
 10
45.6
 20
1.66406004301e-14
 30
0.0
  0
VERTEX
  8
0
 10
45.65
 20
1.66377709129e-14
 30
0.0
  0
VERTEX
  8
0
 10
45.7
 20
1.66349413957e-14
 30
0.0
  0
VERTEX
  8
0
 10
45.75
 20
1.66321118785e-14
 30
0.0
  0
VERTEX
  8
0
 10
45.8
 20
1.66292823613e-14
 30
0.0
  0
VERTEX
  8
0
 10
45.85
 20
1.66264528441e-14
 30
0.0
  0
VERTEX
  8
0
 10
45.9
 20
1.6623623327e-14
 30
0.0
  0
VERTEX
  8
0
 10
45.95
 20
1.66207938098e-14
 30
0.0
  0
VERTEX
  8
0
 10
46.0
 20
1.66179642926e-14
 30
0.0
  0
VERTEX
  8
0
 10
46.05
 20
1.66151347754e-14
 30
0.0
  0
VERTEX
  8
0
 10
46.1
 20
1.66123052582e-14
 30
0.0
  0
VERTEX
  8
0
 10
46.15
 20
1.66080036896e-14
 30
0.0
  0
VERTEX
  8
0
 10
46.2
 20
1.66032059434e-14
 30
0.0
  0
VERTEX
  8
0
 10
46.25
 20
1.65984081973e-14
 30
0.0
  0
VERTEX
  8
0
 10
46.3
 20
1.65936104511e-14
 30
0.0
  0
VERTEX
  8
0
 10
46.35
 20
1.6588812705e-14
 30
0.0
  0
VERTEX
  8
0
 10
46.4
 20
1.65840149588e-14
 30
0.0
  0
VERTEX
  8
0
 10
46.45
 20
1.65792172127e-14
 30
0.0
  0
VERTEX
  8
0
 10
46.5
 20
1.65744194665e-14
 30
0.0
  0
VERTEX
  8
0
 10
46.55
 20
1.65696217204e-14
 30
0.0
  0
VERTEX
  8
0
 10
46.6
 20
1.65648239742e-14
 30
0.0
  0
VERTEX
  8
0
 10
46.65
 20
1.65600262281e-14
 30
0.0
  0
VERTEX
  8
0
 10
46.7
 20
1.65531867978e-14
 30
0.0
  0
VERTEX
  8
0
 10
46.75
 20
1.65462887563e-14
 30
0.0
  0
VERTEX
  8
0
 10
46.8
 20
1.65393907148e-14
 30
0.0
  0
VERTEX
  8
0
 10
46.85
 20
1.65324926733e-14
 30
0.0
  0
VERTEX
  8
0
 10
46.9
 20
1.65255946318e-14
 30
0.0
  0
VERTEX
  8
0
 10
46.95
 20
1.65186965903e-14
 30
0.0
  0
VERTEX
  8
0
 10
47.0
 20
1.65117985488e-14
 30
0.0
  0
VERTEX
  8
0
 10
47.05
 20
1.65049005072e-14
 30
0.0
  0
VERTEX
  8
0
 10
47.1
 20
1.64980024657e-14
 30
0.0
  0
VERTEX
  8
0
 10
47.15
 20
1.64911044242e-14
 30
0.0
  0
VERTEX
  8
0
 10
47.2
 20
1.64827960114e-14
 30
0.0
  0
VERTEX
  8
0
 10
47.25
 20
1.64735920328e-14
 30
0.0
  0
VERTEX
  8
0
 10
47.3
 20
1.64643880541e-14
 30
0.0
  0
VERTEX
  8
0
 10
47.35
 20
1.64551840755e-14
 30
0.0
  0
VERTEX
  8
0
 10
47.4
 20
1.64459800968e-14
 30
0.0
  0
VERTEX
  8
0
 10
47.45
 20
1.64367761182e-14
 30
0.0
  0
VERTEX
  8
0
 10
47.5
 20
1.64275721395e-14
 30
0.0
  0
VERTEX
  8
0
 10
47.55
 20
1.64183681609e-14
 30
0.0
  0
VERTEX
  8
0
 10
47.6
 20
1.64091641822e-14
 30
0.0
  0
VERTEX
  8
0
 10
47.65
 20
1.63999602036e-14
 30
0.0
  0
VERTEX
  8
0
 10
47.7
 20
1.63886748439e-14
 30
0.0
  0
VERTEX
  8
0
 10
47.75
 20
1.63768586652e-14
 30
0.0
  0
VERTEX
  8
0
 10
47.8
 20
1.63650424866e-14
 30
0.0
  0
VERTEX
  8
0
 10
47.85
 20
1.63532263079e-14
 30
0.0
  0
VERTEX
  8
0
 10
47.9
 20
1.63414101292e-14
 30
0.0
  0
VERTEX
  8
0
 10
47.95
 20
1.63295939505e-14
 30
0.0
  0
VERTEX
  8
0
 10
48.0
 20
1.63177777718e-14
 30
0.0
  0
VERTEX
  8
0
 10
48.05
 20
1.63059615932e-14
 30
0.0
  0
VERTEX
  8
0
 10
48.1
 20
1.62941454145e-14
 30
0.0
  0
VERTEX
  8
0
 10
48.15
 20
1.62803331045e-14
 30
0.0
  0
VERTEX
  8
0
 10
48.2
 20
1.62654507652e-14
 30
0.0
  0
VERTEX
  8
0
 10
48.25
 20
1.62505684259e-14
 30
0.0
  0
VERTEX
  8
0
 10
48.3
 20
1.62356860866e-14
 30
0.0
  0
VERTEX
  8
0
 10
48.35
 20
1.62208037473e-14
 30
0.0
  0
VERTEX
  8
0
 10
48.4
 20
1.6205921408e-14
 30
0.0
  0
VERTEX
  8
0
 10
48.45
 20
1.61910390687e-14
 30
0.0
  0
VERTEX
  8
0
 10
48.5
 20
1.61761567294e-14
 30
0.0
  0
VERTEX
  8
0
 10
48.55
 20
1.61601886337e-14
 30
0.0
  0
VERTEX
  8
0
 10
48.6
 20
1.61415535316e-14
 30
0.0
  0
VERTEX
  8
0
 10
48.65
 20
1.61229184295e-14
 30
0.0
  0
VERTEX
  8
0
 10
48.7
 20
1.61042833275e-14
 30
0.0
  0
VERTEX
  8
0
 10
48.75
 20
1.60856482254e-14
 30
0.0
  0
VERTEX
  8
0
 10
48.8
 20
1.60670131233e-14
 30
0.0
  0
VERTEX
  8
0
 10
48.85
 20
1.60483780212e-14
 30
0.0
  0
VERTEX
  8
0
 10
48.9
 20
1.60297429192e-14
 30
0.0
  0
VERTEX
  8
0
 10
48.95
 20
1.60071578555e-14
 30
0.0
  0
VERTEX
  8
0
 10
49.0
 20
1.59836871617e-14
 30
0.0
  0
VERTEX
  8
0
 10
49.05
 20
1.59602164678e-14
 30
0.0
  0
VERTEX
  8
0
 10
49.1
 20
1.5936745774e-14
 30
0.0
  0
VERTEX
  8
0
 10
49.15
 20
1.59132750802e-14
 30
0.0
  0
VERTEX
  8
0
 10
49.2
 20
1.58898043864e-14
 30
0.0
  0
VERTEX
  8
0
 10
49.25
 20
1.58641515946e-14
 30
0.0
  0
VERTEX
  8
0
 10
49.3
 20
1.58340196351e-14
 30
0.0
  0
VERTEX
  8
0
 10
49.35
 20
1.58038876756e-14
 30
0.0
  0
VERTEX
  8
0
 10
49.4
 20
1.57737557161e-14
 30
0.0
  0
VERTEX
  8
0
 10
49.45
 20
1.57436237566e-14
 30
0.0
  0
VERTEX
  8
0
 10
49.5
 20
1.5713491797e-14
 30
0.0
  0
VERTEX
  8
0
 10
49.55
 20
1.56742629834e-14
 30
0.0
  0
VERTEX
  8
0
 10
49.6
 20
1.56340582512e-14
 30
0.0
  0
VERTEX
  8
0
 10
49.65
 20
1.55938535189e-14
 30
0.0
  0
VERTEX
  8
0
 10
49.7
 20
1.55536487867e-14
 30
0.0
  0
VERTEX
  8
0
 10
49.75
 20
1.5502678527e-14
 30
0.0
  0
VERTEX
  8
0
 10
49.8
 20
1.54448734862e-14
 30
0.0
  0
VERTEX
  8
0
 10
49.85
 20
1.53870684454e-14
 30
0.0
  0
VERTEX
  8
0
 10
49.9
 20
1.5308868778e-14
 30
0.0
  0
VERTEX
  8
0
 10
49.95
 20
1.52108542073e-14
 30
0.0
  0
VERTEX
  8
0
 10
50.0
 20
1.49880108324e-14
 30
0.0
  0
SEQEND
  8
0
  0
POLYLINE
  8
0
 62
0
 70
0
 66
1
 10
0.0
 20
0.0
 30
0.0
  0
VERTEX
  8
0
 10
-45.0
 20
-5.0
 30
0.0
  0
VERTEX
  8
0
 10
-45.05
 20
-5.0
 30
0.0
  0
VERTEX
  8
0
 10
-45.1
 20
-5.0
 30
0.0
  0
VERTEX
  8
0
 10
-45.15
 20
-5.0
 30
0.0
  0
VERTEX
  8
0
 10
-45.2
 20
-5.0
 30
0.0
  0
VERTEX
  8
0
 10
-45.25
 20
-5.0
 30
0.0
  0
VERTEX
  8
0
 10
-45.3
 20
-5.0
 30
0.0
  0
VERTEX
  8
0
 10
-45.35
 20
-5.0
 30
0.0
  0
VERTEX
  8
0
 10
-45.4
 20
-5.0
 30
0.0
  0
VERTEX
  8
0
 10
-45.45
 20
-5.0
 30
0.0
  0
VERTEX
  8
0
 10
-45.5
 20
-5.0
 30
0.0
  0
VERTEX
  8
0
 10
-45.55
 20
-5.0
 30
0.0
  0
VERTEX
  8
0
 10
-45.6
 20
-5.0
 30
0.0
  0
VERTEX
  8
0
 10
-45.65
 20
-5.0
 30
0.0
  0
VERTEX
  8
0
 10
-45.7
 20
-5.0
 30
0.0
  0
VERTEX
  8
0
 10
-45.75
 20
-5.0
 30
0.0
  0
VERTEX
  8
0
 10
-45.8
 20
-5.0
 30
0.0
  0
VERTEX
  8
0
 10
-45.85
 20
-5.0
 30
0.0
  0
VERTEX
  8
0
 10
-45.9
 20
-5.0
 30
0.0
  0
VERTEX
  8
0
 10
-45.95
 20
-5.0
 30
0.0
  0
VERTEX
  8
0
 10
-46.0
 20
-5.0
 30
0.0
  0
VERTEX
  8
0
 10
-46.05
 20
-5.0
 30
0.0
  0
VERTEX
  8
0
 10
-46.1
 20
-5.0
 30
0.0
  0
VERTEX
  8
0
 10
-46.15
 20
-5.0
 30
0.0
  0
VERTEX
  8
0
 10
-46.2
 20
-5.0
 30
0.0
  0
VERTEX
  8
0
 10
-46.25
 20
-5.0
 30
0.0
  0
VERTEX
  8
0
 10
-46.3
 20
-5.0
 30
0.0
  0
VERTEX
  8
0
 10
-46.35
 20
-5.0
 30
0.0
  0
VERTEX
  8
0
 10
-46.4
 20
-5.0
 30
0.0
  0
VERTEX
  8
0
 10
-46.45
 20
-5.0
 30
0.0
  0
VERTEX
  8
0
 10
-46.5
 20
-5.0
 30
0.0
  0
VERTEX
  8
0
 10
-46.55
 20
-5.0
 30
0.0
  0
VERTEX
  8
0
 10
-46.6
 20
-5.0
 30
0.0
  0
VERTEX
  8
0
 10
-46.65
 20
-5.0
 30
0.0
  0
VERTEX
  8
0
 10
-46.7
 20
-5.0
 30
0.0
  0
VERTEX
  8
0
 10
-46.75
 20
-5.0
 30
0.0
  0
VERTEX
  8
0
 10
-46.8
 20
-5.0
 30
0.0
  0
VERTEX
  8
0
 10
-46.85
 20
-5.0
 30
0.0
  0
VERTEX
  8
0
 10
-46.9
 20
-5.0
 30
0.0
  0
VERTEX
  8
0
 10
-46.95
 20
-5.0
 30
0.0
  0
VERTEX
  8
0
 10
-47.0
 20
-5.0
 30
0.0
  0
VERTEX
  8
0
 10
-47.05
 20
-5.0
 30
0.0
  0
VERTEX
  8
0
 10
-47.1
 20
-5.0
 30
0.0
  0
VERTEX
  8
0
 10
-47.15
 20
-5.0
 30
0.0
  0
VERTEX
  8
0
 10
-47.2
 20
-5.0
 30
0.0
  0
VERTEX
  8
0
 10
-47.25
 20
-5.0
 30
0.0
  0
VERTEX
  8
0
 10
-47.3
 20
-5.0
 30
0.0
  0
VERTEX
  8
0
 10
-47.35
 20
-5.0
 30
0.0
  0
VERTEX
  8
0
 10
-47.4
 20
-5.0
 30
0.0
  0
VERTEX
  8
0
 10
-47.45
 20
-5.0
 30
0.0
  0
VERTEX
  8
0
 10
-47.5
 20
-5.0
 30
0.0
  0
VERTEX
  8
0
 10
-47.55
 20
-5.0
 30
0.0
  0
VERTEX
  8
0
 10
-47.6
 20
-5.0
 30
0.0
  0
VERTEX
  8
0
 10
-47.65
 20
-5.0
 30
0.0
  0
VERTEX
  8
0
 10
-47.7
 20
-5.0
 30
0.0
  0
VERTEX
  8
0
 10
-47.75
 20
-5.0
 30
0.0
  0
VERTEX
  8
0
 10
-47.8
 20
-5.0
 30
0.0
  0
VERTEX
  8
0
 10
-47.85
 20
-5.0
 30
0.0
  0
VERTEX
  8
0
 10
-47.9
 20
-5.0
 30
0.0
  0
VERTEX
  8
0
 10
-47.95
 20
-5.0
 30
0.0
  0
VERTEX
  8
0
 10
-48.0
 20
-5.0
 30
0.0
  0
VERTEX
  8
0
 10
-48.05
 20
-5.0
 30
0.0
  0
VERTEX
  8
0
 10
-48.1
 20
-5.0
 30
0.0
  0
VERTEX
  8
0
 10
-48.15
 20
-5.0
 30
0.0
  0
VERTEX
  8
0
 10
-48.2
 20
-5.0
 30
0.0
  0
VERTEX
  8
0
 10
-48.25
 20
-5.0
 30
0.0
  0
VERTEX
  8
0
 10
-48.3
 20
-5.0
 30
0.0
  0
VERTEX
  8
0
 10
-48.35
 20
-5.0
 30
0.0
  0
VERTEX
  8
0
 10
-48.4
 20
-5.0
 30
0.0
  0
VERTEX
  8
0
 10
-48.45
 20
-5.0
 30
0.0
  0
VERTEX
  8
0
 10
-48.5
 20
-5.0
 30
0.0
  0
VERTEX
  8
0
 10
-48.55
 20
-5.0
 30
0.0
  0
VERTEX
  8
0
 10
-48.6
 20
-5.0
 30
0.0
  0
VERTEX
  8
0
 10
-48.65
 20
-5.0
 30
0.0
  0
VERTEX
  8
0
 10
-48.7
 20
-5.0
 30
0.0
  0
VERTEX
  8
0
 10
-48.75
 20
-5.0
 30
0.0
  0
VERTEX
  8
0
 10
-48.8
 20
-5.0
 30
0.0
  0
VERTEX
  8
0
 10
-48.85
 20
-5.0
 30
0.0
  0
VERTEX
  8
0
 10
-48.9
 20
-5.0
 30
0.0
  0
VERTEX
  8
0
 10
-48.95
 20
-5.0
 30
0.0
  0
VERTEX
  8
0
 10
-49.0
 20
-5.0
 30
0.0
  0
VERTEX
  8
0
 10
-49.05
 20
-5.0
 30
0.0
  0
VERTEX
  8
0
 10
-49.1
 20
-5.0
 30
0.0
  0
VERTEX
  8
0
 10
-49.15
 20
-5.0
 30
0.0
  0
VERTEX
  8
0
 10
-49.2
 20
-5.0
 30
0.0
  0
VERTEX
  8
0
 10
-49.25
 20
-5.0
 30
0.0
  0
VERTEX
  8
0
 10
-49.3
 20
-5.0
 30
0.0
  0
VERTEX
  8
0
 10
-49.35
 20
-5.0
 30
0.0
  0
VERTEX
  8
0
 10
-49.4
 20
-5.0
 30
0.0
  0
VERTEX
  8
0
 10
-49.45
 20
-5.0
 30
0.0
  0
VERTEX
  8
0
 10
-49.5
 20
-5.0
 30
0.0
  0
VERTEX
  8
0
 10
-49.55
 20
-5.0
 30
0.0
  0
VERTEX
  8
0
 10
-49.6
 20
-5.0
 30
0.0
  0
VERTEX
  8
0
 10
-49.65
 20
-5.0
 30
0.0
  0
VERTEX
  8
0
 10
-49.7
 20
-5.0
 30
0.0
  0
VERTEX
  8
0
 10
-49.75
 20
-5.0
 30
0.0
  0
VERTEX
  8
0
 10
-49.8
 20
-5.0
 30
0.0
  0
VERTEX
  8
0
 10
-49.85
 20
-5.0
 30
0.0
  0
VERTEX
  8
0
 10
-49.9
 20
-5.0
 30
0.0
  0
VERTEX
  8
0
 10
-49.95
 20
-5.0
 30
0.0
  0
VERTEX
  8
0
 10
-50.0
 20
-5.0
 30
0.0
  0
SEQEND
  8
0
  0
POLYLINE
  8
0
 62
0
 70
0
 66
1
 10
0.0
 20
0.0
 30
0.0
  0
VERTEX
  8
0
 10
45.0
 20
-5.0
 30
0.0
  0
VERTEX
  8
0
 10
45.05
 20
-5.0
 30
0.0
  0
VERTEX
  8
0
 10
45.1
 20
-5.0
 30
0.0
  0
VERTEX
  8
0
 10
45.15
 20
-5.0
 30
0.0
  0
VERTEX
  8
0
 10
45.2
 20
-5.0
 30
0.0
  0
VERTEX
  8
0
 10
45.25
 20
-5.0
 30
0.0
  0
VERTEX
  8
0
 10
45.3
 20
-5.0
 30
0.0
  0
VERTEX
  8
0
 10
45.35
 20
-5.0
 30
0.0
  0
VERTEX
  8
0
 10
45.4
 20
-5.0
 30
0.0
  0
VERTEX
  8
0
 10
45.45
 20
-5.0
 30
0.0
  0
VERTEX
  8
0
 10
45.5
 20
-5.0
 30
0.0
  0
VERTEX
  8
0
 10
45.55
 20
-5.0
 30
0.0
  0
VERTEX
  8
0
 10
45.6
 20
-5.0
 30
0.0
  0
VERTEX
  8
0
 10
45.65
 20
-5.0
 30
0.0
  0
VERTEX
  8
0
 10
45.7
 20
-5.0
 30
0.0
  0
VERTEX
  8
0
 10
45.75
 20
-5.0
 30
0.0
  0
VERTEX
  8
0
 10
45.8
 20
-5.0
 30
0.0
  0
VERTEX
  8
0
 10
45.85
 20
-5.0
 30
0.0
  0
VERTEX
  8
0
 10
45.9
 20
-5.0
 30
0.0
  0
VERTEX
  8
0
 10
45.95
 20
-5.0
 30
0.0
  0
VERTEX
  8
0
 10
46.0
 20
-5.0
 30
0.0
  0
VERTEX
  8
0
 10
46.05
 20
-5.0
 30
0.0
  0
VERTEX
  8
0
 10
46.1
 20
-5.0
 30
0.0
  0
VERTEX
  8
0
 10
46.15
 20
-5.0
 30
0.0
  0
VERTEX
  8
0
 10
46.2
 20
-5.0
 30
0.0
  0
VERTEX
  8
0
 10
46.25
 20
-5.0
 30
0.0
  0
VERTEX
  8
0
 10
46.3
 20
-5.0
 30
0.0
  0
VERTEX
  8
0
 10
46.35
 20
-5.0
 30
0.0
  0
VERTEX
  8
0
 10
46.4
 20
-5.0
 30
0.0
  0
VERTEX
  8
0
 10
46.45
 20
-5.0
 30
0.0
  0
VERTEX
  8
0
 10
46.5
 20
-5.0
 30
0.0
  0
VERTEX
  8
0
 10
46.55
 20
-5.0
 30
0.0
  0
VERTEX
  8
0
 10
46.6
 20
-5.0
 30
0.0
  0
VERTEX
  8
0
 10
46.65
 20
-5.0
 30
0.0
  0
VERTEX
  8
0
 10
46.7
 20
-5.0
 30
0.0
  0
VERTEX
  8
0
 10
46.75
 20
-5.0
 30
0.0
  0
VERTEX
  8
0
 10
46.8
 20
-5.0
 30
0.0
  0
VERTEX
  8
0
 10
46.85
 20
-5.0
 30
0.0
  0
VERTEX
  8
0
 10
46.9
 20
-5.0
 30
0.0
  0
VERTEX
  8
0
 10
46.95
 20
-5.0
 30
0.0
  0
VERTEX
  8
0
 10
47.0
 20
-5.0
 30
0.0
  0
VERTEX
  8
0
 10
47.05
 20
-5.0
 30
0.0
  0
VERTEX
  8
0
 10
47.1
 20
-5.0
 30
0.0
  0
VERTEX
  8
0
 10
47.15
 20
-5.0
 30
0.0
  0
VERTEX
  8
0
 10
47.2
 20
-5.0
 30
0.0
  0
VERTEX
  8
0
 10
47.25
 20
-5.0
 30
0.0
  0
VERTEX
  8
0
 10
47.3
 20
-5.0
 30
0.0
  0
VERTEX
  8
0
 10
47.35
 20
-5.0
 30
0.0
  0
VERTEX
  8
0
 10
47.4
 20
-5.0
 30
0.0
  0
VERTEX
  8
0
 10
47.45
 20
-5.0
 30
0.0
  0
VERTEX
  8
0
 10
47.5
 20
-5.0
 30
0.0
  0
VERTEX
  8
0
 10
47.55
 20
-5.0
 30
0.0
  0
VERTEX
  8
0
 10
47.6
 20
-5.0
 30
0.0
  0
VERTEX
  8
0
 10
47.65
 20
-5.0
 30
0.0
  0
VERTEX
  8
0
 10
47.7
 20
-5.0
 30
0.0
  0
VERTEX
  8
0
 10
47.75
 20
-5.0
 30
0.0
  0
VERTEX
  8
0
 10
47.8
 20
-5.0
 30
0.0
  0
VERTEX
  8
0
 10
47.85
 20
-5.0
 30
0.0
  0
VERTEX
  8
0
 10
47.9
 20
-5.0
 30
0.0
  0
VERTEX
  8
0
 10
47.95
 20
-5.0
 30
0.0
  0
VERTEX
  8
0
 10
48.0
 20
-5.0
 30
0.0
  0
VERTEX
  8
0
 10
48.05
 20
-5.0
 30
0.0
  0
VERTEX
  8
0
 10
48.1
 20
-5.0
 30
0.0
  0
VERTEX
  8
0
 10
48.15
 20
-5.0
 30
0.0
  0
VERTEX
  8
0
 10
48.2
 20
-5.0
 30
0.0
  0
VERTEX
  8
0
 10
48.25
 20
-5.0
 30
0.0
  0
VERTEX
  8
0
 10
48.3
 20
-5.0
 30
0.0
  0
VERTEX
  8
0
 10
48.35
 20
-5.0
 30
0.0
  0
VERTEX
  8
0
 10
48.4
 20
-5.0
 30
0.0
  0
VERTEX
  8
0
 10
48.45
 20
-5.0
 30
0.0
  0
VERTEX
  8
0
 10
48.5
 20
-5.0
 30
0.0
  0
VERTEX
  8
0
 10
48.55
 20
-5.0
 30
0.0
  0
VERTEX
  8
0
 10
48.6
 20
-5.0
 30
0.0
  0
VERTEX
  8
0
 10
48.65
 20
-5.0
 30
0.0
  0
VERTEX
  8
0
 10
48.7
 20
-5.0
 30
0.0
  0
VERTEX
  8
0
 10
48.75
 20
-5.0
 30
0.0
  0
VERTEX
  8
0
 10
48.8
 20
-5.0
 30
0.0
  0
VERTEX
  8
0
 10
48.85
 20
-5.0
 30
0.0
  0
VERTEX
  8
0
 10
48.9
 20
-5.0
 30
0.0
  0
VERTEX
  8
0
 10
48.95
 20
-5.0
 30
0.0
  0
VERTEX
  8
0
 10
49.0
 20
-5.0
 30
0.0
  0
VERTEX
  8
0
 10
49.05
 20
-5.0
 30
0.0
  0
VERTEX
  8
0
 10
49.1
 20
-5.0
 30
0.0
  0
VERTEX
  8
0
 10
49.15
 20
-5.0
 30
0.0
  0
VERTEX
  8
0
 10
49.2
 20
-5.0
 30
0.0
  0
VERTEX
  8
0
 10
49.25
 20
-5.0
 30
0.0
  0
VERTEX
  8
0
 10
49.3
 20
-5.0
 30
0.0
  0
VERTEX
  8
0
 10
49.35
 20
-5.0
 30
0.0
  0
VERTEX
  8
0
 10
49.4
 20
-5.0
 30
0.0
  0
VERTEX
  8
0
 10
49.45
 20
-5.0
 30
0.0
  0
VERTEX
  8
0
 10
49.5
 20
-5.0
 30
0.0
  0
VERTEX
  8
0
 10
49.55
 20
-5.0
 30
0.0
  0
VERTEX
  8
0
 10
49.6
 20
-5.0
 30
0.0
  0
VERTEX
  8
0
 10
49.65
 20
-5.0
 30
0.0
  0
VERTEX
  8
0
 10
49.7
 20
-5.0
 30
0.0
  0
VERTEX
  8
0
 10
49.75
 20
-5.0
 30
0.0
  0
VERTEX
  8
0
 10
49.8
 20
-5.0
 30
0.0
  0
VERTEX
  8
0
 10
49.85
 20
-5.0
 30
0.0
  0
VERTEX
  8
0
 10
49.9
 20
-5.0
 30
0.0
  0
VERTEX
  8
0
 10
49.95
 20
-5.0
 30
0.0
  0
VERTEX
  8
0
 10
50.0
 20
-5.0
 30
0.0
  0
SEQEND
  8
0
  0
POLYLINE
  8
0
 62
0
 70
0
 66
1
 10
0.0
 20
0.0
 30
0.0
  0
VERTEX
  8
0
 10
32.6
 20
-5.0
 30
0.0
  0
VERTEX
  8
0
 10
32.55
 20
-5.0
 30
0.0
  0
VERTEX
  8
0
 10
32.5
 20
-5.0
 30
0.0
  0
VERTEX
  8
0
 10
32.45
 20
-5.0
 30
0.0
  0
VERTEX
  8
0
 10
32.4
 20
-5.0
 30
0.0
  0
VERTEX
  8
0
 10
32.35
 20
-5.0
 30
0.0
  0
VERTEX
  8
0
 10
32.3
 20
-5.0
 30
0.0
  0
VERTEX
  8
0
 10
32.25
 20
-5.0
 30
0.0
  0
VERTEX
  8
0
 10
32.2
 20
-5.0
 30
0.0
  0
VERTEX
  8
0
 10
32.15
 20
-5.0
 30
0.0
  0
VERTEX
  8
0
 10
32.1
 20
-5.0
 30
0.0
  0
VERTEX
  8
0
 10
32.05
 20
-5.0
 30
0.0
  0
VERTEX
  8
0
 10
32.0
 20
-5.0
 30
0.0
  0
VERTEX
  8
0
 10
31.95
 20
-5.0
 30
0.0
  0
VERTEX
  8
0
 10
31.9
 20
-5.0
 30
0.0
  0
VERTEX
  8
0
 10
31.85
 20
-5.0
 30
0.0
  0
VERTEX
  8
0
 10
31.8
 20
-5.0
 30
0.0
  0
VERTEX
  8
0
 10
31.75
 20
-5.0
 30
0.0
  0
VERTEX
  8
0
 10
31.7
 20
-5.0
 30
0.0
  0
VERTEX
  8
0
 10
31.65
 20
-5.0
 30
0.0
  0
VERTEX
  8
0
 10
31.6
 20
-5.0
 30
0.0
  0
VERTEX
  8
0
 10
31.55
 20
-5.0
 30
0.0
  0
VERTEX
  8
0
 10
31.5
 20
-5.0
 30
0.0
  0
VERTEX
  8
0
 10
31.45
 20
-5.0
 30
0.0
  0
VERTEX
  8
0
 10
31.4
 20
-5.0
 30
0.0
  0
VERTEX
  8
0
 10
31.35
 20
-5.0
 30
0.0
  0
VERTEX
  8
0
 10
31.3
 20
-5.0
 30
0.0
  0
VERTEX
  8
0
 10
31.25
 20
-5.0
 30
0.0
  0
VERTEX
  8
0
 10
31.2
 20
-5.0
 30
0.0
  0
VERTEX
  8
0
 10
31.15
 20
-5.0
 30
0.0
  0
VERTEX
  8
0
 10
31.1
 20
-5.0
 30
0.0
  0
VERTEX
  8
0
 10
31.05
 20
-5.0
 30
0.0
  0
VERTEX
  8
0
 10
31.0
 20
-5.0
 30
0.0
  0
VERTEX
  8
0
 10
30.95
 20
-5.0
 30
0.0
  0
VERTEX
  8
0
 10
30.9
 20
-5.0
 30
0.0
  0
VERTEX
  8
0
 10
30.85
 20
-5.0
 30
0.0
  0
VERTEX
  8
0
 10
30.8
 20
-5.0
 30
0.0
  0
VERTEX
  8
0
 10
30.75
 20
-5.0
 30
0.0
  0
VERTEX
  8
0
 10
30.7
 20
-5.0
 30
0.0
  0
VERTEX
  8
0
 10
30.65
 20
-5.0
 30
0.0
  0
VERTEX
  8
0
 10
30.6
 20
-5.0
 30
0.0
  0
VERTEX
  8
0
 10
30.55
 20
-5.0
 30
0.0
  0
VERTEX
  8
0
 10
30.5
 20
-5.0
 30
0.0
  0
VERTEX
  8
0
 10
30.45
 20
-5.0
 30
0.0
  0
VERTEX
  8
0
 10
30.4
 20
-5.0
 30
0.0
  0
VERTEX
  8
0
 10
30.35
 20
-5.0
 30
0.0
  0
VERTEX
  8
0
 10
30.3
 20
-5.0
 30
0.0
  0
VERTEX
  8
0
 10
30.25
 20
-5.0
 30
0.0
  0
VERTEX
  8
0
 10
30.2
 20
-5.0
 30
0.0
  0
VERTEX
  8
0
 10
30.15
 20
-5.0
 30
0.0
  0
VERTEX
  8
0
 10
30.1
 20
-5.0
 30
0.0
  0
VERTEX
  8
0
 10
30.05
 20
-5.0
 30
0.0
  0
VERTEX
  8
0
 10
30.0
 20
-5.0
 30
0.0
  0
VERTEX
  8
0
 10
29.95
 20
-5.0
 30
0.0
  0
VERTEX
  8
0
 10
29.9
 20
-5.0
 30
0.0
  0
VERTEX
  8
0
 10
29.85
 20
-5.0
 30
0.0
  0
VERTEX
  8
0
 10
29.8
 20
-5.0
 30
0.0
  0
VERTEX
  8
0
 10
29.75
 20
-5.0
 30
0.0
  0
VERTEX
  8
0
 10
29.7
 20
-5.0
 30
0.0
  0
VERTEX
  8
0
 10
29.65
 20
-5.0
 30
0.0
  0
VERTEX
  8
0
 10
29.6
 20
-5.0
 30
0.0
  0
VERTEX
  8
0
 10
29.55
 20
-5.0
 30
0.0
  0
VERTEX
  8
0
 10
29.5
 20
-5.0
 30
0.0
  0
VERTEX
  8
0
 10
29.45
 20
-5.0
 30
0.0
  0
VERTEX
  8
0
 10
29.4
 20
-5.0
 30
0.0
  0
VERTEX
  8
0
 10
29.35
 20
-5.0
 30
0.0
  0
VERTEX
  8
0
 10
29.3
 20
-5.0
 30
0.0
  0
VERTEX
  8
0
 10
29.25
 20
-5.0
 30
0.0
  0
VERTEX
  8
0
 10
29.2
 20
-5.0
 30
0.0
  0
VERTEX
  8
0
 10
29.15
 20
-5.0
 30
0.0
  0
VERTEX
  8
0
 10
29.1
 20
-5.0
 30
0.0
  0
VERTEX
  8
0
 10
29.05
 20
-5.0
 30
0.0
  0
VERTEX
  8
0
 10
29.0
 20
-5.0
 30
0.0
  0
VERTEX
  8
0
 10
28.95
 20
-5.0
 30
0.0
  0
VERTEX
  8
0
 10
28.9
 20
-5.0
 30
0.0
  0
VERTEX
  8
0
 10
28.85
 20
-5.0
 30
0.0
  0
VERTEX
  8
0
 10
28.8
 20
-5.0
 30
0.0
  0
VERTEX
  8
0
 10
28.75
 20
-5.0
 30
0.0
  0
VERTEX
  8
0
 10
28.7
 20
-5.0
 30
0.0
  0
VERTEX
  8
0
 10
28.65
 20
-5.0
 30
0.0
  0
VERTEX
  8
0
 10
28.6
 20
-5.0
 30
0.0
  0
VERTEX
  8
0
 10
28.55
 20
-5.0
 30
0.0
  0
VERTEX
  8
0
 10
28.5
 20
-5.0
 30
0.0
  0
VERTEX
  8
0
 10
28.45
 20
-5.0
 30
0.0
  0
VERTEX
  8
0
 10
28.4
 20
-5.0
 30
0.0
  0
VERTEX
  8
0
 10
28.35
 20
-5.0
 30
0.0
  0
VERTEX
  8
0
 10
28.3
 20
-5.0
 30
0.0
  0
VERTEX
  8
0
 10
28.25
 20
-5.0
 30
0.0
  0
VERTEX
  8
0
 10
28.2
 20
-5.0
 30
0.0
  0
VERTEX
  8
0
 10
28.15
 20
-5.0
 30
0.0
  0
VERTEX
  8
0
 10
28.1
 20
-5.0
 30
0.0
  0
VERTEX
  8
0
 10
28.05
 20
-5.0
 30
0.0
  0
VERTEX
  8
0
 10
28.0
 20
-5.0
 30
0.0
  0
VERTEX
  8
0
 10
27.95
 20
-5.0
 30
0.0
  0
VERTEX
  8
0
 10
27.9
 20
-5.0
 30
0.0
  0
VERTEX
  8
0
 10
27.85
 20
-5.0
 30
0.0
  0
VERTEX
  8
0
 10
27.8
 20
-5.0
 30
0.0
  0
VERTEX
  8
0
 10
27.75
 20
-5.0
 30
0.0
  0
VERTEX
  8
0
 10
27.7
 20
-5.0
 30
0.0
  0
VERTEX
  8
0
 10
27.65
 20
-5.0
 30
0.0
  0
VERTEX
  8
0
 10
27.6
 20
-5.0
 30
0.0
  0
VERTEX
  8
0
 10
27.55
 20
-5.0
 30
0.0
  0
VERTEX
  8
0
 10
27.5
 20
-5.0
 30
0.0
  0
VERTEX
  8
0
 10
27.45
 20
-5.0
 30
0.0
  0
VERTEX
  8
0
 10
27.4
 20
-5.0
 30
0.0
  0
SEQEND
  8
0
  0
POLYLINE
  8
0
 62
0
 70
0
 66
1
 10
0.0
 20
0.0
 30
0.0
  0
VERTEX
  8
0
 10
-27.4
 20
-5.0
 30
0.0
  0
VERTEX
  8
0
 10
-27.45
 20
-5.0
 30
0.0
  0
VERTEX
  8
0
 10
-27.5
 20
-5.0
 30
0.0
  0
VERTEX
  8
0
 10
-27.55
 20
-5.0
 30
0.0
  0
VERTEX
  8
0
 10
-27.6
 20
-5.0
 30
0.0
  0
VERTEX
  8
0
 10
-27.65
 20
-5.0
 30
0.0
  0
VERTEX
  8
0
 10
-27.7
 20
-5.0
 30
0.0
  0
VERTEX
  8
0
 10
-27.75
 20
-5.0
 30
0.0
  0
VERTEX
  8
0
 10
-27.8
 20
-5.0
 30
0.0
  0
VERTEX
  8
0
 10
-27.85
 20
-5.0
 30
0.0
  0
VERTEX
  8
0
 10
-27.9
 20
-5.0
 30
0.0
  0
VERTEX
  8
0
 10
-27.95
 20
-5.0
 30
0.0
  0
VERTEX
  8
0
 10
-28.0
 20
-5.0
 30
0.0
  0
VERTEX
  8
0
 10
-28.05
 20
-5.0
 30
0.0
  0
VERTEX
  8
0
 10
-28.1
 20
-5.0
 30
0.0
  0
VERTEX
  8
0
 10
-28.15
 20
-5.0
 30
0.0
  0
VERTEX
  8
0
 10
-28.2
 20
-5.0
 30
0.0
  0
VERTEX
  8
0
 10
-28.25
 20
-5.0
 30
0.0
  0
VERTEX
  8
0
 10
-28.3
 20
-5.0
 30
0.0
  0
VERTEX
  8
0
 10
-28.35
 20
-5.0
 30
0.0
  0
VERTEX
  8
0
 10
-28.4
 20
-5.0
 30
0.0
  0
VERTEX
  8
0
 10
-28.45
 20
-5.0
 30
0.0
  0
VERTEX
  8
0
 10
-28.5
 20
-5.0
 30
0.0
  0
VERTEX
  8
0
 10
-28.55
 20
-5.0
 30
0.0
  0
VERTEX
  8
0
 10
-28.6
 20
-5.0
 30
0.0
  0
VERTEX
  8
0
 10
-28.65
 20
-5.0
 30
0.0
  0
VERTEX
  8
0
 10
-28.7
 20
-5.0
 30
0.0
  0
VERTEX
  8
0
 10
-28.75
 20
-5.0
 30
0.0
  0
VERTEX
  8
0
 10
-28.8
 20
-5.0
 30
0.0
  0
VERTEX
  8
0
 10
-28.85
 20
-5.0
 30
0.0
  0
VERTEX
  8
0
 10
-28.9
 20
-5.0
 30
0.0
  0
VERTEX
  8
0
 10
-28.95
 20
-5.0
 30
0.0
  0
VERTEX
  8
0
 10
-29.0
 20
-5.0
 30
0.0
  0
VERTEX
  8
0
 10
-29.05
 20
-5.0
 30
0.0
  0
VERTEX
  8
0
 10
-29.1
 20
-5.0
 30
0.0
  0
VERTEX
  8
0
 10
-29.15
 20
-5.0
 30
0.0
  0
VERTEX
  8
0
 10
-29.2
 20
-5.0
 30
0.0
  0
VERTEX
  8
0
 10
-29.25
 20
-5.0
 30
0.0
  0
VERTEX
  8
0
 10
-29.3
 20
-5.0
 30
0.0
  0
VERTEX
  8
0
 10
-29.35
 20
-5.0
 30
0.0
  0
VERTEX
  8
0
 10
-29.4
 20
-5.0
 30
0.0
  0
VERTEX
  8
0
 10
-29.45
 20
-5.0
 30
0.0
  0
VERTEX
  8
0
 10
-29.5
 20
-5.0
 30
0.0
  0
VERTEX
  8
0
 10
-29.55
 20
-5.0
 30
0.0
  0
VERTEX
  8
0
 10
-29.6
 20
-5.0
 30
0.0
  0
VERTEX
  8
0
 10
-29.65
 20
-5.0
 30
0.0
  0
VERTEX
  8
0
 10
-29.7
 20
-5.0
 30
0.0
  0
VERTEX
  8
0
 10
-29.75
 20
-5.0
 30
0.0
  0
VERTEX
  8
0
 10
-29.8
 20
-5.0
 30
0.0
  0
VERTEX
  8
0
 10
-29.85
 20
-5.0
 30
0.0
  0
VERTEX
  8
0
 10
-29.9
 20
-5.0
 30
0.0
  0
VERTEX
  8
0
 10
-29.95
 20
-5.0
 30
0.0
  0
VERTEX
  8
0
 10
-30.0
 20
-5.0
 30
0.0
  0
VERTEX
  8
0
 10
-30.05
 20
-5.0
 30
0.0
  0
VERTEX
  8
0
 10
-30.1
 20
-5.0
 30
0.0
  0
VERTEX
  8
0
 10
-30.15
 20
-5.0
 30
0.0
  0
VERTEX
  8
0
 10
-30.2
 20
-5.0
 30
0.0
  0
VERTEX
  8
0
 10
-30.25
 20
-5.0
 30
0.0
  0
VERTEX
  8
0
 10
-30.3
 20
-5.0
 30
0.0
  0
VERTEX
  8
0
 10
-30.35
 20
-5.0
 30
0.0
  0
VERTEX
  8
0
 10
-30.4
 20
-5.0
 30
0.0
  0
VERTEX
  8
0
 10
-30.45
 20
-5.0
 30
0.0
  0
VERTEX
  8
0
 10
-30.5
 20
-5.0
 30
0.0
  0
VERTEX
  8
0
 10
-30.55
 20
-5.0
 30
0.0
  0
VERTEX
  8
0
 10
-30.6
 20
-5.0
 30
0.0
  0
VERTEX
  8
0
 10
-30.65
 20
-5.0
 30
0.0
  0
VERTEX
  8
0
 10
-30.7
 20
-5.0
 30
0.0
  0
VERTEX
  8
0
 10
-30.75
 20
-5.0
 30
0.0
  0
VERTEX
  8
0
 10
-30.8
 20
-5.0
 30
0.0
  0
VERTEX
  8
0
 10
-30.85
 20
-5.0
 30
0.0
  0
VERTEX
  8
0
 10
-30.9
 20
-5.0
 30
0.0
  0
VERTEX
  8
0
 10
-30.95
 20
-5.0
 30
0.0
  0
VERTEX
  8
0
 10
-31.0
 20
-5.0
 30
0.0
  0
VERTEX
  8
0
 10
-31.05
 20
-5.0
 30
0.0
  0
VERTEX
  8
0
 10
-31.1
 20
-5.0
 30
0.0
  0
VERTEX
  8
0
 10
-31.15
 20
-5.0
 30
0.0
  0
VERTEX
  8
0
 10
-31.2
 20
-5.0
 30
0.0
  0
VERTEX
  8
0
 10
-31.25
 20
-5.0
 30
0.0
  0
VERTEX
  8
0
 10
-31.3
 20
-5.0
 30
0.0
  0
VERTEX
  8
0
 10
-31.35
 20
-5.0
 30
0.0
  0
VERTEX
  8
0
 10
-31.4
 20
-5.0
 30
0.0
  0
VERTEX
  8
0
 10
-31.45
 20
-5.0
 30
0.0
  0
VERTEX
  8
0
 10
-31.5
 20
-5.0
 30
0.0
  0
VERTEX
  8
0
 10
-31.55
 20
-5.0
 30
0.0
  0
VERTEX
  8
0
 10
-31.6
 20
-5.0
 30
0.0
  0
VERTEX
  8
0
 10
-31.65
 20
-5.0
 30
0.0
  0
VERTEX
  8
0
 10
-31.7
 20
-5.0
 30
0.0
  0
VERTEX
  8
0
 10
-31.75
 20
-5.0
 30
0.0
  0
VERTEX
  8
0
 10
-31.8
 20
-5.0
 30
0.0
  0
VERTEX
  8
0
 10
-31.85
 20
-5.0
 30
0.0
  0
VERTEX
  8
0
 10
-31.9
 20
-5.0
 30
0.0
  0
VERTEX
  8
0
 10
-31.95
 20
-5.0
 30
0.0
  0
VERTEX
  8
0
 10
-32.0
 20
-5.0
 30
0.0
  0
VERTEX
  8
0
 10
-32.05
 20
-5.0
 30
0.0
  0
VERTEX
  8
0
 10
-32.1
 20
-5.0
 30
0.0
  0
VERTEX
  8
0
 10
-32.15
 20
-5.0
 30
0.0
  0
VERTEX
  8
0
 10
-32.2
 20
-5.0
 30
0.0
  0
VERTEX
  8
0
 10
-32.25
 20
-5.0
 30
0.0
  0
VERTEX
  8
0
 10
-32.3
 20
-5.0
 30
0.0
  0
VERTEX
  8
0
 10
-32.35
 20
-5.0
 30
0.0
  0
VERTEX
  8
0
 10
-32.4
 20
-5.0
 30
0.0
  0
VERTEX
  8
0
 10
-32.45
 20
-5.0
 30
0.0
  0
VERTEX
  8
0
 10
-32.5
 20
-5.0
 30
0.0
  0
VERTEX
  8
0
 10
-32.55
 20
-5.0
 30
0.0
  0
VERTEX
  8
0
 10
-32.6
 20
-5.0
 30
0.0
  0
SEQEND
  8
0
  0
POLYLINE
  8
0
 62
0
 70
0
 66
1
 10
0.0
 20
0.0
 30
0.0
  0
VERTEX
  8
0
 10
42.6
 20
-5.0
 30
0.0
  0
VERTEX
  8
0
 10
42.55
 20
-5.0
 30
0.0
  0
VERTEX
  8
0
 10
42.5
 20
-5.0
 30
0.0
  0
VERTEX
  8
0
 10
42.45
 20
-5.0
 30
0.0
  0
VERTEX
  8
0
 10
42.4
 20
-5.0
 30
0.0
  0
VERTEX
  8
0
 10
42.35
 20
-5.0
 30
0.0
  0
VERTEX
  8
0
 10
42.3
 20
-5.0
 30
0.0
  0
VERTEX
  8
0
 10
42.25
 20
-5.0
 30
0.0
  0
VERTEX
  8
0
 10
42.2
 20
-5.0
 30
0.0
  0
VERTEX
  8
0
 10
42.15
 20
-5.0
 30
0.0
  0
VERTEX
  8
0
 10
42.1
 20
-5.0
 30
0.0
  0
VERTEX
  8
0
 10
42.05
 20
-5.0
 30
0.0
  0
VERTEX
  8
0
 10
42.0
 20
-5.0
 30
0.0
  0
VERTEX
  8
0
 10
41.95
 20
-5.0
 30
0.0
  0
VERTEX
  8
0
 10
41.9
 20
-5.0
 30
0.0
  0
VERTEX
  8
0
 10
41.85
 20
-5.0
 30
0.0
  0
VERTEX
  8
0
 10
41.8
 20
-5.0
 30
0.0
  0
VERTEX
  8
0
 10
41.75
 20
-5.0
 30
0.0
  0
VERTEX
  8
0
 10
41.7
 20
-5.0
 30
0.0
  0
VERTEX
  8
0
 10
41.65
 20
-5.0
 30
0.0
  0
VERTEX
  8
0
 10
41.6
 20
-5.0
 30
0.0
  0
VERTEX
  8
0
 10
41.55
 20
-5.0
 30
0.0
  0
VERTEX
  8
0
 10
41.5
 20
-5.0
 30
0.0
  0
VERTEX
  8
0
 10
41.45
 20
-5.0
 30
0.0
  0
VERTEX
  8
0
 10
41.4
 20
-5.0
 30
0.0
  0
VERTEX
  8
0
 10
41.35
 20
-5.0
 30
0.0
  0
VERTEX
  8
0
 10
41.3
 20
-5.0
 30
0.0
  0
VERTEX
  8
0
 10
41.25
 20
-5.0
 30
0.0
  0
VERTEX
  8
0
 10
41.2
 20
-5.0
 30
0.0
  0
VERTEX
  8
0
 10
41.15
 20
-5.0
 30
0.0
  0
VERTEX
  8
0
 10
41.1
 20
-5.0
 30
0.0
  0
VERTEX
  8
0
 10
41.05
 20
-5.0
 30
0.0
  0
VERTEX
  8
0
 10
41.0
 20
-5.0
 30
0.0
  0
VERTEX
  8
0
 10
40.95
 20
-5.0
 30
0.0
  0
VERTEX
  8
0
 10
40.9
 20
-5.0
 30
0.0
  0
VERTEX
  8
0
 10
40.85
 20
-5.0
 30
0.0
  0
VERTEX
  8
0
 10
40.8
 20
-5.0
 30
0.0
  0
VERTEX
  8
0
 10
40.75
 20
-5.0
 30
0.0
  0
VERTEX
  8
0
 10
40.7
 20
-5.0
 30
0.0
  0
VERTEX
  8
0
 10
40.65
 20
-5.0
 30
0.0
  0
VERTEX
  8
0
 10
40.6
 20
-5.0
 30
0.0
  0
VERTEX
  8
0
 10
40.55
 20
-5.0
 30
0.0
  0
VERTEX
  8
0
 10
40.5
 20
-5.0
 30
0.0
  0
VERTEX
  8
0
 10
40.45
 20
-5.0
 30
0.0
  0
VERTEX
  8
0
 10
40.4
 20
-5.0
 30
0.0
  0
VERTEX
  8
0
 10
40.35
 20
-5.0
 30
0.0
  0
VERTEX
  8
0
 10
40.3
 20
-5.0
 30
0.0
  0
VERTEX
  8
0
 10
40.25
 20
-5.0
 30
0.0
  0
VERTEX
  8
0
 10
40.2
 20
-5.0
 30
0.0
  0
VERTEX
  8
0
 10
40.15
 20
-5.0
 30
0.0
  0
VERTEX
  8
0
 10
40.1
 20
-5.0
 30
0.0
  0
VERTEX
  8
0
 10
40.05
 20
-5.0
 30
0.0
  0
VERTEX
  8
0
 10
40.0
 20
-5.0
 30
0.0
  0
VERTEX
  8
0
 10
39.95
 20
-5.0
 30
0.0
  0
VERTEX
  8
0
 10
39.9
 20
-5.0
 30
0.0
  0
VERTEX
  8
0
 10
39.85
 20
-5.0
 30
0.0
  0
VERTEX
  8
0
 10
39.8
 20
-5.0
 30
0.0
  0
VERTEX
  8
0
 10
39.75
 20
-5.0
 30
0.0
  0
VERTEX
  8
0
 10
39.7
 20
-5.0
 30
0.0
  0
VERTEX
  8
0
 10
39.65
 20
-5.0
 30
0.0
  0
VERTEX
  8
0
 10
39.6
 20
-5.0
 30
0.0
  0
VERTEX
  8
0
 10
39.55
 20
-5.0
 30
0.0
  0
VERTEX
  8
0
 10
39.5
 20
-5.0
 30
0.0
  0
VERTEX
  8
0
 10
39.45
 20
-5.0
 30
0.0
  0
VERTEX
  8
0
 10
39.4
 20
-5.0
 30
0.0
  0
VERTEX
  8
0
 10
39.35
 20
-5.0
 30
0.0
  0
VERTEX
  8
0
 10
39.3
 20
-5.0
 30
0.0
  0
VERTEX
  8
0
 10
39.25
 20
-5.0
 30
0.0
  0
VERTEX
  8
0
 10
39.2
 20
-5.0
 30
0.0
  0
VERTEX
  8
0
 10
39.15
 20
-5.0
 30
0.0
  0
VERTEX
  8
0
 10
39.1
 20
-5.0
 30
0.0
  0
VERTEX
  8
0
 10
39.05
 20
-5.0
 30
0.0
  0
VERTEX
  8
0
 10
39.0
 20
-5.0
 30
0.0
  0
VERTEX
  8
0
 10
38.95
 20
-5.0
 30
0.0
  0
VERTEX
  8
0
 10
38.9
 20
-5.0
 30
0.0
  0
VERTEX
  8
0
 10
38.85
 20
-5.0
 30
0.0
  0
VERTEX
  8
0
 10
38.8
 20
-5.0
 30
0.0
  0
VERTEX
  8
0
 10
38.75
 20
-5.0
 30
0.0
  0
VERTEX
  8
0
 10
38.7
 20
-5.0
 30
0.0
  0
VERTEX
  8
0
 10
38.65
 20
-5.0
 30
0.0
  0
VERTEX
  8
0
 10
38.6
 20
-5.0
 30
0.0
  0
VERTEX
  8
0
 10
38.55
 20
-5.0
 30
0.0
  0
VERTEX
  8
0
 10
38.5
 20
-5.0
 30
0.0
  0
VERTEX
  8
0
 10
38.45
 20
-5.0
 30
0.0
  0
VERTEX
  8
0
 10
38.4
 20
-5.0
 30
0.0
  0
VERTEX
  8
0
 10
38.35
 20
-5.0
 30
0.0
  0
VERTEX
  8
0
 10
38.3
 20
-5.0
 30
0.0
  0
VERTEX
  8
0
 10
38.25
 20
-5.0
 30
0.0
  0
VERTEX
  8
0
 10
38.2
 20
-5.0
 30
0.0
  0
VERTEX
  8
0
 10
38.15
 20
-5.0
 30
0.0
  0
VERTEX
  8
0
 10
38.1
 20
-5.0
 30
0.0
  0
VERTEX
  8
0
 10
38.05
 20
-5.0
 30
0.0
  0
VERTEX
  8
0
 10
38.0
 20
-5.0
 30
0.0
  0
VERTEX
  8
0
 10
37.95
 20
-5.0
 30
0.0
  0
VERTEX
  8
0
 10
37.9
 20
-5.0
 30
0.0
  0
VERTEX
  8
0
 10
37.85
 20
-5.0
 30
0.0
  0
VERTEX
  8
0
 10
37.8
 20
-5.0
 30
0.0
  0
VERTEX
  8
0
 10
37.75
 20
-5.0
 30
0.0
  0
VERTEX
  8
0
 10
37.7
 20
-5.0
 30
0.0
  0
VERTEX
  8
0
 10
37.65
 20
-5.0
 30
0.0
  0
VERTEX
  8
0
 10
37.6
 20
-5.0
 30
0.0
  0
VERTEX
  8
0
 10
37.55
 20
-5.0
 30
0.0
  0
VERTEX
  8
0
 10
37.5
 20
-5.0
 30
0.0
  0
VERTEX
  8
0
 10
37.45
 20
-5.0
 30
0.0
  0
VERTEX
  8
0
 10
37.4
 20
-5.0
 30
0.0
  0
SEQEND
  8
0
  0
POLYLINE
  8
0
 62
0
 70
0
 66
1
 10
0.0
 20
0.0
 30
0.0
  0
VERTEX
  8
0
 10
-37.4
 20
-5.0
 30
0.0
  0
VERTEX
  8
0
 10
-37.45
 20
-5.0
 30
0.0
  0
VERTEX
  8
0
 10
-37.5
 20
-5.0
 30
0.0
  0
VERTEX
  8
0
 10
-37.55
 20
-5.0
 30
0.0
  0
VERTEX
  8
0
 10
-37.6
 20
-5.0
 30
0.0
  0
VERTEX
  8
0
 10
-37.65
 20
-5.0
 30
0.0
  0
VERTEX
  8
0
 10
-37.7
 20
-5.0
 30
0.0
  0
VERTEX
  8
0
 10
-37.75
 20
-5.0
 30
0.0
  0
VERTEX
  8
0
 10
-37.8
 20
-5.0
 30
0.0
  0
VERTEX
  8
0
 10
-37.85
 20
-5.0
 30
0.0
  0
VERTEX
  8
0
 10
-37.9
 20
-5.0
 30
0.0
  0
VERTEX
  8
0
 10
-37.95
 20
-5.0
 30
0.0
  0
VERTEX
  8
0
 10
-38.0
 20
-5.0
 30
0.0
  0
VERTEX
  8
0
 10
-38.05
 20
-5.0
 30
0.0
  0
VERTEX
  8
0
 10
-38.1
 20
-5.0
 30
0.0
  0
VERTEX
  8
0
 10
-38.15
 20
-5.0
 30
0.0
  0
VERTEX
  8
0
 10
-38.2
 20
-5.0
 30
0.0
  0
VERTEX
  8
0
 10
-38.25
 20
-5.0
 30
0.0
  0
VERTEX
  8
0
 10
-38.3
 20
-5.0
 30
0.0
  0
VERTEX
  8
0
 10
-38.35
 20
-5.0
 30
0.0
  0
VERTEX
  8
0
 10
-38.4
 20
-5.0
 30
0.0
  0
VERTEX
  8
0
 10
-38.45
 20
-5.0
 30
0.0
  0
VERTEX
  8
0
 10
-38.5
 20
-5.0
 30
0.0
  0
VERTEX
  8
0
 10
-38.55
 20
-5.0
 30
0.0
  0
VERTEX
  8
0
 10
-38.6
 20
-5.0
 30
0.0
  0
VERTEX
  8
0
 10
-38.65
 20
-5.0
 30
0.0
  0
VERTEX
  8
0
 10
-38.7
 20
-5.0
 30
0.0
  0
VERTEX
  8
0
 10
-38.75
 20
-5.0
 30
0.0
  0
VERTEX
  8
0
 10
-38.8
 20
-5.0
 30
0.0
  0
VERTEX
  8
0
 10
-38.85
 20
-5.0
 30
0.0
  0
VERTEX
  8
0
 10
-38.9
 20
-5.0
 30
0.0
  0
VERTEX
  8
0
 10
-38.95
 20
-5.0
 30
0.0
  0
VERTEX
  8
0
 10
-39.0
 20
-5.0
 30
0.0
  0
VERTEX
  8
0
 10
-39.05
 20
-5.0
 30
0.0
  0
VERTEX
  8
0
 10
-39.1
 20
-5.0
 30
0.0
  0
VERTEX
  8
0
 10
-39.15
 20
-5.0
 30
0.0
  0
VERTEX
  8
0
 10
-39.2
 20
-5.0
 30
0.0
  0
VERTEX
  8
0
 10
-39.25
 20
-5.0
 30
0.0
  0
VERTEX
  8
0
 10
-39.3
 20
-5.0
 30
0.0
  0
VERTEX
  8
0
 10
-39.35
 20
-5.0
 30
0.0
  0
VERTEX
  8
0
 10
-39.4
 20
-5.0
 30
0.0
  0
VERTEX
  8
0
 10
-39.45
 20
-5.0
 30
0.0
  0
VERTEX
  8
0
 10
-39.5
 20
-5.0
 30
0.0
  0
VERTEX
  8
0
 10
-39.55
 20
-5.0
 30
0.0
  0
VERTEX
  8
0
 10
-39.6
 20
-5.0
 30
0.0
  0
VERTEX
  8
0
 10
-39.65
 20
-5.0
 30
0.0
  0
VERTEX
  8
0
 10
-39.7
 20
-5.0
 30
0.0
  0
VERTEX
  8
0
 10
-39.75
 20
-5.0
 30
0.0
  0
VERTEX
  8
0
 10
-39.8
 20
-5.0
 30
0.0
  0
VERTEX
  8
0
 10
-39.85
 20
-5.0
 30
0.0
  0
VERTEX
  8
0
 10
-39.9
 20
-5.0
 30
0.0
  0
VERTEX
  8
0
 10
-39.95
 20
-5.0
 30
0.0
  0
VERTEX
  8
0
 10
-40.0
 20
-5.0
 30
0.0
  0
VERTEX
  8
0
 10
-40.05
 20
-5.0
 30
0.0
  0
VERTEX
  8
0
 10
-40.1
 20
-5.0
 30
0.0
  0
VERTEX
  8
0
 10
-40.15
 20
-5.0
 30
0.0
  0
VERTEX
  8
0
 10
-40.2
 20
-5.0
 30
0.0
  0
VERTEX
  8
0
 10
-40.25
 20
-5.0
 30
0.0
  0
VERTEX
  8
0
 10
-40.3
 20
-5.0
 30
0.0
  0
VERTEX
  8
0
 10
-40.35
 20
-5.0
 30
0.0
  0
VERTEX
  8
0
 10
-40.4
 20
-5.0
 30
0.0
  0
VERTEX
  8
0
 10
-40.45
 20
-5.0
 30
0.0
  0
VERTEX
  8
0
 10
-40.5
 20
-5.0
 30
0.0
  0
VERTEX
  8
0
 10
-40.55
 20
-5.0
 30
0.0
  0
VERTEX
  8
0
 10
-40.6
 20
-5.0
 30
0.0
  0
VERTEX
  8
0
 10
-40.65
 20
-5.0
 30
0.0
  0
VERTEX
  8
0
 10
-40.7
 20
-5.0
 30
0.0
  0
VERTEX
  8
0
 10
-40.75
 20
-5.0
 30
0.0
  0
VERTEX
  8
0
 10
-40.8
 20
-5.0
 30
0.0
  0
VERTEX
  8
0
 10
-40.85
 20
-5.0
 30
0.0
  0
VERTEX
  8
0
 10
-40.9
 20
-5.0
 30
0.0
  0
VERTEX
  8
0
 10
-40.95
 20
-5.0
 30
0.0
  0
VERTEX
  8
0
 10
-41.0
 20
-5.0
 30
0.0
  0
VERTEX
  8
0
 10
-41.05
 20
-5.0
 30
0.0
  0
VERTEX
  8
0
 10
-41.1
 20
-5.0
 30
0.0
  0
VERTEX
  8
0
 10
-41.15
 20
-5.0
 30
0.0
  0
VERTEX
  8
0
 10
-41.2
 20
-5.0
 30
0.0
  0
VERTEX
  8
0
 10
-41.25
 20
-5.0
 30
0.0
  0
VERTEX
  8
0
 10
-41.3
 20
-5.0
 30
0.0
  0
VERTEX
  8
0
 10
-41.35
 20
-5.0
 30
0.0
  0
VERTEX
  8
0
 10
-41.4
 20
-5.0
 30
0.0
  0
VERTEX
  8
0
 10
-41.45
 20
-5.0
 30
0.0
  0
VERTEX
  8
0
 10
-41.5
 20
-5.0
 30
0.0
  0
VERTEX
  8
0
 10
-41.55
 20
-5.0
 30
0.0
  0
VERTEX
  8
0
 10
-41.6
 20
-5.0
 30
0.0
  0
VERTEX
  8
0
 10
-41.65
 20
-5.0
 30
0.0
  0
VERTEX
  8
0
 10
-41.7
 20
-5.0
 30
0.0
  0
VERTEX
  8
0
 10
-41.75
 20
-5.0
 30
0.0
  0
VERTEX
  8
0
 10
-41.8
 20
-5.0
 30
0.0
  0
VERTEX
  8
0
 10
-41.85
 20
-5.0
 30
0.0
  0
VERTEX
  8
0
 10
-41.9
 20
-5.0
 30
0.0
  0
VERTEX
  8
0
 10
-41.95
 20
-5.0
 30
0.0
  0
VERTEX
  8
0
 10
-42.0
 20
-5.0
 30
0.0
  0
VERTEX
  8
0
 10
-42.05
 20
-5.0
 30
0.0
  0
VERTEX
  8
0
 10
-42.1
 20
-5.0
 30
0.0
  0
VERTEX
  8
0
 10
-42.15
 20
-5.0
 30
0.0
  0
VERTEX
  8
0
 10
-42.2
 20
-5.0
 30
0.0
  0
VERTEX
  8
0
 10
-42.25
 20
-5.0
 30
0.0
  0
VERTEX
  8
0
 10
-42.3
 20
-5.0
 30
0.0
  0
VERTEX
  8
0
 10
-42.35
 20
-5.0
 30
0.0
  0
VERTEX
  8
0
 10
-42.4
 20
-5.0
 30
0.0
  0
VERTEX
  8
0
 10
-42.45
 20
-5.0
 30
0.0
  0
VERTEX
  8
0
 10
-42.5
 20
-5.0
 30
0.0
  0
VERTEX
  8
0
 10
-42.55
 20
-5.0
 30
0.0
  0
VERTEX
  8
0
 10
-42.6
 20
-5.0
 30
0.0
  0
SEQEND
  8
0
  0
POLYLINE
  8
0
 62
0
 70
0
 66
1
 10
0.0
 20
0.0
 30
0.0
  0
VERTEX
  8
0
 10
17.5
 20
-5.0
 30
0.0
  0
VERTEX
  8
0
 10
17.45
 20
-5.0
 30
0.0
  0
VERTEX
  8
0
 10
17.4
 20
-5.0
 30
0.0
  0
VERTEX
  8
0
 10
17.35
 20
-5.0
 30
0.0
  0
VERTEX
  8
0
 10
17.3
 20
-5.0
 30
0.0
  0
VERTEX
  8
0
 10
17.25
 20
-5.0
 30
0.0
  0
VERTEX
  8
0
 10
17.2
 20
-5.0
 30
0.0
  0
VERTEX
  8
0
 10
17.15
 20
-5.0
 30
0.0
  0
VERTEX
  8
0
 10
17.1
 20
-5.0
 30
0.0
  0
VERTEX
  8
0
 10
17.05
 20
-5.0
 30
0.0
  0
VERTEX
  8
0
 10
17.0
 20
-5.0
 30
0.0
  0
VERTEX
  8
0
 10
16.95
 20
-5.0
 30
0.0
  0
VERTEX
  8
0
 10
16.9
 20
-5.0
 30
0.0
  0
VERTEX
  8
0
 10
16.85
 20
-5.0
 30
0.0
  0
VERTEX
  8
0
 10
16.8
 20
-5.0
 30
0.0
  0
VERTEX
  8
0
 10
16.75
 20
-5.0
 30
0.0
  0
VERTEX
  8
0
 10
16.7
 20
-5.0
 30
0.0
  0
VERTEX
  8
0
 10
16.65
 20
-5.0
 30
0.0
  0
VERTEX
  8
0
 10
16.6
 20
-5.0
 30
0.0
  0
VERTEX
  8
0
 10
16.55
 20
-5.0
 30
0.0
  0
VERTEX
  8
0
 10
16.5
 20
-5.0
 30
0.0
  0
VERTEX
  8
0
 10
16.45
 20
-5.0
 30
0.0
  0
VERTEX
  8
0
 10
16.4
 20
-5.0
 30
0.0
  0
VERTEX
  8
0
 10
16.35
 20
-5.0
 30
0.0
  0
VERTEX
  8
0
 10
16.3
 20
-5.0
 30
0.0
  0
VERTEX
  8
0
 10
16.25
 20
-5.0
 30
0.0
  0
VERTEX
  8
0
 10
16.2
 20
-5.0
 30
0.0
  0
VERTEX
  8
0
 10
16.15
 20
-5.0
 30
0.0
  0
VERTEX
  8
0
 10
16.1
 20
-5.0
 30
0.0
  0
VERTEX
  8
0
 10
16.05
 20
-5.0
 30
0.0
  0
VERTEX
  8
0
 10
16.0
 20
-5.0
 30
0.0
  0
VERTEX
  8
0
 10
15.95
 20
-5.0
 30
0.0
  0
VERTEX
  8
0
 10
15.9
 20
-5.0
 30
0.0
  0
VERTEX
  8
0
 10
15.85
 20
-5.0
 30
0.0
  0
VERTEX
  8
0
 10
15.8
 20
-5.0
 30
0.0
  0
VERTEX
  8
0
 10
15.75
 20
-5.0
 30
0.0
  0
VERTEX
  8
0
 10
15.7
 20
-5.0
 30
0.0
  0
VERTEX
  8
0
 10
15.65
 20
-5.0
 30
0.0
  0
VERTEX
  8
0
 10
15.6
 20
-5.0
 30
0.0
  0
VERTEX
  8
0
 10
15.55
 20
-5.0
 30
0.0
  0
VERTEX
  8
0
 10
15.5
 20
-5.0
 30
0.0
  0
VERTEX
  8
0
 10
15.45
 20
-5.0
 30
0.0
  0
VERTEX
  8
0
 10
15.4
 20
-5.0
 30
0.0
  0
VERTEX
  8
0
 10
15.35
 20
-5.0
 30
0.0
  0
VERTEX
  8
0
 10
15.3
 20
-5.0
 30
0.0
  0
VERTEX
  8
0
 10
15.25
 20
-5.0
 30
0.0
  0
VERTEX
  8
0
 10
15.2
 20
-5.0
 30
0.0
  0
VERTEX
  8
0
 10
15.15
 20
-5.0
 30
0.0
  0
VERTEX
  8
0
 10
15.1
 20
-5.0
 30
0.0
  0
VERTEX
  8
0
 10
15.05
 20
-5.0
 30
0.0
  0
VERTEX
  8
0
 10
15.0
 20
-5.0
 30
0.0
  0
VERTEX
  8
0
 10
14.95
 20
-5.0
 30
0.0
  0
VERTEX
  8
0
 10
14.9
 20
-5.0
 30
0.0
  0
VERTEX
  8
0
 10
14.85
 20
-5.0
 30
0.0
  0
VERTEX
  8
0
 10
14.8
 20
-5.0
 30
0.0
  0
VERTEX
  8
0
 10
14.75
 20
-5.0
 30
0.0
  0
VERTEX
  8
0
 10
14.7
 20
-5.0
 30
0.0
  0
VERTEX
  8
0
 10
14.65
 20
-5.0
 30
0.0
  0
VERTEX
  8
0
 10
14.6
 20
-5.0
 30
0.0
  0
VERTEX
  8
0
 10
14.55
 20
-5.0
 30
0.0
  0
VERTEX
  8
0
 10
14.5
 20
-5.0
 30
0.0
  0
VERTEX
  8
0
 10
14.45
 20
-5.0
 30
0.0
  0
VERTEX
  8
0
 10
14.4
 20
-5.0
 30
0.0
  0
VERTEX
  8
0
 10
14.35
 20
-5.0
 30
0.0
  0
VERTEX
  8
0
 10
14.3
 20
-5.0
 30
0.0
  0
VERTEX
  8
0
 10
14.25
 20
-5.0
 30
0.0
  0
VERTEX
  8
0
 10
14.2
 20
-5.0
 30
0.0
  0
VERTEX
  8
0
 10
14.15
 20
-5.0
 30
0.0
  0
VERTEX
  8
0
 10
14.1
 20
-5.0
 30
0.0
  0
VERTEX
  8
0
 10
14.05
 20
-5.0
 30
0.0
  0
VERTEX
  8
0
 10
14.0
 20
-5.0
 30
0.0
  0
VERTEX
  8
0
 10
13.95
 20
-5.0
 30
0.0
  0
VERTEX
  8
0
 10
13.9
 20
-5.0
 30
0.0
  0
VERTEX
  8
0
 10
13.85
 20
-5.0
 30
0.0
  0
VERTEX
  8
0
 10
13.8
 20
-5.0
 30
0.0
  0
VERTEX
  8
0
 10
13.75
 20
-5.0
 30
0.0
  0
VERTEX
  8
0
 10
13.7
 20
-5.0
 30
0.0
  0
VERTEX
  8
0
 10
13.65
 20
-5.0
 30
0.0
  0
VERTEX
  8
0
 10
13.6
 20
-5.0
 30
0.0
  0
VERTEX
  8
0
 10
13.55
 20
-5.0
 30
0.0
  0
VERTEX
  8
0
 10
13.5
 20
-5.0
 30
0.0
  0
VERTEX
  8
0
 10
13.45
 20
-5.0
 30
0.0
  0
VERTEX
  8
0
 10
13.4
 20
-5.0
 30
0.0
  0
VERTEX
  8
0
 10
13.35
 20
-5.0
 30
0.0
  0
VERTEX
  8
0
 10
13.3
 20
-5.0
 30
0.0
  0
VERTEX
  8
0
 10
13.25
 20
-5.0
 30
0.0
  0
VERTEX
  8
0
 10
13.2
 20
-5.0
 30
0.0
  0
VERTEX
  8
0
 10
13.15
 20
-5.0
 30
0.0
  0
VERTEX
  8
0
 10
13.1
 20
-5.0
 30
0.0
  0
VERTEX
  8
0
 10
13.05
 20
-5.0
 30
0.0
  0
VERTEX
  8
0
 10
13.0
 20
-5.0
 30
0.0
  0
VERTEX
  8
0
 10
12.95
 20
-5.0
 30
0.0
  0
VERTEX
  8
0
 10
12.9
 20
-5.0
 30
0.0
  0
VERTEX
  8
0
 10
12.85
 20
-5.0
 30
0.0
  0
VERTEX
  8
0
 10
12.8
 20
-5.0
 30
0.0
  0
VERTEX
  8
0
 10
12.75
 20
-5.0
 30
0.0
  0
VERTEX
  8
0
 10
12.7
 20
-5.0
 30
0.0
  0
VERTEX
  8
0
 10
12.65
 20
-5.0
 30
0.0
  0
VERTEX
  8
0
 10
12.6
 20
-5.0
 30
0.0
  0
VERTEX
  8
0
 10
12.55
 20
-5.0
 30
0.0
  0
VERTEX
  8
0
 10
12.5
 20
-5.0
 30
0.0
  0
SEQEND
  8
0
  0
POLYLINE
  8
0
 62
0
 70
0
 66
1
 10
0.0
 20
0.0
 30
0.0
  0
VERTEX
  8
0
 10
-12.5
 20
-5.0
 30
0.0
  0
VERTEX
  8
0
 10
-12.55
 20
-5.0
 30
0.0
  0
VERTEX
  8
0
 10
-12.6
 20
-5.0
 30
0.0
  0
VERTEX
  8
0
 10
-12.65
 20
-5.0
 30
0.0
  0
VERTEX
  8
0
 10
-12.7
 20
-5.0
 30
0.0
  0
VERTEX
  8
0
 10
-12.75
 20
-5.0
 30
0.0
  0
VERTEX
  8
0
 10
-12.8
 20
-5.0
 30
0.0
  0
VERTEX
  8
0
 10
-12.85
 20
-5.0
 30
0.0
  0
VERTEX
  8
0
 10
-12.9
 20
-5.0
 30
0.0
  0
VERTEX
  8
0
 10
-12.95
 20
-5.0
 30
0.0
  0
VERTEX
  8
0
 10
-13.0
 20
-5.0
 30
0.0
  0
VERTEX
  8
0
 10
-13.05
 20
-5.0
 30
0.0
  0
VERTEX
  8
0
 10
-13.1
 20
-5.0
 30
0.0
  0
VERTEX
  8
0
 10
-13.15
 20
-5.0
 30
0.0
  0
VERTEX
  8
0
 10
-13.2
 20
-5.0
 30
0.0
  0
VERTEX
  8
0
 10
-13.25
 20
-5.0
 30
0.0
  0
VERTEX
  8
0
 10
-13.3
 20
-5.0
 30
0.0
  0
VERTEX
  8
0
 10
-13.35
 20
-5.0
 30
0.0
  0
VERTEX
  8
0
 10
-13.4
 20
-5.0
 30
0.0
  0
VERTEX
  8
0
 10
-13.45
 20
-5.0
 30
0.0
  0
VERTEX
  8
0
 10
-13.5
 20
-5.0
 30
0.0
  0
VERTEX
  8
0
 10
-13.55
 20
-5.0
 30
0.0
  0
VERTEX
  8
0
 10
-13.6
 20
-5.0
 30
0.0
  0
VERTEX
  8
0
 10
-13.65
 20
-5.0
 30
0.0
  0
VERTEX
  8
0
 10
-13.7
 20
-5.0
 30
0.0
  0
VERTEX
  8
0
 10
-13.75
 20
-5.0
 30
0.0
  0
VERTEX
  8
0
 10
-13.8
 20
-5.0
 30
0.0
  0
VERTEX
  8
0
 10
-13.85
 20
-5.0
 30
0.0
  0
VERTEX
  8
0
 10
-13.9
 20
-5.0
 30
0.0
  0
VERTEX
  8
0
 10
-13.95
 20
-5.0
 30
0.0
  0
VERTEX
  8
0
 10
-14.0
 20
-5.0
 30
0.0
  0
VERTEX
  8
0
 10
-14.05
 20
-5.0
 30
0.0
  0
VERTEX
  8
0
 10
-14.1
 20
-5.0
 30
0.0
  0
VERTEX
  8
0
 10
-14.15
 20
-5.0
 30
0.0
  0
VERTEX
  8
0
 10
-14.2
 20
-5.0
 30
0.0
  0
VERTEX
  8
0
 10
-14.25
 20
-5.0
 30
0.0
  0
VERTEX
  8
0
 10
-14.3
 20
-5.0
 30
0.0
  0
VERTEX
  8
0
 10
-14.35
 20
-5.0
 30
0.0
  0
VERTEX
  8
0
 10
-14.4
 20
-5.0
 30
0.0
  0
VERTEX
  8
0
 10
-14.45
 20
-5.0
 30
0.0
  0
VERTEX
  8
0
 10
-14.5
 20
-5.0
 30
0.0
  0
VERTEX
  8
0
 10
-14.55
 20
-5.0
 30
0.0
  0
VERTEX
  8
0
 10
-14.6
 20
-5.0
 30
0.0
  0
VERTEX
  8
0
 10
-14.65
 20
-5.0
 30
0.0
  0
VERTEX
  8
0
 10
-14.7
 20
-5.0
 30
0.0
  0
VERTEX
  8
0
 10
-14.75
 20
-5.0
 30
0.0
  0
VERTEX
  8
0
 10
-14.8
 20
-5.0
 30
0.0
  0
VERTEX
  8
0
 10
-14.85
 20
-5.0
 30
0.0
  0
VERTEX
  8
0
 10
-14.9
 20
-5.0
 30
0.0
  0
VERTEX
  8
0
 10
-14.95
 20
-5.0
 30
0.0
  0
VERTEX
  8
0
 10
-15.0
 20
-5.0
 30
0.0
  0
VERTEX
  8
0
 10
-15.05
 20
-5.0
 30
0.0
  0
VERTEX
  8
0
 10
-15.1
 20
-5.0
 30
0.0
  0
VERTEX
  8
0
 10
-15.15
 20
-5.0
 30
0.0
  0
VERTEX
  8
0
 10
-15.2
 20
-5.0
 30
0.0
  0
VERTEX
  8
0
 10
-15.25
 20
-5.0
 30
0.0
  0
VERTEX
  8
0
 10
-15.3
 20
-5.0
 30
0.0
  0
VERTEX
  8
0
 10
-15.35
 20
-5.0
 30
0.0
  0
VERTEX
  8
0
 10
-15.4
 20
-5.0
 30
0.0
  0
VERTEX
  8
0
 10
-15.45
 20
-5.0
 30
0.0
  0
VERTEX
  8
0
 10
-15.5
 20
-5.0
 30
0.0
  0
VERTEX
  8
0
 10
-15.55
 20
-5.0
 30
0.0
  0
VERTEX
  8
0
 10
-15.6
 20
-5.0
 30
0.0
  0
VERTEX
  8
0
 10
-15.65
 20
-5.0
 30
0.0
  0
VERTEX
  8
0
 10
-15.7
 20
-5.0
 30
0.0
  0
VERTEX
  8
0
 10
-15.75
 20
-5.0
 30
0.0
  0
VERTEX
  8
0
 10
-15.8
 20
-5.0
 30
0.0
  0
VERTEX
  8
0
 10
-15.85
 20
-5.0
 30
0.0
  0
VERTEX
  8
0
 10
-15.9
 20
-5.0
 30
0.0
  0
VERTEX
  8
0
 10
-15.95
 20
-5.0
 30
0.0
  0
VERTEX
  8
0
 10
-16.0
 20
-5.0
 30
0.0
  0
VERTEX
  8
0
 10
-16.05
 20
-5.0
 30
0.0
  0
VERTEX
  8
0
 10
-16.1
 20
-5.0
 30
0.0
  0
VERTEX
  8
0
 10
-16.15
 20
-5.0
 30
0.0
  0
VERTEX
  8
0
 10
-16.2
 20
-5.0
 30
0.0
  0
VERTEX
  8
0
 10
-16.25
 20
-5.0
 30
0.0
  0
VERTEX
  8
0
 10
-16.3
 20
-5.0
 30
0.0
  0
VERTEX
  8
0
 10
-16.35
 20
-5.0
 30
0.0
  0
VERTEX
  8
0
 10
-16.4
 20
-5.0
 30
0.0
  0
VERTEX
  8
0
 10
-16.45
 20
-5.0
 30
0.0
  0
VERTEX
  8
0
 10
-16.5
 20
-5.0
 30
0.0
  0
VERTEX
  8
0
 10
-16.55
 20
-5.0
 30
0.0
  0
VERTEX
  8
0
 10
-16.6
 20
-5.0
 30
0.0
  0
VERTEX
  8
0
 10
-16.65
 20
-5.0
 30
0.0
  0
VERTEX
  8
0
 10
-16.7
 20
-5.0
 30
0.0
  0
VERTEX
  8
0
 10
-16.75
 20
-5.0
 30
0.0
  0
VERTEX
  8
0
 10
-16.8
 20
-5.0
 30
0.0
  0
VERTEX
  8
0
 10
-16.85
 20
-5.0
 30
0.0
  0
VERTEX
  8
0
 10
-16.9
 20
-5.0
 30
0.0
  0
VERTEX
  8
0
 10
-16.95
 20
-5.0
 30
0.0
  0
VERTEX
  8
0
 10
-17.0
 20
-5.0
 30
0.0
  0
VERTEX
  8
0
 10
-17.05
 20
-5.0
 30
0.0
  0
VERTEX
  8
0
 10
-17.1
 20
-5.0
 30
0.0
  0
VERTEX
  8
0
 10
-17.15
 20
-5.0
 30
0.0
  0
VERTEX
  8
0
 10
-17.2
 20
-5.0
 30
0.0
  0
VERTEX
  8
0
 10
-17.25
 20
-5.0
 30
0.0
  0
VERTEX
  8
0
 10
-17.3
 20
-5.0
 30
0.0
  0
VERTEX
  8
0
 10
-17.35
 20
-5.0
 30
0.0
  0
VERTEX
  8
0
 10
-17.4
 20
-5.0
 30
0.0
  0
VERTEX
  8
0
 10
-17.45
 20
-5.0
 30
0.0
  0
VERTEX
  8
0
 10
-17.5
 20
-5.0
 30
0.0
  0
SEQEND
  8
0
  0
LINE
  8
0
 62
0
 10
-45.0
 20
1.66533453694e-14
 30
0.0
 11
45.0
 21
1.66533453694e-14
 31
0.0
  0
LINE
  8
0
 62
0
 10
-45.0
 20
-5.0
 30
0.0
 11
45.0
 21
-5.0
 31
0.0
  0
LINE
  8
0
 62
0
 10
-50.0
 20
1.49880108324e-14
 30
0.0
 11
-50.0
 21
-5.0
 31
0.0
  0
LINE
  8
0
 62
0
 10
50.0
 20
1.49880108324e-14
 30
0.0
 11
50.0
 21
-5.0
 31
0.0
  0
LINE
  8
0
 62
0
 10
-45.0
 20
1.66533453694e-14
 30
0.0
 11
-45.0
 21
-5.0
 31
0.0
  0
LINE
  8
0
 62
0
 10
45.0
 20
1.66533453694e-14
 30
0.0
 11
45.0
 21
-5.0
 31
0.0
  0
ENDBLK
  0
ENDSEC
  0
SECTION
  2
ENTITIES
  0
INSERT
  2
FILLET
  8
0
 62
0
 10
0.0
 20
0.0
 30
0.0
  0
ENDSEC
  0
EOF
