  0
SECTION
  2
HEADER
  9
$ACADVER
  1
AC1009
  9
$INSBASE
 10
0.0
 20
0.0
 30
0.0
  9
$EXTMIN
 10
0.0
 20
0.0
 30
0.0
  9
$EXTMAX
 10
0.0
 20
0.0
 30
0.0
  0
ENDSEC
  0
SECTION
  2
TABLES
  0
TABLE
  2
VPORT
 70
0
  0
ENDTAB
  0
TABLE
  2
LTYPE
 70
1
  0
LTYPE
  2
CONTINUOUS
 70
0
  3
Solid line
 72
65
 73
0
 40
0.0
  0
ENDTAB
  0
TABLE
  2
LAYER
 70
1
  0
LAYER
  2
0
 70
64
 62
7
  6
continuous
  0
ENDTAB
  0
TABLE
  2
STYLE
 70
1
  0
STYLE
  2
STANDARD
 70
0
 40
0
 41
1.0
 50
0.0
 71
0
 42
1
 3
ARIAL.TTF
 4

  0
ENDTAB
  0
TABLE
  2
VIEW
 70
0
  0
ENDTAB
  0
ENDSEC
  0
SECTION
  2
BLOCKS
  0
BLOCK
  8
0
  2
POCKET
 70
0
 10
0.0
 20
0.0
 30
0.0
  3
POCKET
  0
POLYLINE
  8
0
 62
0
 70
0
 66
1
 10
0.0
 20
0.0
 30
0.0
  0
VERTEX
  8
0
 10
-16.7741158753
 20
4.57220893576e-14
 30
0.0
  0
VERTEX
  8
0
 10
-16.8241158753
 20
4.57195954061e-14
 30
0.0
  0
VERTEX
  8
0
 10
-16.8741158753
 20
4.57171014546e-14
 30
0.0
  0
VERTEX
  8
0
 10
-16.9241158753
 20
4.57146075031e-14
 30
0.0
  0
VERTEX
  8
0
 10
-16.9741158753
 20
4.57121135515e-14
 30
0.0
  0
VERTEX
  8
0
 10
-17.0241158753
 20
4.57096196e-14
 30
0.0
  0
VERTEX
  8
0
 10
-17.0741158753
 20
4.57071256485e-14
 30
0.0
  0
VERTEX
  8
0
 10
-17.1241158753
 20
4.5704631697e-14
 30
0.0
  0
VERTEX
  8
0
 10
-17.1741158753
 20
4.57021377455e-14
 30
0.0
  0
VERTEX
  8
0
 10
-17.2241158753
 20
4.5699643794e-14
 30
0.0
  0
VERTEX
  8
0
 10
-17.2741158753
 20
4.56971498425e-14
 30
0.0
  0
VERTEX
  8
0
 10
-17.3241158753
 20
4.5694655891e-14
 30
0.0
  0
VERTEX
  8
0
 10
-17.3741158753
 20
4.56921619395e-14
 30
0.0
  0
VERTEX
  8
0
 10
-17.4241158753
 20
4.5689667988e-14
 30
0.0
  0
VERTEX
  8
0
 10
-17.4741158753
 20
4.56871740365e-14
 30
0.0
  0
VERTEX
  8
0
 10
-17.5241158753
 20
4.5684680085e-14
 30
0.0
  0
VERTEX
  8
0
 10
-17.5741158753
 20
4.56821861335e-14
 30
0.0
  0
VERTEX
  8
0
 10
-17.6241158753
 20
4.56796921819e-14
 30
0.0
  0
VERTEX
  8
0
 10
-17.6741158753
 20
4.56767654048e-14
 30
0.0
  0
VERTEX
  8
0
 10
-17.7241158753
 20
4.56692200256e-14
 30
0.0
  0
VERTEX
  8
0
 10
-17.7741158753
 20
4.56616746465e-14
 30
0.0
  0
VERTEX
  8
0
 10
-17.8241158753
 20
4.56541292673e-14
 30
0.0
  0
VERTEX
  8
0
 10
-17.8741158753
 20
4.56465838882e-14
 30
0.0
  0
VERTEX
  8
0
 10
-17.9241158753
 20
4.5639038509e-14
 30
0.0
  0
VERTEX
  8
0
 10
-17.9741158753
 20
4.56314931299e-14
 30
0.0
  0
VERTEX
  8
0
 10
-18.0241158753
 20
4.56239477507e-14
 30
0.0
  0
VERTEX
  8
0
 10
-18.0741158753
 20
4.56164023715e-14
 30
0.0
  0
VERTEX
  8
0
 10
-18.1241158753
 20
4.56088569924e-14
 30
0.0
  0
VERTEX
  8
0
 10
-18.1741158753
 20
4.56013116132e-14
 30
0.0
  0
VERTEX
  8
0
 10
-18.2241158753
 20
4.55937662341e-14
 30
0.0
  0
VERTEX
  8
0
 10
-18.2741158753
 20
4.55862208549e-14
 30
0.0
  0
VERTEX
  8
0
 10
-18.3241158753
 20
4.55786754758e-14
 30
0.0
  0
VERTEX
  8
0
 10
-18.3741158753
 20
4.55711300966e-14
 30
0.0
  0
VERTEX
  8
0
 10
-18.4241158753
 20
4.55635847174e-14
 30
0.0
  0
VERTEX
  8
0
 10
-18.4741158753
 20
4.55560393383e-14
 30
0.0
  0
VERTEX
  8
0
 10
-18.5241158753
 20
4.55484939591e-14
 30
0.0
  0
VERTEX
  8
0
 10
-18.5741158753
 20
4.55388667156e-14
 30
0.0
  0
VERTEX
  8
0
 10
-18.6241158753
 20
4.55260727259e-14
 30
0.0
  0
VERTEX
  8
0
 10
-18.6741158753
 20
4.55132787361e-14
 30
0.0
  0
VERTEX
  8
0
 10
-18.7241158753
 20
4.55004847464e-14
 30
0.0
  0
VERTEX
  8
0
 10
-18.7741158753
 20
4.54876907567e-14
 30
0.0
  0
VERTEX
  8
0
 10
-18.8241158753
 20
4.54748967669e-14
 30
0.0
  0
VERTEX
  8
0
 10
-18.8741158753
 20
4.54621027772e-14
 30
0.0
  0
VERTEX
  8
0
 10
-18.9241158753
 20
4.54493087875e-14
 30
0.0
  0
VERTEX
  8
0
 10
-18.9741158753
 20
4.54365147977e-14
 30
0.0
  0
VERTEX
  8
0
 10
-19.0241158753
 20
4.5423720808e-14
 30
0.0
  0
VERTEX
  8
0
 10
-19.0741158753
 20
4.54109268183e-14
 30
0.0
  0
VERTEX
  8
0
 10
-19.1241158753
 20
4.53981328285e-14
 30
0.0
  0
VERTEX
  8
0
 10
-19.1741158753
 20
4.53853388388e-14
 30
0.0
  0
VERTEX
  8
0
 10
-19.2241158753
 20
4.53725448491e-14
 30
0.0
  0
VERTEX
  8
0
 10
-19.2741158753
 20
4.53597508593e-14
 30
0.0
  0
VERTEX
  8
0
 10
-19.3241158753
 20
4.53469568696e-14
 30
0.0
  0
VERTEX
  8
0
 10
-19.3741158753
 20
4.53341628798e-14
 30
0.0
  0
VERTEX
  8
0
 10
-19.4241158753
 20
4.53204988073e-14
 30
0.0
  0
VERTEX
  8
0
 10
-19.4741158753
 20
4.53021040299e-14
 30
0.0
  0
VERTEX
  8
0
 10
-19.5241158753
 20
4.52837092525e-14
 30
0.0
  0
VERTEX
  8
0
 10
-19.5741158753
 20
4.52653144752e-14
 30
0.0
  0
VERTEX
  8
0
 10
-19.6241158753
 20
4.52469196978e-14
 30
0.0
  0
VERTEX
  8
0
 10
-19.6741158753
 20
4.52285249205e-14
 30
0.0
  0
VERTEX
  8
0
 10
-19.7241158753
 20
4.52101301431e-14
 30
0.0
  0
VERTEX
  8
0
 10
-19.7741158753
 20
4.51917353657e-14
 30
0.0
  0
VERTEX
  8
0
 10
-19.8241158753
 20
4.51733405884e-14
 30
0.0
  0
VERTEX
  8
0
 10
-19.8741158753
 20
4.5154945811e-14
 30
0.0
  0
VERTEX
  8
0
 10
-19.9241158753
 20
4.51365510336e-14
 30
0.0
  0
VERTEX
  8
0
 10
-19.9741158753
 20
4.51181562563e-14
 30
0.0
  0
VERTEX
  8
0
 10
-20.0241158753
 20
4.50997614789e-14
 30
0.0
  0
VERTEX
  8
0
 10
-20.0741158753
 20
4.50813667016e-14
 30
0.0
  0
VERTEX
  8
0
 10
-20.1241158753
 20
4.50629719242e-14
 30
0.0
  0
VERTEX
  8
0
 10
-20.1741158753
 20
4.50445771468e-14
 30
0.0
  0
VERTEX
  8
0
 10
-20.2241158753
 20
4.50261823695e-14
 30
0.0
  0
VERTEX
  8
0
 10
-20.2741158753
 20
4.50042296741e-14
 30
0.0
  0
VERTEX
  8
0
 10
-20.3241158753
 20
4.49796857311e-14
 30
0.0
  0
VERTEX
  8
0
 10
-20.3741158753
 20
4.4955141788e-14
 30
0.0
  0
VERTEX
  8
0
 10
-20.4241158753
 20
4.49305978449e-14
 30
0.0
  0
VERTEX
  8
0
 10
-20.4741158753
 20
4.49060539019e-14
 30
0.0
  0
VERTEX
  8
0
 10
-20.5241158753
 20
4.48815099588e-14
 30
0.0
  0
VERTEX
  8
0
 10
-20.5741158753
 20
4.48569660157e-14
 30
0.0
  0
VERTEX
  8
0
 10
-20.6241158753
 20
4.48324220727e-14
 30
0.0
  0
VERTEX
  8
0
 10
-20.6741158753
 20
4.48078781296e-14
 30
0.0
  0
VERTEX
  8
0
 10
-20.7241158753
 20
4.47833341865e-14
 30
0.0
  0
VERTEX
  8
0
 10
-20.7741158753
 20
4.47587902435e-14
 30
0.0
  0
VERTEX
  8
0
 10
-20.8241158753
 20
4.47342463004e-14
 30
0.0
  0
VERTEX
  8
0
 10
-20.8741158753
 20
4.47097023573e-14
 30
0.0
  0
VERTEX
  8
0
 10
-20.9241158753
 20
4.46851584143e-14
 30
0.0
  0
VERTEX
  8
0
 10
-20.9741158753
 20
4.46606144712e-14
 30
0.0
  0
VERTEX
  8
0
 10
-21.0241158753
 20
4.46360705282e-14
 30
0.0
  0
VERTEX
  8
0
 10
-21.0741158753
 20
4.46054323729e-14
 30
0.0
  0
VERTEX
  8
0
 10
-21.1241158753
 20
4.45739225631e-14
 30
0.0
  0
VERTEX
  8
0
 10
-21.1741158753
 20
4.45424127533e-14
 30
0.0
  0
VERTEX
  8
0
 10
-21.2241158753
 20
4.45109029434e-14
 30
0.0
  0
VERTEX
  8
0
 10
-21.2741158753
 20
4.44793931336e-14
 30
0.0
  0
VERTEX
  8
0
 10
-21.3241158753
 20
4.44478833238e-14
 30
0.0
  0
VERTEX
  8
0
 10
-21.3741158753
 20
4.4416373514e-14
 30
0.0
  0
VERTEX
  8
0
 10
-21.4241158753
 20
4.43848637042e-14
 30
0.0
  0
VERTEX
  8
0
 10
-21.4741158753
 20
4.43533538944e-14
 30
0.0
  0
VERTEX
  8
0
 10
-21.5241158753
 20
4.43218440846e-14
 30
0.0
  0
VERTEX
  8
0
 10
-21.5741158753
 20
4.42903342748e-14
 30
0.0
  0
VERTEX
  8
0
 10
-21.6241158753
 20
4.4258824465e-14
 30
0.0
  0
VERTEX
  8
0
 10
-21.6741158753
 20
4.42273146552e-14
 30
0.0
  0
VERTEX
  8
0
 10
-21.7241158753
 20
4.41958048454e-14
 30
0.0
  0
VERTEX
  8
0
 10
-21.7741158753
 20
4.41623193512e-14
 30
0.0
  0
VERTEX
  8
0
 10
-21.8241158753
 20
4.41226331131e-14
 30
0.0
  0
VERTEX
  8
0
 10
-21.8741158753
 20
4.4082946875e-14
 30
0.0
  0
VERTEX
  8
0
 10
-21.9241158753
 20
4.40432606368e-14
 30
0.0
  0
VERTEX
  8
0
 10
-21.9741158753
 20
4.40035743987e-14
 30
0.0
  0
VERTEX
  8
0
 10
-22.0241158753
 20
4.39638881605e-14
 30
0.0
  0
VERTEX
  8
0
 10
-22.0741158753
 20
4.39242019224e-14
 30
0.0
  0
VERTEX
  8
0
 10
-22.1241158753
 20
4.38845156842e-14
 30
0.0
  0
VERTEX
  8
0
 10
-22.1741158753
 20
4.38448294461e-14
 30
0.0
  0
VERTEX
  8
0
 10
-22.2241158753
 20
4.38051432079e-14
 30
0.0
  0
VERTEX
  8
0
 10
-22.2741158753
 20
4.37654569698e-14
 30
0.0
  0
VERTEX
  8
0
 10
-22.3241158753
 20
4.37257707316e-14
 30
0.0
  0
VERTEX
  8
0
 10
-22.3741158753
 20
4.36860844935e-14
 30
0.0
  0
VERTEX
  8
0
 10
-22.4241158753
 20
4.36463982553e-14
 30
0.0
  0
VERTEX
  8
0
 10
-22.4741158753
 20
4.35980765097e-14
 30
0.0
  0
VERTEX
  8
0
 10
-22.5241158753
 20
4.35483829041e-14
 30
0.0
  0
VERTEX
  8
0
 10
-22.5741158753
 20
4.34986892986e-14
 30
0.0
  0
VERTEX
  8
0
 10
-22.6241158753
 20
4.34489956931e-14
 30
0.0
  0
VERTEX
  8
0
 10
-22.6741158753
 20
4.33993020876e-14
 30
0.0
  0
VERTEX
  8
0
 10
-22.7241158753
 20
4.33496084821e-14
 30
0.0
  0
VERTEX
  8
0
 10
-22.7741158753
 20
4.32999148765e-14
 30
0.0
  0
VERTEX
  8
0
 10
-22.8241158753
 20
4.3250221271e-14
 30
0.0
  0
VERTEX
  8
0
 10
-22.8741158753
 20
4.32005276655e-14
 30
0.0
  0
VERTEX
  8
0
 10
-22.9241158753
 20
4.315083406e-14
 30
0.0
  0
VERTEX
  8
0
 10
-22.9741158753
 20
4.31011404545e-14
 30
0.0
  0
VERTEX
  8
0
 10
-23.0241158753
 20
4.3051446849e-14
 30
0.0
  0
VERTEX
  8
0
 10
-23.0741158753
 20
4.29900580385e-14
 30
0.0
  0
VERTEX
  8
0
 10
-23.1241158753
 20
4.29274695216e-14
 30
0.0
  0
VERTEX
  8
0
 10
-23.1741158753
 20
4.28648810047e-14
 30
0.0
  0
VERTEX
  8
0
 10
-23.2241158753
 20
4.28022924878e-14
 30
0.0
  0
VERTEX
  8
0
 10
-23.2741158753
 20
4.27397039709e-14
 30
0.0
  0
VERTEX
  8
0
 10
-23.3241158753
 20
4.26771154541e-14
 30
0.0
  0
VERTEX
  8
0
 10
-23.3741158753
 20
4.26145269372e-14
 30
0.0
  0
VERTEX
  8
0
 10
-23.4241158753
 20
4.25519384203e-14
 30
0.0
  0
VERTEX
  8
0
 10
-23.4741158753
 20
4.24893499034e-14
 30
0.0
  0
VERTEX
  8
0
 10
-23.5241158753
 20
4.24267613865e-14
 30
0.0
  0
VERTEX
  8
0
 10
-23.5741158753
 20
4.23548625852e-14
 30
0.0
  0
VERTEX
  8
0
 10
-23.6241158753
 20
4.22745106932e-14
 30
0.0
  0
VERTEX
  8
0
 10
-23.6741158753
 20
4.21941588011e-14
 30
0.0
  0
VERTEX
  8
0
 10
-23.7241158753
 20
4.21138069091e-14
 30
0.0
  0
VERTEX
  8
0
 10
-23.7741158753
 20
4.20334550171e-14
 30
0.0
  0
VERTEX
  8
0
 10
-23.8241158753
 20
4.19531031251e-14
 30
0.0
  0
VERTEX
  8
0
 10
-23.8741158753
 20
4.1872751233e-14
 30
0.0
  0
VERTEX
  8
0
 10
-23.9241158753
 20
4.1792399341e-14
 30
0.0
  0
VERTEX
  8
0
 10
-23.9741158753
 20
4.1712047449e-14
 30
0.0
  0
VERTEX
  8
0
 10
-24.0241158753
 20
4.16089987491e-14
 30
0.0
  0
VERTEX
  8
0
 10
-24.0741158753
 20
4.15017861298e-14
 30
0.0
  0
VERTEX
  8
0
 10
-24.1241158753
 20
4.13945735104e-14
 30
0.0
  0
VERTEX
  8
0
 10
-24.1741158753
 20
4.12873608911e-14
 30
0.0
  0
VERTEX
  8
0
 10
-24.2241158753
 20
4.11801482718e-14
 30
0.0
  0
VERTEX
  8
0
 10
-24.2741158753
 20
4.10729356524e-14
 30
0.0
  0
VERTEX
  8
0
 10
-24.3241158753
 20
4.09657230331e-14
 30
0.0
  0
VERTEX
  8
0
 10
-24.3741158753
 20
4.08125774969e-14
 30
0.0
  0
VERTEX
  8
0
 10
-24.4241158753
 20
4.06584307214e-14
 30
0.0
  0
VERTEX
  8
0
 10
-24.4741158753
 20
4.05042839459e-14
 30
0.0
  0
VERTEX
  8
0
 10
-24.5241158753
 20
4.03501371705e-14
 30
0.0
  0
VERTEX
  8
0
 10
-24.5741158753
 20
4.01947536516e-14
 30
0.0
  0
VERTEX
  8
0
 10
-24.6241158753
 20
3.99333814632e-14
 30
0.0
  0
VERTEX
  8
0
 10
-24.6741158753
 20
3.96720092747e-14
 30
0.0
  0
VERTEX
  8
0
 10
-24.7241158753
 20
3.94074361015e-14
 30
0.0
  0
VERTEX
  8
0
 10
-24.7741158753
 20
3.8616662e-14
 30
0.0
  0
SEQEND
  8
0
  0
POLYLINE
  8
0
 62
0
 70
0
 66
1
 10
0.0
 20
0.0
 30
0.0
  0
VERTEX
  8
0
 10
16.7741158753
 20
4.57220893576e-14
 30
0.0
  0
VERTEX
  8
0
 10
16.8241158753
 20
4.57195954061e-14
 30
0.0
  0
VERTEX
  8
0
 10
16.8741158753
 20
4.57171014546e-14
 30
0.0
  0
VERTEX
  8
0
 10
16.9241158753
 20
4.57146075031e-14
 30
0.0
  0
VERTEX
  8
0
 10
16.9741158753
 20
4.57121135515e-14
 30
0.0
  0
VERTEX
  8
0
 10
17.0241158753
 20
4.57096196e-14
 30
0.0
  0
VERTEX
  8
0
 10
17.0741158753
 20
4.57071256485e-14
 30
0.0
  0
VERTEX
  8
0
 10
17.1241158753
 20
4.5704631697e-14
 30
0.0
  0
VERTEX
  8
0
 10
17.1741158753
 20
4.57021377455e-14
 30
0.0
  0
VERTEX
  8
0
 10
17.2241158753
 20
4.5699643794e-14
 30
0.0
  0
VERTEX
  8
0
 10
17.2741158753
 20
4.56971498425e-14
 30
0.0
  0
VERTEX
  8
0
 10
17.3241158753
 20
4.5694655891e-14
 30
0.0
  0
VERTEX
  8
0
 10
17.3741158753
 20
4.56921619395e-14
 30
0.0
  0
VERTEX
  8
0
 10
17.4241158753
 20
4.5689667988e-14
 30
0.0
  0
VERTEX
  8
0
 10
17.4741158753
 20
4.56871740365e-14
 30
0.0
  0
VERTEX
  8
0
 10
17.5241158753
 20
4.5684680085e-14
 30
0.0
  0
VERTEX
  8
0
 10
17.5741158753
 20
4.56821861335e-14
 30
0.0
  0
VERTEX
  8
0
 10
17.6241158753
 20
4.56796921819e-14
 30
0.0
  0
VERTEX
  8
0
 10
17.6741158753
 20
4.56767654048e-14
 30
0.0
  0
VERTEX
  8
0
 10
17.7241158753
 20
4.56692200256e-14
 30
0.0
  0
VERTEX
  8
0
 10
17.7741158753
 20
4.56616746465e-14
 30
0.0
  0
VERTEX
  8
0
 10
17.8241158753
 20
4.56541292673e-14
 30
0.0
  0
VERTEX
  8
0
 10
17.8741158753
 20
4.56465838882e-14
 30
0.0
  0
VERTEX
  8
0
 10
17.9241158753
 20
4.5639038509e-14
 30
0.0
  0
VERTEX
  8
0
 10
17.9741158753
 20
4.56314931299e-14
 30
0.0
  0
VERTEX
  8
0
 10
18.0241158753
 20
4.56239477507e-14
 30
0.0
  0
VERTEX
  8
0
 10
18.0741158753
 20
4.56164023715e-14
 30
0.0
  0
VERTEX
  8
0
 10
18.1241158753
 20
4.56088569924e-14
 30
0.0
  0
VERTEX
  8
0
 10
18.1741158753
 20
4.56013116132e-14
 30
0.0
  0
VERTEX
  8
0
 10
18.2241158753
 20
4.55937662341e-14
 30
0.0
  0
VERTEX
  8
0
 10
18.2741158753
 20
4.55862208549e-14
 30
0.0
  0
VERTEX
  8
0
 10
18.3241158753
 20
4.55786754758e-14
 30
0.0
  0
VERTEX
  8
0
 10
18.3741158753
 20
4.55711300966e-14
 30
0.0
  0
VERTEX
  8
0
 10
18.4241158753
 20
4.55635847174e-14
 30
0.0
  0
VERTEX
  8
0
 10
18.4741158753
 20
4.55560393383e-14
 30
0.0
  0
VERTEX
  8
0
 10
18.5241158753
 20
4.55484939591e-14
 30
0.0
  0
VERTEX
  8
0
 10
18.5741158753
 20
4.55388667156e-14
 30
0.0
  0
VERTEX
  8
0
 10
18.6241158753
 20
4.55260727259e-14
 30
0.0
  0
VERTEX
  8
0
 10
18.6741158753
 20
4.55132787361e-14
 30
0.0
  0
VERTEX
  8
0
 10
18.7241158753
 20
4.55004847464e-14
 30
0.0
  0
VERTEX
  8
0
 10
18.7741158753
 20
4.54876907567e-14
 30
0.0
  0
VERTEX
  8
0
 10
18.8241158753
 20
4.54748967669e-14
 30
0.0
  0
VERTEX
  8
0
 10
18.8741158753
 20
4.54621027772e-14
 30
0.0
  0
VERTEX
  8
0
 10
18.9241158753
 20
4.54493087875e-14
 30
0.0
  0
VERTEX
  8
0
 10
18.9741158753
 20
4.54365147977e-14
 30
0.0
  0
VERTEX
  8
0
 10
19.0241158753
 20
4.5423720808e-14
 30
0.0
  0
VERTEX
  8
0
 10
19.0741158753
 20
4.54109268183e-14
 30
0.0
  0
VERTEX
  8
0
 10
19.1241158753
 20
4.53981328285e-14
 30
0.0
  0
VERTEX
  8
0
 10
19.1741158753
 20
4.53853388388e-14
 30
0.0
  0
VERTEX
  8
0
 10
19.2241158753
 20
4.53725448491e-14
 30
0.0
  0
VERTEX
  8
0
 10
19.2741158753
 20
4.53597508593e-14
 30
0.0
  0
VERTEX
  8
0
 10
19.3241158753
 20
4.53469568696e-14
 30
0.0
  0
VERTEX
  8
0
 10
19.3741158753
 20
4.53341628798e-14
 30
0.0
  0
VERTEX
  8
0
 10
19.4241158753
 20
4.53204988073e-14
 30
0.0
  0
VERTEX
  8
0
 10
19.4741158753
 20
4.53021040299e-14
 30
0.0
  0
VERTEX
  8
0
 10
19.5241158753
 20
4.52837092525e-14
 30
0.0
  0
VERTEX
  8
0
 10
19.5741158753
 20
4.52653144752e-14
 30
0.0
  0
VERTEX
  8
0
 10
19.6241158753
 20
4.52469196978e-14
 30
0.0
  0
VERTEX
  8
0
 10
19.6741158753
 20
4.52285249205e-14
 30
0.0
  0
VERTEX
  8
0
 10
19.7241158753
 20
4.52101301431e-14
 30
0.0
  0
VERTEX
  8
0
 10
19.7741158753
 20
4.51917353657e-14
 30
0.0
  0
VERTEX
  8
0
 10
19.8241158753
 20
4.51733405884e-14
 30
0.0
  0
VERTEX
  8
0
 10
19.8741158753
 20
4.5154945811e-14
 30
0.0
  0
VERTEX
  8
0
 10
19.9241158753
 20
4.51365510336e-14
 30
0.0
  0
VERTEX
  8
0
 10
19.9741158753
 20
4.51181562563e-14
 30
0.0
  0
VERTEX
  8
0
 10
20.0241158753
 20
4.50997614789e-14
 30
0.0
  0
VERTEX
  8
0
 10
20.0741158753
 20
4.50813667016e-14
 30
0.0
  0
VERTEX
  8
0
 10
20.1241158753
 20
4.50629719242e-14
 30
0.0
  0
VERTEX
  8
0
 10
20.1741158753
 20
4.50445771468e-14
 30
0.0
  0
VERTEX
  8
0
 10
20.2241158753
 20
4.50261823695e-14
 30
0.0
  0
VERTEX
  8
0
 10
20.2741158753
 20
4.50042296741e-14
 30
0.0
  0
VERTEX
  8
0
 10
20.3241158753
 20
4.49796857311e-14
 30
0.0
  0
VERTEX
  8
0
 10
20.3741158753
 20
4.4955141788e-14
 30
0.0
  0
VERTEX
  8
0
 10
20.4241158753
 20
4.49305978449e-14
 30
0.0
  0
VERTEX
  8
0
 10
20.4741158753
 20
4.49060539019e-14
 30
0.0
  0
VERTEX
  8
0
 10
20.5241158753
 20
4.48815099588e-14
 30
0.0
  0
VERTEX
  8
0
 10
20.5741158753
 20
4.48569660157e-14
 30
0.0
  0
VERTEX
  8
0
 10
20.6241158753
 20
4.48324220727e-14
 30
0.0
  0
VERTEX
  8
0
 10
20.6741158753
 20
4.48078781296e-14
 30
0.0
  0
VERTEX
  8
0
 10
20.7241158753
 20
4.47833341865e-14
 30
0.0
  0
VERTEX
  8
0
 10
20.7741158753
 20
4.47587902435e-14
 30
0.0
  0
VERTEX
  8
0
 10
20.8241158753
 20
4.47342463004e-14
 30
0.0
  0
VERTEX
  8
0
 10
20.8741158753
 20
4.47097023573e-14
 30
0.0
  0
VERTEX
  8
0
 10
20.9241158753
 20
4.46851584143e-14
 30
0.0
  0
VERTEX
  8
0
 10
20.9741158753
 20
4.46606144712e-14
 30
0.0
  0
VERTEX
  8
0
 10
21.0241158753
 20
4.46360705282e-14
 30
0.0
  0
VERTEX
  8
0
 10
21.0741158753
 20
4.46054323729e-14
 30
0.0
  0
VERTEX
  8
0
 10
21.1241158753
 20
4.45739225631e-14
 30
0.0
  0
VERTEX
  8
0
 10
21.1741158753
 20
4.45424127533e-14
 30
0.0
  0
VERTEX
  8
0
 10
21.2241158753
 20
4.45109029434e-14
 30
0.0
  0
VERTEX
  8
0
 10
21.2741158753
 20
4.44793931336e-14
 30
0.0
  0
VERTEX
  8
0
 10
21.3241158753
 20
4.44478833238e-14
 30
0.0
  0
VERTEX
  8
0
 10
21.3741158753
 20
4.4416373514e-14
 30
0.0
  0
VERTEX
  8
0
 10
21.4241158753
 20
4.43848637042e-14
 30
0.0
  0
VERTEX
  8
0
 10
21.4741158753
 20
4.43533538944e-14
 30
0.0
  0
VERTEX
  8
0
 10
21.5241158753
 20
4.43218440846e-14
 30
0.0
  0
VERTEX
  8
0
 10
21.5741158753
 20
4.42903342748e-14
 30
0.0
  0
VERTEX
  8
0
 10
21.6241158753
 20
4.4258824465e-14
 30
0.0
  0
VERTEX
  8
0
 10
21.6741158753
 20
4.42273146552e-14
 30
0.0
  0
VERTEX
  8
0
 10
21.7241158753
 20
4.41958048454e-14
 30
0.0
  0
VERTEX
  8
0
 10
21.7741158753
 20
4.41623193512e-14
 30
0.0
  0
VERTEX
  8
0
 10
21.8241158753
 20
4.41226331131e-14
 30
0.0
  0
VERTEX
  8
0
 10
21.8741158753
 20
4.4082946875e-14
 30
0.0
  0
VERTEX
  8
0
 10
21.9241158753
 20
4.40432606368e-14
 30
0.0
  0
VERTEX
  8
0
 10
21.9741158753
 20
4.40035743987e-14
 30
0.0
  0
VERTEX
  8
0
 10
22.0241158753
 20
4.39638881605e-14
 30
0.0
  0
VERTEX
  8
0
 10
22.0741158753
 20
4.39242019224e-14
 30
0.0
  0
VERTEX
  8
0
 10
22.1241158753
 20
4.38845156842e-14
 30
0.0
  0
VERTEX
  8
0
 10
22.1741158753
 20
4.38448294461e-14
 30
0.0
  0
VERTEX
  8
0
 10
22.2241158753
 20
4.38051432079e-14
 30
0.0
  0
VERTEX
  8
0
 10
22.2741158753
 20
4.37654569698e-14
 30
0.0
  0
VERTEX
  8
0
 10
22.3241158753
 20
4.37257707316e-14
 30
0.0
  0
VERTEX
  8
0
 10
22.3741158753
 20
4.36860844935e-14
 30
0.0
  0
VERTEX
  8
0
 10
22.4241158753
 20
4.36463982553e-14
 30
0.0
  0
VERTEX
  8
0
 10
22.4741158753
 20
4.35980765097e-14
 30
0.0
  0
VERTEX
  8
0
 10
22.5241158753
 20
4.35483829041e-14
 30
0.0
  0
VERTEX
  8
0
 10
22.5741158753
 20
4.34986892986e-14
 30
0.0
  0
VERTEX
  8
0
 10
22.6241158753
 20
4.34489956931e-14
 30
0.0
  0
VERTEX
  8
0
 10
22.6741158753
 20
4.33993020876e-14
 30
0.0
  0
VERTEX
  8
0
 10
22.7241158753
 20
4.33496084821e-14
 30
0.0
  0
VERTEX
  8
0
 10
22.7741158753
 20
4.32999148765e-14
 30
0.0
  0
VERTEX
  8
0
 10
22.8241158753
 20
4.3250221271e-14
 30
0.0
  0
VERTEX
  8
0
 10
22.8741158753
 20
4.32005276655e-14
 30
0.0
  0
VERTEX
  8
0
 10
22.9241158753
 20
4.315083406e-14
 30
0.0
  0
VERTEX
  8
0
 10
22.9741158753
 20
4.31011404545e-14
 30
0.0
  0
VERTEX
  8
0
 10
23.0241158753
 20
4.3051446849e-14
 30
0.0
  0
VERTEX
  8
0
 10
23.0741158753
 20
4.29900580385e-14
 30
0.0
  0
VERTEX
  8
0
 10
23.1241158753
 20
4.29274695216e-14
 30
0.0
  0
VERTEX
  8
0
 10
23.1741158753
 20
4.28648810047e-14
 30
0.0
  0
VERTEX
  8
0
 10
23.2241158753
 20
4.28022924878e-14
 30
0.0
  0
VERTEX
  8
0
 10
23.2741158753
 20
4.27397039709e-14
 30
0.0
  0
VERTEX
  8
0
 10
23.3241158753
 20
4.26771154541e-14
 30
0.0
  0
VERTEX
  8
0
 10
23.3741158753
 20
4.26145269372e-14
 30
0.0
  0
VERTEX
  8
0
 10
23.4241158753
 20
4.25519384203e-14
 30
0.0
  0
VERTEX
  8
0
 10
23.4741158753
 20
4.24893499034e-14
 30
0.0
  0
VERTEX
  8
0
 10
23.5241158753
 20
4.24267613865e-14
 30
0.0
  0
VERTEX
  8
0
 10
23.5741158753
 20
4.23548625852e-14
 30
0.0
  0
VERTEX
  8
0
 10
23.6241158753
 20
4.22745106932e-14
 30
0.0
  0
VERTEX
  8
0
 10
23.6741158753
 20
4.21941588011e-14
 30
0.0
  0
VERTEX
  8
0
 10
23.7241158753
 20
4.21138069091e-14
 30
0.0
  0
VERTEX
  8
0
 10
23.7741158753
 20
4.20334550171e-14
 30
0.0
  0
VERTEX
  8
0
 10
23.8241158753
 20
4.19531031251e-14
 30
0.0
  0
VERTEX
  8
0
 10
23.8741158753
 20
4.1872751233e-14
 30
0.0
  0
VERTEX
  8
0
 10
23.9241158753
 20
4.1792399341e-14
 30
0.0
  0
VERTEX
  8
0
 10
23.9741158753
 20
4.1712047449e-14
 30
0.0
  0
VERTEX
  8
0
 10
24.0241158753
 20
4.16089987491e-14
 30
0.0
  0
VERTEX
  8
0
 10
24.0741158753
 20
4.15017861298e-14
 30
0.0
  0
VERTEX
  8
0
 10
24.1241158753
 20
4.13945735104e-14
 30
0.0
  0
VERTEX
  8
0
 10
24.1741158753
 20
4.12873608911e-14
 30
0.0
  0
VERTEX
  8
0
 10
24.2241158753
 20
4.11801482718e-14
 30
0.0
  0
VERTEX
  8
0
 10
24.2741158753
 20
4.10729356524e-14
 30
0.0
  0
VERTEX
  8
0
 10
24.3241158753
 20
4.09657230331e-14
 30
0.0
  0
VERTEX
  8
0
 10
24.3741158753
 20
4.08125774969e-14
 30
0.0
  0
VERTEX
  8
0
 10
24.4241158753
 20
4.06584307214e-14
 30
0.0
  0
VERTEX
  8
0
 10
24.4741158753
 20
4.05042839459e-14
 30
0.0
  0
VERTEX
  8
0
 10
24.5241158753
 20
4.03501371705e-14
 30
0.0
  0
VERTEX
  8
0
 10
24.5741158753
 20
4.01947536516e-14
 30
0.0
  0
VERTEX
  8
0
 10
24.6241158753
 20
3.99333814632e-14
 30
0.0
  0
VERTEX
  8
0
 10
24.6741158753
 20
3.96720092747e-14
 30
0.0
  0
VERTEX
  8
0
 10
24.7241158753
 20
3.94074361015e-14
 30
0.0
  0
VERTEX
  8
0
 10
24.7741158753
 20
3.8616662e-14
 30
0.0
  0
SEQEND
  8
0
  0
POLYLINE
  8
0
 62
0
 70
0
 66
1
 10
0.0
 20
0.0
 30
0.0
  0
VERTEX
  8
0
 10
-16.7741158753
 20
-4.0
 30
0.0
  0
VERTEX
  8
0
 10
-16.8241158753
 20
-4.0
 30
0.0
  0
VERTEX
  8
0
 10
-16.8741158753
 20
-4.0
 30
0.0
  0
VERTEX
  8
0
 10
-16.9241158753
 20
-4.0
 30
0.0
  0
VERTEX
  8
0
 10
-16.9741158753
 20
-4.0
 30
0.0
  0
VERTEX
  8
0
 10
-17.0241158753
 20
-4.0
 30
0.0
  0
VERTEX
  8
0
 10
-17.0741158753
 20
-4.0
 30
0.0
  0
VERTEX
  8
0
 10
-17.1241158753
 20
-4.0
 30
0.0
  0
VERTEX
  8
0
 10
-17.1741158753
 20
-4.0
 30
0.0
  0
VERTEX
  8
0
 10
-17.2241158753
 20
-4.0
 30
0.0
  0
VERTEX
  8
0
 10
-17.2741158753
 20
-4.0
 30
0.0
  0
VERTEX
  8
0
 10
-17.3241158753
 20
-4.0
 30
0.0
  0
VERTEX
  8
0
 10
-17.3741158753
 20
-4.0
 30
0.0
  0
VERTEX
  8
0
 10
-17.4241158753
 20
-4.0
 30
0.0
  0
VERTEX
  8
0
 10
-17.4741158753
 20
-4.0
 30
0.0
  0
VERTEX
  8
0
 10
-17.5241158753
 20
-4.0
 30
0.0
  0
VERTEX
  8
0
 10
-17.5741158753
 20
-4.0
 30
0.0
  0
VERTEX
  8
0
 10
-17.6241158753
 20
-4.0
 30
0.0
  0
VERTEX
  8
0
 10
-17.6741158753
 20
-4.0
 30
0.0
  0
VERTEX
  8
0
 10
-17.7241158753
 20
-4.0
 30
0.0
  0
VERTEX
  8
0
 10
-17.7741158753
 20
-4.0
 30
0.0
  0
VERTEX
  8
0
 10
-17.8241158753
 20
-4.0
 30
0.0
  0
VERTEX
  8
0
 10
-17.8741158753
 20
-4.0
 30
0.0
  0
VERTEX
  8
0
 10
-17.9241158753
 20
-4.0
 30
0.0
  0
VERTEX
  8
0
 10
-17.9741158753
 20
-4.0
 30
0.0
  0
VERTEX
  8
0
 10
-18.0241158753
 20
-4.0
 30
0.0
  0
VERTEX
  8
0
 10
-18.0741158753
 20
-4.0
 30
0.0
  0
VERTEX
  8
0
 10
-18.1241158753
 20
-4.0
 30
0.0
  0
VERTEX
  8
0
 10
-18.1741158753
 20
-4.0
 30
0.0
  0
VERTEX
  8
0
 10
-18.2241158753
 20
-4.0
 30
0.0
  0
VERTEX
  8
0
 10
-18.2741158753
 20
-4.0
 30
0.0
  0
VERTEX
  8
0
 10
-18.3241158753
 20
-4.0
 30
0.0
  0
VERTEX
  8
0
 10
-18.3741158753
 20
-4.0
 30
0.0
  0
VERTEX
  8
0
 10
-18.4241158753
 20
-4.0
 30
0.0
  0
VERTEX
  8
0
 10
-18.4741158753
 20
-4.0
 30
0.0
  0
VERTEX
  8
0
 10
-18.5241158753
 20
-4.0
 30
0.0
  0
VERTEX
  8
0
 10
-18.5741158753
 20
-4.0
 30
0.0
  0
VERTEX
  8
0
 10
-18.6241158753
 20
-4.0
 30
0.0
  0
VERTEX
  8
0
 10
-18.6741158753
 20
-4.0
 30
0.0
  0
VERTEX
  8
0
 10
-18.7241158753
 20
-4.0
 30
0.0
  0
VERTEX
  8
0
 10
-18.7741158753
 20
-4.0
 30
0.0
  0
VERTEX
  8
0
 10
-18.8241158753
 20
-4.0
 30
0.0
  0
VERTEX
  8
0
 10
-18.8741158753
 20
-4.0
 30
0.0
  0
VERTEX
  8
0
 10
-18.9241158753
 20
-4.0
 30
0.0
  0
VERTEX
  8
0
 10
-18.9741158753
 20
-4.0
 30
0.0
  0
VERTEX
  8
0
 10
-19.0241158753
 20
-4.0
 30
0.0
  0
VERTEX
  8
0
 10
-19.0741158753
 20
-4.0
 30
0.0
  0
VERTEX
  8
0
 10
-19.1241158753
 20
-4.0
 30
0.0
  0
VERTEX
  8
0
 10
-19.1741158753
 20
-4.0
 30
0.0
  0
VERTEX
  8
0
 10
-19.2241158753
 20
-4.0
 30
0.0
  0
VERTEX
  8
0
 10
-19.2741158753
 20
-4.0
 30
0.0
  0
VERTEX
  8
0
 10
-19.3241158753
 20
-4.0
 30
0.0
  0
VERTEX
  8
0
 10
-19.3741158753
 20
-4.0
 30
0.0
  0
VERTEX
  8
0
 10
-19.4241158753
 20
-4.0
 30
0.0
  0
VERTEX
  8
0
 10
-19.4741158753
 20
-4.0
 30
0.0
  0
VERTEX
  8
0
 10
-19.5241158753
 20
-4.0
 30
0.0
  0
VERTEX
  8
0
 10
-19.5741158753
 20
-4.0
 30
0.0
  0
VERTEX
  8
0
 10
-19.6241158753
 20
-4.0
 30
0.0
  0
VERTEX
  8
0
 10
-19.6741158753
 20
-4.0
 30
0.0
  0
VERTEX
  8
0
 10
-19.7241158753
 20
-4.0
 30
0.0
  0
VERTEX
  8
0
 10
-19.7741158753
 20
-4.0
 30
0.0
  0
VERTEX
  8
0
 10
-19.8241158753
 20
-4.0
 30
0.0
  0
VERTEX
  8
0
 10
-19.8741158753
 20
-4.0
 30
0.0
  0
VERTEX
  8
0
 10
-19.9241158753
 20
-4.0
 30
0.0
  0
VERTEX
  8
0
 10
-19.9741158753
 20
-4.0
 30
0.0
  0
VERTEX
  8
0
 10
-20.0241158753
 20
-4.0
 30
0.0
  0
VERTEX
  8
0
 10
-20.0741158753
 20
-4.0
 30
0.0
  0
VERTEX
  8
0
 10
-20.1241158753
 20
-4.0
 30
0.0
  0
VERTEX
  8
0
 10
-20.1741158753
 20
-4.0
 30
0.0
  0
VERTEX
  8
0
 10
-20.2241158753
 20
-4.0
 30
0.0
  0
VERTEX
  8
0
 10
-20.2741158753
 20
-4.0
 30
0.0
  0
VERTEX
  8
0
 10
-20.3241158753
 20
-4.0
 30
0.0
  0
VERTEX
  8
0
 10
-20.3741158753
 20
-4.0
 30
0.0
  0
VERTEX
  8
0
 10
-20.4241158753
 20
-4.0
 30
0.0
  0
VERTEX
  8
0
 10
-20.4741158753
 20
-4.0
 30
0.0
  0
VERTEX
  8
0
 10
-20.5241158753
 20
-4.0
 30
0.0
  0
VERTEX
  8
0
 10
-20.5741158753
 20
-4.0
 30
0.0
  0
VERTEX
  8
0
 10
-20.6241158753
 20
-4.0
 30
0.0
  0
VERTEX
  8
0
 10
-20.6741158753
 20
-4.0
 30
0.0
  0
VERTEX
  8
0
 10
-20.7241158753
 20
-4.0
 30
0.0
  0
VERTEX
  8
0
 10
-20.7741158753
 20
-4.0
 30
0.0
  0
VERTEX
  8
0
 10
-20.8241158753
 20
-4.0
 30
0.0
  0
VERTEX
  8
0
 10
-20.8741158753
 20
-4.0
 30
0.0
  0
VERTEX
  8
0
 10
-20.9241158753
 20
-4.0
 30
0.0
  0
VERTEX
  8
0
 10
-20.9741158753
 20
-4.0
 30
0.0
  0
VERTEX
  8
0
 10
-21.0241158753
 20
-4.0
 30
0.0
  0
VERTEX
  8
0
 10
-21.0741158753
 20
-4.0
 30
0.0
  0
VERTEX
  8
0
 10
-21.1241158753
 20
-4.0
 30
0.0
  0
VERTEX
  8
0
 10
-21.1741158753
 20
-4.0
 30
0.0
  0
VERTEX
  8
0
 10
-21.2241158753
 20
-4.0
 30
0.0
  0
VERTEX
  8
0
 10
-21.2741158753
 20
-4.0
 30
0.0
  0
VERTEX
  8
0
 10
-21.3241158753
 20
-4.0
 30
0.0
  0
VERTEX
  8
0
 10
-21.3741158753
 20
-4.0
 30
0.0
  0
VERTEX
  8
0
 10
-21.4241158753
 20
-4.0
 30
0.0
  0
VERTEX
  8
0
 10
-21.4741158753
 20
-4.0
 30
0.0
  0
VERTEX
  8
0
 10
-21.5241158753
 20
-4.0
 30
0.0
  0
VERTEX
  8
0
 10
-21.5741158753
 20
-4.0
 30
0.0
  0
VERTEX
  8
0
 10
-21.6241158753
 20
-4.0
 30
0.0
  0
VERTEX
  8
0
 10
-21.6741158753
 20
-4.0
 30
0.0
  0
VERTEX
  8
0
 10
-21.7241158753
 20
-4.0
 30
0.0
  0
VERTEX
  8
0
 10
-21.7741158753
 20
-4.0
 30
0.0
  0
VERTEX
  8
0
 10
-21.8241158753
 20
-4.0
 30
0.0
  0
VERTEX
  8
0
 10
-21.8741158753
 20
-4.0
 30
0.0
  0
VERTEX
  8
0
 10
-21.9241158753
 20
-4.0
 30
0.0
  0
VERTEX
  8
0
 10
-21.9741158753
 20
-4.0
 30
0.0
  0
VERTEX
  8
0
 10
-22.0241158753
 20
-4.0
 30
0.0
  0
VERTEX
  8
0
 10
-22.0741158753
 20
-4.0
 30
0.0
  0
VERTEX
  8
0
 10
-22.1241158753
 20
-4.0
 30
0.0
  0
VERTEX
  8
0
 10
-22.1741158753
 20
-4.0
 30
0.0
  0
VERTEX
  8
0
 10
-22.2241158753
 20
-4.0
 30
0.0
  0
VERTEX
  8
0
 10
-22.2741158753
 20
-4.0
 30
0.0
  0
VERTEX
  8
0
 10
-22.3241158753
 20
-4.0
 30
0.0
  0
VERTEX
  8
0
 10
-22.3741158753
 20
-4.0
 30
0.0
  0
VERTEX
  8
0
 10
-22.4241158753
 20
-4.0
 30
0.0
  0
VERTEX
  8
0
 10
-22.4741158753
 20
-4.0
 30
0.0
  0
VERTEX
  8
0
 10
-22.5241158753
 20
-4.0
 30
0.0
  0
VERTEX
  8
0
 10
-22.5741158753
 20
-4.0
 30
0.0
  0
VERTEX
  8
0
 10
-22.6241158753
 20
-4.0
 30
0.0
  0
VERTEX
  8
0
 10
-22.6741158753
 20
-4.0
 30
0.0
  0
VERTEX
  8
0
 10
-22.7241158753
 20
-4.0
 30
0.0
  0
VERTEX
  8
0
 10
-22.7741158753
 20
-4.0
 30
0.0
  0
VERTEX
  8
0
 10
-22.8241158753
 20
-4.0
 30
0.0
  0
VERTEX
  8
0
 10
-22.8741158753
 20
-4.0
 30
0.0
  0
VERTEX
  8
0
 10
-22.9241158753
 20
-4.0
 30
0.0
  0
VERTEX
  8
0
 10
-22.9741158753
 20
-4.0
 30
0.0
  0
VERTEX
  8
0
 10
-23.0241158753
 20
-4.0
 30
0.0
  0
VERTEX
  8
0
 10
-23.0741158753
 20
-4.0
 30
0.0
  0
VERTEX
  8
0
 10
-23.1241158753
 20
-4.0
 30
0.0
  0
VERTEX
  8
0
 10
-23.1741158753
 20
-4.0
 30
0.0
  0
VERTEX
  8
0
 10
-23.2241158753
 20
-4.0
 30
0.0
  0
VERTEX
  8
0
 10
-23.2741158753
 20
-4.0
 30
0.0
  0
VERTEX
  8
0
 10
-23.3241158753
 20
-4.0
 30
0.0
  0
VERTEX
  8
0
 10
-23.3741158753
 20
-4.0
 30
0.0
  0
VERTEX
  8
0
 10
-23.4241158753
 20
-4.0
 30
0.0
  0
VERTEX
  8
0
 10
-23.4741158753
 20
-4.0
 30
0.0
  0
VERTEX
  8
0
 10
-23.5241158753
 20
-4.0
 30
0.0
  0
VERTEX
  8
0
 10
-23.5741158753
 20
-4.0
 30
0.0
  0
VERTEX
  8
0
 10
-23.6241158753
 20
-4.0
 30
0.0
  0
VERTEX
  8
0
 10
-23.6741158753
 20
-4.0
 30
0.0
  0
VERTEX
  8
0
 10
-23.7241158753
 20
-4.0
 30
0.0
  0
VERTEX
  8
0
 10
-23.7741158753
 20
-4.0
 30
0.0
  0
VERTEX
  8
0
 10
-23.8241158753
 20
-4.0
 30
0.0
  0
VERTEX
  8
0
 10
-23.8741158753
 20
-4.0
 30
0.0
  0
VERTEX
  8
0
 10
-23.9241158753
 20
-4.0
 30
0.0
  0
VERTEX
  8
0
 10
-23.9741158753
 20
-4.0
 30
0.0
  0
VERTEX
  8
0
 10
-24.0241158753
 20
-4.0
 30
0.0
  0
VERTEX
  8
0
 10
-24.0741158753
 20
-4.0
 30
0.0
  0
VERTEX
  8
0
 10
-24.1241158753
 20
-4.0
 30
0.0
  0
VERTEX
  8
0
 10
-24.1741158753
 20
-4.0
 30
0.0
  0
VERTEX
  8
0
 10
-24.2241158753
 20
-4.0
 30
0.0
  0
VERTEX
  8
0
 10
-24.2741158753
 20
-4.0
 30
0.0
  0
VERTEX
  8
0
 10
-24.3241158753
 20
-4.0
 30
0.0
  0
VERTEX
  8
0
 10
-24.3741158753
 20
-4.0
 30
0.0
  0
VERTEX
  8
0
 10
-24.4241158753
 20
-4.0
 30
0.0
  0
VERTEX
  8
0
 10
-24.4741158753
 20
-4.0
 30
0.0
  0
VERTEX
  8
0
 10
-24.5241158753
 20
-4.0
 30
0.0
  0
VERTEX
  8
0
 10
-24.5741158753
 20
-4.0
 30
0.0
  0
VERTEX
  8
0
 10
-24.6241158753
 20
-4.0
 30
0.0
  0
VERTEX
  8
0
 10
-24.6741158753
 20
-4.0
 30
0.0
  0
VERTEX
  8
0
 10
-24.7241158753
 20
-4.0
 30
0.0
  0
VERTEX
  8
0
 10
-24.7741158753
 20
-4.0
 30
0.0
  0
SEQEND
  8
0
  0
POLYLINE
  8
0
 62
0
 70
0
 66
1
 10
0.0
 20
0.0
 30
0.0
  0
VERTEX
  8
0
 10
16.7741158753
 20
-4.0
 30
0.0
  0
VERTEX
  8
0
 10
16.8241158753
 20
-4.0
 30
0.0
  0
VERTEX
  8
0
 10
16.8741158753
 20
-4.0
 30
0.0
  0
VERTEX
  8
0
 10
16.9241158753
 20
-4.0
 30
0.0
  0
VERTEX
  8
0
 10
16.9741158753
 20
-4.0
 30
0.0
  0
VERTEX
  8
0
 10
17.0241158753
 20
-4.0
 30
0.0
  0
VERTEX
  8
0
 10
17.0741158753
 20
-4.0
 30
0.0
  0
VERTEX
  8
0
 10
17.1241158753
 20
-4.0
 30
0.0
  0
VERTEX
  8
0
 10
17.1741158753
 20
-4.0
 30
0.0
  0
VERTEX
  8
0
 10
17.2241158753
 20
-4.0
 30
0.0
  0
VERTEX
  8
0
 10
17.2741158753
 20
-4.0
 30
0.0
  0
VERTEX
  8
0
 10
17.3241158753
 20
-4.0
 30
0.0
  0
VERTEX
  8
0
 10
17.3741158753
 20
-4.0
 30
0.0
  0
VERTEX
  8
0
 10
17.4241158753
 20
-4.0
 30
0.0
  0
VERTEX
  8
0
 10
17.4741158753
 20
-4.0
 30
0.0
  0
VERTEX
  8
0
 10
17.5241158753
 20
-4.0
 30
0.0
  0
VERTEX
  8
0
 10
17.5741158753
 20
-4.0
 30
0.0
  0
VERTEX
  8
0
 10
17.6241158753
 20
-4.0
 30
0.0
  0
VERTEX
  8
0
 10
17.6741158753
 20
-4.0
 30
0.0
  0
VERTEX
  8
0
 10
17.7241158753
 20
-4.0
 30
0.0
  0
VERTEX
  8
0
 10
17.7741158753
 20
-4.0
 30
0.0
  0
VERTEX
  8
0
 10
17.8241158753
 20
-4.0
 30
0.0
  0
VERTEX
  8
0
 10
17.8741158753
 20
-4.0
 30
0.0
  0
VERTEX
  8
0
 10
17.9241158753
 20
-4.0
 30
0.0
  0
VERTEX
  8
0
 10
17.9741158753
 20
-4.0
 30
0.0
  0
VERTEX
  8
0
 10
18.0241158753
 20
-4.0
 30
0.0
  0
VERTEX
  8
0
 10
18.0741158753
 20
-4.0
 30
0.0
  0
VERTEX
  8
0
 10
18.1241158753
 20
-4.0
 30
0.0
  0
VERTEX
  8
0
 10
18.1741158753
 20
-4.0
 30
0.0
  0
VERTEX
  8
0
 10
18.2241158753
 20
-4.0
 30
0.0
  0
VERTEX
  8
0
 10
18.2741158753
 20
-4.0
 30
0.0
  0
VERTEX
  8
0
 10
18.3241158753
 20
-4.0
 30
0.0
  0
VERTEX
  8
0
 10
18.3741158753
 20
-4.0
 30
0.0
  0
VERTEX
  8
0
 10
18.4241158753
 20
-4.0
 30
0.0
  0
VERTEX
  8
0
 10
18.4741158753
 20
-4.0
 30
0.0
  0
VERTEX
  8
0
 10
18.5241158753
 20
-4.0
 30
0.0
  0
VERTEX
  8
0
 10
18.5741158753
 20
-4.0
 30
0.0
  0
VERTEX
  8
0
 10
18.6241158753
 20
-4.0
 30
0.0
  0
VERTEX
  8
0
 10
18.6741158753
 20
-4.0
 30
0.0
  0
VERTEX
  8
0
 10
18.7241158753
 20
-4.0
 30
0.0
  0
VERTEX
  8
0
 10
18.7741158753
 20
-4.0
 30
0.0
  0
VERTEX
  8
0
 10
18.8241158753
 20
-4.0
 30
0.0
  0
VERTEX
  8
0
 10
18.8741158753
 20
-4.0
 30
0.0
  0
VERTEX
  8
0
 10
18.9241158753
 20
-4.0
 30
0.0
  0
VERTEX
  8
0
 10
18.9741158753
 20
-4.0
 30
0.0
  0
VERTEX
  8
0
 10
19.0241158753
 20
-4.0
 30
0.0
  0
VERTEX
  8
0
 10
19.0741158753
 20
-4.0
 30
0.0
  0
VERTEX
  8
0
 10
19.1241158753
 20
-4.0
 30
0.0
  0
VERTEX
  8
0
 10
19.1741158753
 20
-4.0
 30
0.0
  0
VERTEX
  8
0
 10
19.2241158753
 20
-4.0
 30
0.0
  0
VERTEX
  8
0
 10
19.2741158753
 20
-4.0
 30
0.0
  0
VERTEX
  8
0
 10
19.3241158753
 20
-4.0
 30
0.0
  0
VERTEX
  8
0
 10
19.3741158753
 20
-4.0
 30
0.0
  0
VERTEX
  8
0
 10
19.4241158753
 20
-4.0
 30
0.0
  0
VERTEX
  8
0
 10
19.4741158753
 20
-4.0
 30
0.0
  0
VERTEX
  8
0
 10
19.5241158753
 20
-4.0
 30
0.0
  0
VERTEX
  8
0
 10
19.5741158753
 20
-4.0
 30
0.0
  0
VERTEX
  8
0
 10
19.6241158753
 20
-4.0
 30
0.0
  0
VERTEX
  8
0
 10
19.6741158753
 20
-4.0
 30
0.0
  0
VERTEX
  8
0
 10
19.7241158753
 20
-4.0
 30
0.0
  0
VERTEX
  8
0
 10
19.7741158753
 20
-4.0
 30
0.0
  0
VERTEX
  8
0
 10
19.8241158753
 20
-4.0
 30
0.0
  0
VERTEX
  8
0
 10
19.8741158753
 20
-4.0
 30
0.0
  0
VERTEX
  8
0
 10
19.9241158753
 20
-4.0
 30
0.0
  0
VERTEX
  8
0
 10
19.9741158753
 20
-4.0
 30
0.0
  0
VERTEX
  8
0
 10
20.0241158753
 20
-4.0
 30
0.0
  0
VERTEX
  8
0
 10
20.0741158753
 20
-4.0
 30
0.0
  0
VERTEX
  8
0
 10
20.1241158753
 20
-4.0
 30
0.0
  0
VERTEX
  8
0
 10
20.1741158753
 20
-4.0
 30
0.0
  0
VERTEX
  8
0
 10
20.2241158753
 20
-4.0
 30
0.0
  0
VERTEX
  8
0
 10
20.2741158753
 20
-4.0
 30
0.0
  0
VERTEX
  8
0
 10
20.3241158753
 20
-4.0
 30
0.0
  0
VERTEX
  8
0
 10
20.3741158753
 20
-4.0
 30
0.0
  0
VERTEX
  8
0
 10
20.4241158753
 20
-4.0
 30
0.0
  0
VERTEX
  8
0
 10
20.4741158753
 20
-4.0
 30
0.0
  0
VERTEX
  8
0
 10
20.5241158753
 20
-4.0
 30
0.0
  0
VERTEX
  8
0
 10
20.5741158753
 20
-4.0
 30
0.0
  0
VERTEX
  8
0
 10
20.6241158753
 20
-4.0
 30
0.0
  0
VERTEX
  8
0
 10
20.6741158753
 20
-4.0
 30
0.0
  0
VERTEX
  8
0
 10
20.7241158753
 20
-4.0
 30
0.0
  0
VERTEX
  8
0
 10
20.7741158753
 20
-4.0
 30
0.0
  0
VERTEX
  8
0
 10
20.8241158753
 20
-4.0
 30
0.0
  0
VERTEX
  8
0
 10
20.8741158753
 20
-4.0
 30
0.0
  0
VERTEX
  8
0
 10
20.9241158753
 20
-4.0
 30
0.0
  0
VERTEX
  8
0
 10
20.9741158753
 20
-4.0
 30
0.0
  0
VERTEX
  8
0
 10
21.0241158753
 20
-4.0
 30
0.0
  0
VERTEX
  8
0
 10
21.0741158753
 20
-4.0
 30
0.0
  0
VERTEX
  8
0
 10
21.1241158753
 20
-4.0
 30
0.0
  0
VERTEX
  8
0
 10
21.1741158753
 20
-4.0
 30
0.0
  0
VERTEX
  8
0
 10
21.2241158753
 20
-4.0
 30
0.0
  0
VERTEX
  8
0
 10
21.2741158753
 20
-4.0
 30
0.0
  0
VERTEX
  8
0
 10
21.3241158753
 20
-4.0
 30
0.0
  0
VERTEX
  8
0
 10
21.3741158753
 20
-4.0
 30
0.0
  0
VERTEX
  8
0
 10
21.4241158753
 20
-4.0
 30
0.0
  0
VERTEX
  8
0
 10
21.4741158753
 20
-4.0
 30
0.0
  0
VERTEX
  8
0
 10
21.5241158753
 20
-4.0
 30
0.0
  0
VERTEX
  8
0
 10
21.5741158753
 20
-4.0
 30
0.0
  0
VERTEX
  8
0
 10
21.6241158753
 20
-4.0
 30
0.0
  0
VERTEX
  8
0
 10
21.6741158753
 20
-4.0
 30
0.0
  0
VERTEX
  8
0
 10
21.7241158753
 20
-4.0
 30
0.0
  0
VERTEX
  8
0
 10
21.7741158753
 20
-4.0
 30
0.0
  0
VERTEX
  8
0
 10
21.8241158753
 20
-4.0
 30
0.0
  0
VERTEX
  8
0
 10
21.8741158753
 20
-4.0
 30
0.0
  0
VERTEX
  8
0
 10
21.9241158753
 20
-4.0
 30
0.0
  0
VERTEX
  8
0
 10
21.9741158753
 20
-4.0
 30
0.0
  0
VERTEX
  8
0
 10
22.0241158753
 20
-4.0
 30
0.0
  0
VERTEX
  8
0
 10
22.0741158753
 20
-4.0
 30
0.0
  0
VERTEX
  8
0
 10
22.1241158753
 20
-4.0
 30
0.0
  0
VERTEX
  8
0
 10
22.1741158753
 20
-4.0
 30
0.0
  0
VERTEX
  8
0
 10
22.2241158753
 20
-4.0
 30
0.0
  0
VERTEX
  8
0
 10
22.2741158753
 20
-4.0
 30
0.0
  0
VERTEX
  8
0
 10
22.3241158753
 20
-4.0
 30
0.0
  0
VERTEX
  8
0
 10
22.3741158753
 20
-4.0
 30
0.0
  0
VERTEX
  8
0
 10
22.4241158753
 20
-4.0
 30
0.0
  0
VERTEX
  8
0
 10
22.4741158753
 20
-4.0
 30
0.0
  0
VERTEX
  8
0
 10
22.5241158753
 20
-4.0
 30
0.0
  0
VERTEX
  8
0
 10
22.5741158753
 20
-4.0
 30
0.0
  0
VERTEX
  8
0
 10
22.6241158753
 20
-4.0
 30
0.0
  0
VERTEX
  8
0
 10
22.6741158753
 20
-4.0
 30
0.0
  0
VERTEX
  8
0
 10
22.7241158753
 20
-4.0
 30
0.0
  0
VERTEX
  8
0
 10
22.7741158753
 20
-4.0
 30
0.0
  0
VERTEX
  8
0
 10
22.8241158753
 20
-4.0
 30
0.0
  0
VERTEX
  8
0
 10
22.8741158753
 20
-4.0
 30
0.0
  0
VERTEX
  8
0
 10
22.9241158753
 20
-4.0
 30
0.0
  0
VERTEX
  8
0
 10
22.9741158753
 20
-4.0
 30
0.0
  0
VERTEX
  8
0
 10
23.0241158753
 20
-4.0
 30
0.0
  0
VERTEX
  8
0
 10
23.0741158753
 20
-4.0
 30
0.0
  0
VERTEX
  8
0
 10
23.1241158753
 20
-4.0
 30
0.0
  0
VERTEX
  8
0
 10
23.1741158753
 20
-4.0
 30
0.0
  0
VERTEX
  8
0
 10
23.2241158753
 20
-4.0
 30
0.0
  0
VERTEX
  8
0
 10
23.2741158753
 20
-4.0
 30
0.0
  0
VERTEX
  8
0
 10
23.3241158753
 20
-4.0
 30
0.0
  0
VERTEX
  8
0
 10
23.3741158753
 20
-4.0
 30
0.0
  0
VERTEX
  8
0
 10
23.4241158753
 20
-4.0
 30
0.0
  0
VERTEX
  8
0
 10
23.4741158753
 20
-4.0
 30
0.0
  0
VERTEX
  8
0
 10
23.5241158753
 20
-4.0
 30
0.0
  0
VERTEX
  8
0
 10
23.5741158753
 20
-4.0
 30
0.0
  0
VERTEX
  8
0
 10
23.6241158753
 20
-4.0
 30
0.0
  0
VERTEX
  8
0
 10
23.6741158753
 20
-4.0
 30
0.0
  0
VERTEX
  8
0
 10
23.7241158753
 20
-4.0
 30
0.0
  0
VERTEX
  8
0
 10
23.7741158753
 20
-4.0
 30
0.0
  0
VERTEX
  8
0
 10
23.8241158753
 20
-4.0
 30
0.0
  0
VERTEX
  8
0
 10
23.8741158753
 20
-4.0
 30
0.0
  0
VERTEX
  8
0
 10
23.9241158753
 20
-4.0
 30
0.0
  0
VERTEX
  8
0
 10
23.9741158753
 20
-4.0
 30
0.0
  0
VERTEX
  8
0
 10
24.0241158753
 20
-4.0
 30
0.0
  0
VERTEX
  8
0
 10
24.0741158753
 20
-4.0
 30
0.0
  0
VERTEX
  8
0
 10
24.1241158753
 20
-4.0
 30
0.0
  0
VERTEX
  8
0
 10
24.1741158753
 20
-4.0
 30
0.0
  0
VERTEX
  8
0
 10
24.2241158753
 20
-4.0
 30
0.0
  0
VERTEX
  8
0
 10
24.2741158753
 20
-4.0
 30
0.0
  0
VERTEX
  8
0
 10
24.3241158753
 20
-4.0
 30
0.0
  0
VERTEX
  8
0
 10
24.3741158753
 20
-4.0
 30
0.0
  0
VERTEX
  8
0
 10
24.4241158753
 20
-4.0
 30
0.0
  0
VERTEX
  8
0
 10
24.4741158753
 20
-4.0
 30
0.0
  0
VERTEX
  8
0
 10
24.5241158753
 20
-4.0
 30
0.0
  0
VERTEX
  8
0
 10
24.5741158753
 20
-4.0
 30
0.0
  0
VERTEX
  8
0
 10
24.6241158753
 20
-4.0
 30
0.0
  0
VERTEX
  8
0
 10
24.6741158753
 20
-4.0
 30
0.0
  0
VERTEX
  8
0
 10
24.7241158753
 20
-4.0
 30
0.0
  0
VERTEX
  8
0
 10
24.7741158753
 20
-4.0
 30
0.0
  0
SEQEND
  8
0
  0
POLYLINE
  8
0
 62
0
 70
0
 66
1
 10
0.0
 20
0.0
 30
0.0
  0
VERTEX
  8
0
 10
16.7741158753
 20
-4.0
 30
0.0
  0
VERTEX
  8
0
 10
16.7241158753
 20
-4.0
 30
0.0
  0
VERTEX
  8
0
 10
16.6741158753
 20
-4.0
 30
0.0
  0
VERTEX
  8
0
 10
16.6241158753
 20
-4.0
 30
0.0
  0
VERTEX
  8
0
 10
16.5741158753
 20
-4.0
 30
0.0
  0
VERTEX
  8
0
 10
16.5241158753
 20
-4.0
 30
0.0
  0
VERTEX
  8
0
 10
16.4741158753
 20
-4.0
 30
0.0
  0
VERTEX
  8
0
 10
16.4241158753
 20
-4.0
 30
0.0
  0
VERTEX
  8
0
 10
16.3741158753
 20
-4.0
 30
0.0
  0
VERTEX
  8
0
 10
16.3241158753
 20
-4.0
 30
0.0
  0
VERTEX
  8
0
 10
16.2741158753
 20
-4.0
 30
0.0
  0
VERTEX
  8
0
 10
16.2241158753
 20
-4.0
 30
0.0
  0
VERTEX
  8
0
 10
16.1741158753
 20
-4.0
 30
0.0
  0
VERTEX
  8
0
 10
16.1241158753
 20
-4.0
 30
0.0
  0
VERTEX
  8
0
 10
16.0741158753
 20
-4.0
 30
0.0
  0
VERTEX
  8
0
 10
16.0241158753
 20
-4.0
 30
0.0
  0
VERTEX
  8
0
 10
15.9741158753
 20
-4.0
 30
0.0
  0
VERTEX
  8
0
 10
15.9241158753
 20
-4.0
 30
0.0
  0
VERTEX
  8
0
 10
15.8741158753
 20
-4.0
 30
0.0
  0
VERTEX
  8
0
 10
15.8241158753
 20
-4.0
 30
0.0
  0
VERTEX
  8
0
 10
15.7741158753
 20
-4.0
 30
0.0
  0
VERTEX
  8
0
 10
15.7241158753
 20
-4.0
 30
0.0
  0
VERTEX
  8
0
 10
15.6741158753
 20
-4.0
 30
0.0
  0
VERTEX
  8
0
 10
15.6241158753
 20
-4.0
 30
0.0
  0
VERTEX
  8
0
 10
15.5741158753
 20
-4.0
 30
0.0
  0
VERTEX
  8
0
 10
15.5241158753
 20
-4.0
 30
0.0
  0
VERTEX
  8
0
 10
15.4741158753
 20
-4.0
 30
0.0
  0
VERTEX
  8
0
 10
15.4241158753
 20
-4.0
 30
0.0
  0
VERTEX
  8
0
 10
15.3741158753
 20
-4.0
 30
0.0
  0
VERTEX
  8
0
 10
15.3241158753
 20
-4.0
 30
0.0
  0
VERTEX
  8
0
 10
15.2741158753
 20
-4.0
 30
0.0
  0
VERTEX
  8
0
 10
15.2241158753
 20
-4.0
 30
0.0
  0
VERTEX
  8
0
 10
15.1741158753
 20
-4.0
 30
0.0
  0
VERTEX
  8
0
 10
15.1241158753
 20
-4.0
 30
0.0
  0
VERTEX
  8
0
 10
15.0741158753
 20
-4.0
 30
0.0
  0
VERTEX
  8
0
 10
15.0241158753
 20
-4.0
 30
0.0
  0
VERTEX
  8
0
 10
14.9741158753
 20
-4.0
 30
0.0
  0
VERTEX
  8
0
 10
14.9241158753
 20
-4.0
 30
0.0
  0
VERTEX
  8
0
 10
14.8741158753
 20
-4.0
 30
0.0
  0
VERTEX
  8
0
 10
14.8241158753
 20
-4.0
 30
0.0
  0
VERTEX
  8
0
 10
14.7741158753
 20
-4.0
 30
0.0
  0
VERTEX
  8
0
 10
14.7241158753
 20
-4.0
 30
0.0
  0
VERTEX
  8
0
 10
14.6741158753
 20
-4.0
 30
0.0
  0
VERTEX
  8
0
 10
14.6241158753
 20
-4.0
 30
0.0
  0
VERTEX
  8
0
 10
14.5741158753
 20
-4.0
 30
0.0
  0
VERTEX
  8
0
 10
14.5241158753
 20
-4.0
 30
0.0
  0
VERTEX
  8
0
 10
14.4741158753
 20
-4.0
 30
0.0
  0
VERTEX
  8
0
 10
14.4241158753
 20
-4.0
 30
0.0
  0
VERTEX
  8
0
 10
14.3741158753
 20
-4.0
 30
0.0
  0
VERTEX
  8
0
 10
14.3241158753
 20
-4.0
 30
0.0
  0
VERTEX
  8
0
 10
14.2741158753
 20
-4.0
 30
0.0
  0
VERTEX
  8
0
 10
14.2241158753
 20
-4.0
 30
0.0
  0
VERTEX
  8
0
 10
14.1741158753
 20
-4.0
 30
0.0
  0
VERTEX
  8
0
 10
14.1241158753
 20
-4.0
 30
0.0
  0
VERTEX
  8
0
 10
14.0741158753
 20
-4.0
 30
0.0
  0
VERTEX
  8
0
 10
14.0241158753
 20
-4.0
 30
0.0
  0
VERTEX
  8
0
 10
14.0
 20
-4.0
 30
0.0
  0
SEQEND
  8
0
  0
POLYLINE
  8
0
 62
0
 70
0
 66
1
 10
0.0
 20
0.0
 30
0.0
  0
VERTEX
  8
0
 10
-14.0
 20
-4.0
 30
0.0
  0
VERTEX
  8
0
 10
-14.05
 20
-4.0
 30
0.0
  0
VERTEX
  8
0
 10
-14.1
 20
-4.0
 30
0.0
  0
VERTEX
  8
0
 10
-14.15
 20
-4.0
 30
0.0
  0
VERTEX
  8
0
 10
-14.2
 20
-4.0
 30
0.0
  0
VERTEX
  8
0
 10
-14.25
 20
-4.0
 30
0.0
  0
VERTEX
  8
0
 10
-14.3
 20
-4.0
 30
0.0
  0
VERTEX
  8
0
 10
-14.35
 20
-4.0
 30
0.0
  0
VERTEX
  8
0
 10
-14.4
 20
-4.0
 30
0.0
  0
VERTEX
  8
0
 10
-14.45
 20
-4.0
 30
0.0
  0
VERTEX
  8
0
 10
-14.5
 20
-4.0
 30
0.0
  0
VERTEX
  8
0
 10
-14.55
 20
-4.0
 30
0.0
  0
VERTEX
  8
0
 10
-14.6
 20
-4.0
 30
0.0
  0
VERTEX
  8
0
 10
-14.65
 20
-4.0
 30
0.0
  0
VERTEX
  8
0
 10
-14.7
 20
-4.0
 30
0.0
  0
VERTEX
  8
0
 10
-14.75
 20
-4.0
 30
0.0
  0
VERTEX
  8
0
 10
-14.8
 20
-4.0
 30
0.0
  0
VERTEX
  8
0
 10
-14.85
 20
-4.0
 30
0.0
  0
VERTEX
  8
0
 10
-14.9
 20
-4.0
 30
0.0
  0
VERTEX
  8
0
 10
-14.95
 20
-4.0
 30
0.0
  0
VERTEX
  8
0
 10
-15.0
 20
-4.0
 30
0.0
  0
VERTEX
  8
0
 10
-15.05
 20
-4.0
 30
0.0
  0
VERTEX
  8
0
 10
-15.1
 20
-4.0
 30
0.0
  0
VERTEX
  8
0
 10
-15.15
 20
-4.0
 30
0.0
  0
VERTEX
  8
0
 10
-15.2
 20
-4.0
 30
0.0
  0
VERTEX
  8
0
 10
-15.25
 20
-4.0
 30
0.0
  0
VERTEX
  8
0
 10
-15.3
 20
-4.0
 30
0.0
  0
VERTEX
  8
0
 10
-15.35
 20
-4.0
 30
0.0
  0
VERTEX
  8
0
 10
-15.4
 20
-4.0
 30
0.0
  0
VERTEX
  8
0
 10
-15.45
 20
-4.0
 30
0.0
  0
VERTEX
  8
0
 10
-15.5
 20
-4.0
 30
0.0
  0
VERTEX
  8
0
 10
-15.55
 20
-4.0
 30
0.0
  0
VERTEX
  8
0
 10
-15.6
 20
-4.0
 30
0.0
  0
VERTEX
  8
0
 10
-15.65
 20
-4.0
 30
0.0
  0
VERTEX
  8
0
 10
-15.7
 20
-4.0
 30
0.0
  0
VERTEX
  8
0
 10
-15.75
 20
-4.0
 30
0.0
  0
VERTEX
  8
0
 10
-15.8
 20
-4.0
 30
0.0
  0
VERTEX
  8
0
 10
-15.85
 20
-4.0
 30
0.0
  0
VERTEX
  8
0
 10
-15.9
 20
-4.0
 30
0.0
  0
VERTEX
  8
0
 10
-15.95
 20
-4.0
 30
0.0
  0
VERTEX
  8
0
 10
-16.0
 20
-4.0
 30
0.0
  0
VERTEX
  8
0
 10
-16.05
 20
-4.0
 30
0.0
  0
VERTEX
  8
0
 10
-16.1
 20
-4.0
 30
0.0
  0
VERTEX
  8
0
 10
-16.15
 20
-4.0
 30
0.0
  0
VERTEX
  8
0
 10
-16.2
 20
-4.0
 30
0.0
  0
VERTEX
  8
0
 10
-16.25
 20
-4.0
 30
0.0
  0
VERTEX
  8
0
 10
-16.3
 20
-4.0
 30
0.0
  0
VERTEX
  8
0
 10
-16.35
 20
-4.0
 30
0.0
  0
VERTEX
  8
0
 10
-16.4
 20
-4.0
 30
0.0
  0
VERTEX
  8
0
 10
-16.45
 20
-4.0
 30
0.0
  0
VERTEX
  8
0
 10
-16.5
 20
-4.0
 30
0.0
  0
VERTEX
  8
0
 10
-16.55
 20
-4.0
 30
0.0
  0
VERTEX
  8
0
 10
-16.6
 20
-4.0
 30
0.0
  0
VERTEX
  8
0
 10
-16.65
 20
-4.0
 30
0.0
  0
VERTEX
  8
0
 10
-16.7
 20
-4.0
 30
0.0
  0
VERTEX
  8
0
 10
-16.75
 20
-4.0
 30
0.0
  0
VERTEX
  8
0
 10
-16.7741158753
 20
-4.0
 30
0.0
  0
SEQEND
  8
0
  0
POLYLINE
  8
0
 62
0
 70
0
 66
1
 10
0.0
 20
0.0
 30
0.0
  0
VERTEX
  8
0
 10
10.0
 20
-4.0
 30
0.0
  0
VERTEX
  8
0
 10
9.95
 20
-4.0
 30
0.0
  0
VERTEX
  8
0
 10
9.9
 20
-4.0
 30
0.0
  0
VERTEX
  8
0
 10
9.85
 20
-4.0
 30
0.0
  0
VERTEX
  8
0
 10
9.8
 20
-4.0
 30
0.0
  0
VERTEX
  8
0
 10
9.75
 20
-4.0
 30
0.0
  0
VERTEX
  8
0
 10
9.7
 20
-4.0
 30
0.0
  0
VERTEX
  8
0
 10
9.65
 20
-4.0
 30
0.0
  0
VERTEX
  8
0
 10
9.6
 20
-4.0
 30
0.0
  0
VERTEX
  8
0
 10
9.55
 20
-4.0
 30
0.0
  0
VERTEX
  8
0
 10
9.5
 20
-4.0
 30
0.0
  0
VERTEX
  8
0
 10
9.45
 20
-4.0
 30
0.0
  0
VERTEX
  8
0
 10
9.4
 20
-4.0
 30
0.0
  0
VERTEX
  8
0
 10
9.35
 20
-4.0
 30
0.0
  0
VERTEX
  8
0
 10
9.3
 20
-4.0
 30
0.0
  0
VERTEX
  8
0
 10
9.25
 20
-4.0
 30
0.0
  0
VERTEX
  8
0
 10
9.2
 20
-4.0
 30
0.0
  0
VERTEX
  8
0
 10
9.15
 20
-4.0
 30
0.0
  0
VERTEX
  8
0
 10
9.1
 20
-4.0
 30
0.0
  0
VERTEX
  8
0
 10
9.05
 20
-4.0
 30
0.0
  0
VERTEX
  8
0
 10
9.0
 20
-4.0
 30
0.0
  0
VERTEX
  8
0
 10
8.95
 20
-4.0
 30
0.0
  0
VERTEX
  8
0
 10
8.9
 20
-4.0
 30
0.0
  0
VERTEX
  8
0
 10
8.85
 20
-4.0
 30
0.0
  0
VERTEX
  8
0
 10
8.8
 20
-4.0
 30
0.0
  0
VERTEX
  8
0
 10
8.75
 20
-4.0
 30
0.0
  0
VERTEX
  8
0
 10
8.7
 20
-4.0
 30
0.0
  0
VERTEX
  8
0
 10
8.65
 20
-4.0
 30
0.0
  0
VERTEX
  8
0
 10
8.6
 20
-4.0
 30
0.0
  0
VERTEX
  8
0
 10
8.55
 20
-4.0
 30
0.0
  0
VERTEX
  8
0
 10
8.5
 20
-4.0
 30
0.0
  0
VERTEX
  8
0
 10
8.45
 20
-4.0
 30
0.0
  0
VERTEX
  8
0
 10
8.4
 20
-4.0
 30
0.0
  0
VERTEX
  8
0
 10
8.35
 20
-4.0
 30
0.0
  0
VERTEX
  8
0
 10
8.3
 20
-4.0
 30
0.0
  0
VERTEX
  8
0
 10
8.25
 20
-4.0
 30
0.0
  0
VERTEX
  8
0
 10
8.2
 20
-4.0
 30
0.0
  0
VERTEX
  8
0
 10
8.15
 20
-4.0
 30
0.0
  0
VERTEX
  8
0
 10
8.1
 20
-4.0
 30
0.0
  0
VERTEX
  8
0
 10
8.05
 20
-4.0
 30
0.0
  0
VERTEX
  8
0
 10
8.0
 20
-4.0
 30
0.0
  0
VERTEX
  8
0
 10
7.95
 20
-4.0
 30
0.0
  0
VERTEX
  8
0
 10
7.9
 20
-4.0
 30
0.0
  0
VERTEX
  8
0
 10
7.85
 20
-4.0
 30
0.0
  0
VERTEX
  8
0
 10
7.8
 20
-4.0
 30
0.0
  0
VERTEX
  8
0
 10
7.75
 20
-4.0
 30
0.0
  0
VERTEX
  8
0
 10
7.7
 20
-4.0
 30
0.0
  0
VERTEX
  8
0
 10
7.65
 20
-4.0
 30
0.0
  0
VERTEX
  8
0
 10
7.6
 20
-4.0
 30
0.0
  0
VERTEX
  8
0
 10
7.55
 20
-4.0
 30
0.0
  0
VERTEX
  8
0
 10
7.5
 20
-4.0
 30
0.0
  0
VERTEX
  8
0
 10
7.45
 20
-4.0
 30
0.0
  0
VERTEX
  8
0
 10
7.4
 20
-4.0
 30
0.0
  0
VERTEX
  8
0
 10
7.35
 20
-4.0
 30
0.0
  0
VERTEX
  8
0
 10
7.3
 20
-4.0
 30
0.0
  0
VERTEX
  8
0
 10
7.25
 20
-4.0
 30
0.0
  0
VERTEX
  8
0
 10
7.2
 20
-4.0
 30
0.0
  0
VERTEX
  8
0
 10
7.15
 20
-4.0
 30
0.0
  0
VERTEX
  8
0
 10
7.1
 20
-4.0
 30
0.0
  0
VERTEX
  8
0
 10
7.05
 20
-4.0
 30
0.0
  0
VERTEX
  8
0
 10
7.0
 20
-4.0
 30
0.0
  0
VERTEX
  8
0
 10
6.95
 20
-4.0
 30
0.0
  0
VERTEX
  8
0
 10
6.9
 20
-4.0
 30
0.0
  0
VERTEX
  8
0
 10
6.85
 20
-4.0
 30
0.0
  0
VERTEX
  8
0
 10
6.8
 20
-4.0
 30
0.0
  0
VERTEX
  8
0
 10
6.75
 20
-4.0
 30
0.0
  0
VERTEX
  8
0
 10
6.7
 20
-4.0
 30
0.0
  0
VERTEX
  8
0
 10
6.65
 20
-4.0
 30
0.0
  0
VERTEX
  8
0
 10
6.6
 20
-4.0
 30
0.0
  0
VERTEX
  8
0
 10
6.55
 20
-4.0
 30
0.0
  0
VERTEX
  8
0
 10
6.5
 20
-4.0
 30
0.0
  0
VERTEX
  8
0
 10
6.45
 20
-4.0
 30
0.0
  0
VERTEX
  8
0
 10
6.4
 20
-4.0
 30
0.0
  0
VERTEX
  8
0
 10
6.35
 20
-4.0
 30
0.0
  0
VERTEX
  8
0
 10
6.3
 20
-4.0
 30
0.0
  0
VERTEX
  8
0
 10
6.25
 20
-4.0
 30
0.0
  0
VERTEX
  8
0
 10
6.2
 20
-4.0
 30
0.0
  0
VERTEX
  8
0
 10
6.15
 20
-4.0
 30
0.0
  0
VERTEX
  8
0
 10
6.1
 20
-4.0
 30
0.0
  0
VERTEX
  8
0
 10
6.05
 20
-4.0
 30
0.0
  0
VERTEX
  8
0
 10
6.0
 20
-4.0
 30
0.0
  0
VERTEX
  8
0
 10
5.95
 20
-4.0
 30
0.0
  0
VERTEX
  8
0
 10
5.9
 20
-4.0
 30
0.0
  0
VERTEX
  8
0
 10
5.85
 20
-4.0
 30
0.0
  0
VERTEX
  8
0
 10
5.8
 20
-4.0
 30
0.0
  0
VERTEX
  8
0
 10
5.75
 20
-4.0
 30
0.0
  0
VERTEX
  8
0
 10
5.7
 20
-4.0
 30
0.0
  0
VERTEX
  8
0
 10
5.65
 20
-4.0
 30
0.0
  0
VERTEX
  8
0
 10
5.6
 20
-4.0
 30
0.0
  0
VERTEX
  8
0
 10
5.55
 20
-4.0
 30
0.0
  0
VERTEX
  8
0
 10
5.5
 20
-4.0
 30
0.0
  0
VERTEX
  8
0
 10
5.45
 20
-4.0
 30
0.0
  0
VERTEX
  8
0
 10
5.4
 20
-4.0
 30
0.0
  0
VERTEX
  8
0
 10
5.35
 20
-4.0
 30
0.0
  0
VERTEX
  8
0
 10
5.3
 20
-4.0
 30
0.0
  0
VERTEX
  8
0
 10
5.25
 20
-4.0
 30
0.0
  0
VERTEX
  8
0
 10
5.2
 20
-4.0
 30
0.0
  0
VERTEX
  8
0
 10
5.15
 20
-4.0
 30
0.0
  0
VERTEX
  8
0
 10
5.1
 20
-4.0
 30
0.0
  0
VERTEX
  8
0
 10
5.05
 20
-4.0
 30
0.0
  0
VERTEX
  8
0
 10
5.0
 20
-4.0
 30
0.0
  0
VERTEX
  8
0
 10
4.95
 20
-4.0
 30
0.0
  0
VERTEX
  8
0
 10
4.9
 20
-4.0
 30
0.0
  0
VERTEX
  8
0
 10
4.85
 20
-4.0
 30
0.0
  0
VERTEX
  8
0
 10
4.8
 20
-4.0
 30
0.0
  0
VERTEX
  8
0
 10
4.75
 20
-4.0
 30
0.0
  0
VERTEX
  8
0
 10
4.7
 20
-4.0
 30
0.0
  0
VERTEX
  8
0
 10
4.65
 20
-4.0
 30
0.0
  0
VERTEX
  8
0
 10
4.6
 20
-4.0
 30
0.0
  0
VERTEX
  8
0
 10
4.55
 20
-4.0
 30
0.0
  0
VERTEX
  8
0
 10
4.5
 20
-4.0
 30
0.0
  0
VERTEX
  8
0
 10
4.45
 20
-4.0
 30
0.0
  0
VERTEX
  8
0
 10
4.4
 20
-4.0
 30
0.0
  0
VERTEX
  8
0
 10
4.35
 20
-4.0
 30
0.0
  0
VERTEX
  8
0
 10
4.3
 20
-4.0
 30
0.0
  0
VERTEX
  8
0
 10
4.25
 20
-4.0
 30
0.0
  0
VERTEX
  8
0
 10
4.2
 20
-4.0
 30
0.0
  0
VERTEX
  8
0
 10
4.15
 20
-4.0
 30
0.0
  0
VERTEX
  8
0
 10
4.1
 20
-4.0
 30
0.0
  0
VERTEX
  8
0
 10
4.05
 20
-4.0
 30
0.0
  0
VERTEX
  8
0
 10
4.0
 20
-4.0
 30
0.0
  0
VERTEX
  8
0
 10
3.95
 20
-4.0
 30
0.0
  0
VERTEX
  8
0
 10
3.9
 20
-4.0
 30
0.0
  0
VERTEX
  8
0
 10
3.85
 20
-4.0
 30
0.0
  0
VERTEX
  8
0
 10
3.8
 20
-4.0
 30
0.0
  0
VERTEX
  8
0
 10
3.75
 20
-4.0
 30
0.0
  0
VERTEX
  8
0
 10
3.7
 20
-4.0
 30
0.0
  0
VERTEX
  8
0
 10
3.65
 20
-4.0
 30
0.0
  0
VERTEX
  8
0
 10
3.6
 20
-4.0
 30
0.0
  0
VERTEX
  8
0
 10
3.55
 20
-4.0
 30
0.0
  0
VERTEX
  8
0
 10
3.5
 20
-4.0
 30
0.0
  0
VERTEX
  8
0
 10
3.45
 20
-4.0
 30
0.0
  0
VERTEX
  8
0
 10
3.4
 20
-4.0
 30
0.0
  0
VERTEX
  8
0
 10
3.35
 20
-4.0
 30
0.0
  0
VERTEX
  8
0
 10
3.3
 20
-4.0
 30
0.0
  0
VERTEX
  8
0
 10
3.25
 20
-4.0
 30
0.0
  0
VERTEX
  8
0
 10
3.2
 20
-4.0
 30
0.0
  0
VERTEX
  8
0
 10
3.15
 20
-4.0
 30
0.0
  0
VERTEX
  8
0
 10
3.1
 20
-4.0
 30
0.0
  0
VERTEX
  8
0
 10
3.05
 20
-4.0
 30
0.0
  0
VERTEX
  8
0
 10
3.0
 20
-4.0
 30
0.0
  0
VERTEX
  8
0
 10
2.95
 20
-4.0
 30
0.0
  0
VERTEX
  8
0
 10
2.9
 20
-4.0
 30
0.0
  0
VERTEX
  8
0
 10
2.85
 20
-4.0
 30
0.0
  0
VERTEX
  8
0
 10
2.8
 20
-4.0
 30
0.0
  0
VERTEX
  8
0
 10
2.75
 20
-4.0
 30
0.0
  0
VERTEX
  8
0
 10
2.7
 20
-4.0
 30
0.0
  0
VERTEX
  8
0
 10
2.65
 20
-4.0
 30
0.0
  0
VERTEX
  8
0
 10
2.6
 20
-4.0
 30
0.0
  0
VERTEX
  8
0
 10
2.55
 20
-4.0
 30
0.0
  0
VERTEX
  8
0
 10
2.5
 20
-4.0
 30
0.0
  0
VERTEX
  8
0
 10
2.45
 20
-4.0
 30
0.0
  0
VERTEX
  8
0
 10
2.4
 20
-4.0
 30
0.0
  0
VERTEX
  8
0
 10
2.35
 20
-4.0
 30
0.0
  0
VERTEX
  8
0
 10
2.3
 20
-4.0
 30
0.0
  0
VERTEX
  8
0
 10
2.25
 20
-4.0
 30
0.0
  0
VERTEX
  8
0
 10
2.2
 20
-4.0
 30
0.0
  0
VERTEX
  8
0
 10
2.15
 20
-4.0
 30
0.0
  0
VERTEX
  8
0
 10
2.1
 20
-4.0
 30
0.0
  0
VERTEX
  8
0
 10
2.05
 20
-4.0
 30
0.0
  0
VERTEX
  8
0
 10
2.0
 20
-4.0
 30
0.0
  0
VERTEX
  8
0
 10
1.95
 20
-4.0
 30
0.0
  0
VERTEX
  8
0
 10
1.9
 20
-4.0
 30
0.0
  0
VERTEX
  8
0
 10
1.85
 20
-4.0
 30
0.0
  0
VERTEX
  8
0
 10
1.8
 20
-4.0
 30
0.0
  0
VERTEX
  8
0
 10
1.75
 20
-4.0
 30
0.0
  0
VERTEX
  8
0
 10
1.7
 20
-4.0
 30
0.0
  0
VERTEX
  8
0
 10
1.65
 20
-4.0
 30
0.0
  0
VERTEX
  8
0
 10
1.6
 20
-4.0
 30
0.0
  0
VERTEX
  8
0
 10
1.55
 20
-4.0
 30
0.0
  0
VERTEX
  8
0
 10
1.5
 20
-4.0
 30
0.0
  0
VERTEX
  8
0
 10
1.45
 20
-4.0
 30
0.0
  0
VERTEX
  8
0
 10
1.4
 20
-4.0
 30
0.0
  0
VERTEX
  8
0
 10
1.35
 20
-4.0
 30
0.0
  0
VERTEX
  8
0
 10
1.3
 20
-4.0
 30
0.0
  0
VERTEX
  8
0
 10
1.25
 20
-4.0
 30
0.0
  0
VERTEX
  8
0
 10
1.2
 20
-4.0
 30
0.0
  0
VERTEX
  8
0
 10
1.15
 20
-4.0
 30
0.0
  0
VERTEX
  8
0
 10
1.1
 20
-4.0
 30
0.0
  0
VERTEX
  8
0
 10
1.05
 20
-4.0
 30
0.0
  0
VERTEX
  8
0
 10
1.0
 20
-4.0
 30
0.0
  0
VERTEX
  8
0
 10
0.95
 20
-4.0
 30
0.0
  0
VERTEX
  8
0
 10
0.9
 20
-4.0
 30
0.0
  0
VERTEX
  8
0
 10
0.85
 20
-4.0
 30
0.0
  0
VERTEX
  8
0
 10
0.8
 20
-4.0
 30
0.0
  0
VERTEX
  8
0
 10
0.75
 20
-4.0
 30
0.0
  0
VERTEX
  8
0
 10
0.7
 20
-4.0
 30
0.0
  0
VERTEX
  8
0
 10
0.65
 20
-4.0
 30
0.0
  0
VERTEX
  8
0
 10
0.6
 20
-4.0
 30
0.0
  0
VERTEX
  8
0
 10
0.55
 20
-4.0
 30
0.0
  0
VERTEX
  8
0
 10
0.5
 20
-4.0
 30
0.0
  0
VERTEX
  8
0
 10
0.45
 20
-4.0
 30
0.0
  0
VERTEX
  8
0
 10
0.4
 20
-4.0
 30
0.0
  0
VERTEX
  8
0
 10
0.35
 20
-4.0
 30
0.0
  0
VERTEX
  8
0
 10
0.3
 20
-4.0
 30
0.0
  0
VERTEX
  8
0
 10
0.25
 20
-4.0
 30
0.0
  0
VERTEX
  8
0
 10
0.2
 20
-4.0
 30
0.0
  0
VERTEX
  8
0
 10
0.15
 20
-4.0
 30
0.0
  0
VERTEX
  8
0
 10
0.1
 20
-4.0
 30
0.0
  0
VERTEX
  8
0
 10
0.05
 20
-4.0
 30
0.0
  0
VERTEX
  8
0
 10
6.12323399574e-16
 20
-4.0
 30
0.0
  0
VERTEX
  8
0
 10
-0.05
 20
-4.0
 30
0.0
  0
VERTEX
  8
0
 10
-0.1
 20
-4.0
 30
0.0
  0
VERTEX
  8
0
 10
-0.15
 20
-4.0
 30
0.0
  0
VERTEX
  8
0
 10
-0.2
 20
-4.0
 30
0.0
  0
VERTEX
  8
0
 10
-0.25
 20
-4.0
 30
0.0
  0
VERTEX
  8
0
 10
-0.3
 20
-4.0
 30
0.0
  0
VERTEX
  8
0
 10
-0.35
 20
-4.0
 30
0.0
  0
VERTEX
  8
0
 10
-0.4
 20
-4.0
 30
0.0
  0
VERTEX
  8
0
 10
-0.45
 20
-4.0
 30
0.0
  0
VERTEX
  8
0
 10
-0.5
 20
-4.0
 30
0.0
  0
VERTEX
  8
0
 10
-0.55
 20
-4.0
 30
0.0
  0
VERTEX
  8
0
 10
-0.6
 20
-4.0
 30
0.0
  0
VERTEX
  8
0
 10
-0.65
 20
-4.0
 30
0.0
  0
VERTEX
  8
0
 10
-0.7
 20
-4.0
 30
0.0
  0
VERTEX
  8
0
 10
-0.75
 20
-4.0
 30
0.0
  0
VERTEX
  8
0
 10
-0.8
 20
-4.0
 30
0.0
  0
VERTEX
  8
0
 10
-0.85
 20
-4.0
 30
0.0
  0
VERTEX
  8
0
 10
-0.9
 20
-4.0
 30
0.0
  0
VERTEX
  8
0
 10
-0.95
 20
-4.0
 30
0.0
  0
VERTEX
  8
0
 10
-1.0
 20
-4.0
 30
0.0
  0
VERTEX
  8
0
 10
-1.05
 20
-4.0
 30
0.0
  0
VERTEX
  8
0
 10
-1.1
 20
-4.0
 30
0.0
  0
VERTEX
  8
0
 10
-1.15
 20
-4.0
 30
0.0
  0
VERTEX
  8
0
 10
-1.2
 20
-4.0
 30
0.0
  0
VERTEX
  8
0
 10
-1.25
 20
-4.0
 30
0.0
  0
VERTEX
  8
0
 10
-1.3
 20
-4.0
 30
0.0
  0
VERTEX
  8
0
 10
-1.35
 20
-4.0
 30
0.0
  0
VERTEX
  8
0
 10
-1.4
 20
-4.0
 30
0.0
  0
VERTEX
  8
0
 10
-1.45
 20
-4.0
 30
0.0
  0
VERTEX
  8
0
 10
-1.5
 20
-4.0
 30
0.0
  0
VERTEX
  8
0
 10
-1.55
 20
-4.0
 30
0.0
  0
VERTEX
  8
0
 10
-1.6
 20
-4.0
 30
0.0
  0
VERTEX
  8
0
 10
-1.65
 20
-4.0
 30
0.0
  0
VERTEX
  8
0
 10
-1.7
 20
-4.0
 30
0.0
  0
VERTEX
  8
0
 10
-1.75
 20
-4.0
 30
0.0
  0
VERTEX
  8
0
 10
-1.8
 20
-4.0
 30
0.0
  0
VERTEX
  8
0
 10
-1.85
 20
-4.0
 30
0.0
  0
VERTEX
  8
0
 10
-1.9
 20
-4.0
 30
0.0
  0
VERTEX
  8
0
 10
-1.95
 20
-4.0
 30
0.0
  0
VERTEX
  8
0
 10
-2.0
 20
-4.0
 30
0.0
  0
VERTEX
  8
0
 10
-2.05
 20
-4.0
 30
0.0
  0
VERTEX
  8
0
 10
-2.1
 20
-4.0
 30
0.0
  0
VERTEX
  8
0
 10
-2.15
 20
-4.0
 30
0.0
  0
VERTEX
  8
0
 10
-2.2
 20
-4.0
 30
0.0
  0
VERTEX
  8
0
 10
-2.25
 20
-4.0
 30
0.0
  0
VERTEX
  8
0
 10
-2.3
 20
-4.0
 30
0.0
  0
VERTEX
  8
0
 10
-2.35
 20
-4.0
 30
0.0
  0
VERTEX
  8
0
 10
-2.4
 20
-4.0
 30
0.0
  0
VERTEX
  8
0
 10
-2.45
 20
-4.0
 30
0.0
  0
VERTEX
  8
0
 10
-2.5
 20
-4.0
 30
0.0
  0
VERTEX
  8
0
 10
-2.55
 20
-4.0
 30
0.0
  0
VERTEX
  8
0
 10
-2.6
 20
-4.0
 30
0.0
  0
VERTEX
  8
0
 10
-2.65
 20
-4.0
 30
0.0
  0
VERTEX
  8
0
 10
-2.7
 20
-4.0
 30
0.0
  0
VERTEX
  8
0
 10
-2.75
 20
-4.0
 30
0.0
  0
VERTEX
  8
0
 10
-2.8
 20
-4.0
 30
0.0
  0
VERTEX
  8
0
 10
-2.85
 20
-4.0
 30
0.0
  0
VERTEX
  8
0
 10
-2.9
 20
-4.0
 30
0.0
  0
VERTEX
  8
0
 10
-2.95
 20
-4.0
 30
0.0
  0
VERTEX
  8
0
 10
-3.0
 20
-4.0
 30
0.0
  0
VERTEX
  8
0
 10
-3.05
 20
-4.0
 30
0.0
  0
VERTEX
  8
0
 10
-3.1
 20
-4.0
 30
0.0
  0
VERTEX
  8
0
 10
-3.15
 20
-4.0
 30
0.0
  0
VERTEX
  8
0
 10
-3.2
 20
-4.0
 30
0.0
  0
VERTEX
  8
0
 10
-3.25
 20
-4.0
 30
0.0
  0
VERTEX
  8
0
 10
-3.3
 20
-4.0
 30
0.0
  0
VERTEX
  8
0
 10
-3.35
 20
-4.0
 30
0.0
  0
VERTEX
  8
0
 10
-3.4
 20
-4.0
 30
0.0
  0
VERTEX
  8
0
 10
-3.45
 20
-4.0
 30
0.0
  0
VERTEX
  8
0
 10
-3.5
 20
-4.0
 30
0.0
  0
VERTEX
  8
0
 10
-3.55
 20
-4.0
 30
0.0
  0
VERTEX
  8
0
 10
-3.6
 20
-4.0
 30
0.0
  0
VERTEX
  8
0
 10
-3.65
 20
-4.0
 30
0.0
  0
VERTEX
  8
0
 10
-3.7
 20
-4.0
 30
0.0
  0
VERTEX
  8
0
 10
-3.75
 20
-4.0
 30
0.0
  0
VERTEX
  8
0
 10
-3.8
 20
-4.0
 30
0.0
  0
VERTEX
  8
0
 10
-3.85
 20
-4.0
 30
0.0
  0
VERTEX
  8
0
 10
-3.9
 20
-4.0
 30
0.0
  0
VERTEX
  8
0
 10
-3.95
 20
-4.0
 30
0.0
  0
VERTEX
  8
0
 10
-4.0
 20
-4.0
 30
0.0
  0
VERTEX
  8
0
 10
-4.05
 20
-4.0
 30
0.0
  0
VERTEX
  8
0
 10
-4.1
 20
-4.0
 30
0.0
  0
VERTEX
  8
0
 10
-4.15
 20
-4.0
 30
0.0
  0
VERTEX
  8
0
 10
-4.2
 20
-4.0
 30
0.0
  0
VERTEX
  8
0
 10
-4.25
 20
-4.0
 30
0.0
  0
VERTEX
  8
0
 10
-4.3
 20
-4.0
 30
0.0
  0
VERTEX
  8
0
 10
-4.35
 20
-4.0
 30
0.0
  0
VERTEX
  8
0
 10
-4.4
 20
-4.0
 30
0.0
  0
VERTEX
  8
0
 10
-4.45
 20
-4.0
 30
0.0
  0
VERTEX
  8
0
 10
-4.5
 20
-4.0
 30
0.0
  0
VERTEX
  8
0
 10
-4.55
 20
-4.0
 30
0.0
  0
VERTEX
  8
0
 10
-4.6
 20
-4.0
 30
0.0
  0
VERTEX
  8
0
 10
-4.65
 20
-4.0
 30
0.0
  0
VERTEX
  8
0
 10
-4.7
 20
-4.0
 30
0.0
  0
VERTEX
  8
0
 10
-4.75
 20
-4.0
 30
0.0
  0
VERTEX
  8
0
 10
-4.8
 20
-4.0
 30
0.0
  0
VERTEX
  8
0
 10
-4.85
 20
-4.0
 30
0.0
  0
VERTEX
  8
0
 10
-4.9
 20
-4.0
 30
0.0
  0
VERTEX
  8
0
 10
-4.95
 20
-4.0
 30
0.0
  0
VERTEX
  8
0
 10
-5.0
 20
-4.0
 30
0.0
  0
VERTEX
  8
0
 10
-5.05
 20
-4.0
 30
0.0
  0
VERTEX
  8
0
 10
-5.1
 20
-4.0
 30
0.0
  0
VERTEX
  8
0
 10
-5.15
 20
-4.0
 30
0.0
  0
VERTEX
  8
0
 10
-5.2
 20
-4.0
 30
0.0
  0
VERTEX
  8
0
 10
-5.25
 20
-4.0
 30
0.0
  0
VERTEX
  8
0
 10
-5.3
 20
-4.0
 30
0.0
  0
VERTEX
  8
0
 10
-5.35
 20
-4.0
 30
0.0
  0
VERTEX
  8
0
 10
-5.4
 20
-4.0
 30
0.0
  0
VERTEX
  8
0
 10
-5.45
 20
-4.0
 30
0.0
  0
VERTEX
  8
0
 10
-5.5
 20
-4.0
 30
0.0
  0
VERTEX
  8
0
 10
-5.55
 20
-4.0
 30
0.0
  0
VERTEX
  8
0
 10
-5.6
 20
-4.0
 30
0.0
  0
VERTEX
  8
0
 10
-5.65
 20
-4.0
 30
0.0
  0
VERTEX
  8
0
 10
-5.7
 20
-4.0
 30
0.0
  0
VERTEX
  8
0
 10
-5.75
 20
-4.0
 30
0.0
  0
VERTEX
  8
0
 10
-5.8
 20
-4.0
 30
0.0
  0
VERTEX
  8
0
 10
-5.85
 20
-4.0
 30
0.0
  0
VERTEX
  8
0
 10
-5.9
 20
-4.0
 30
0.0
  0
VERTEX
  8
0
 10
-5.95
 20
-4.0
 30
0.0
  0
VERTEX
  8
0
 10
-6.0
 20
-4.0
 30
0.0
  0
VERTEX
  8
0
 10
-6.05
 20
-4.0
 30
0.0
  0
VERTEX
  8
0
 10
-6.1
 20
-4.0
 30
0.0
  0
VERTEX
  8
0
 10
-6.15
 20
-4.0
 30
0.0
  0
VERTEX
  8
0
 10
-6.2
 20
-4.0
 30
0.0
  0
VERTEX
  8
0
 10
-6.25
 20
-4.0
 30
0.0
  0
VERTEX
  8
0
 10
-6.3
 20
-4.0
 30
0.0
  0
VERTEX
  8
0
 10
-6.35
 20
-4.0
 30
0.0
  0
VERTEX
  8
0
 10
-6.4
 20
-4.0
 30
0.0
  0
VERTEX
  8
0
 10
-6.45
 20
-4.0
 30
0.0
  0
VERTEX
  8
0
 10
-6.5
 20
-4.0
 30
0.0
  0
VERTEX
  8
0
 10
-6.55
 20
-4.0
 30
0.0
  0
VERTEX
  8
0
 10
-6.6
 20
-4.0
 30
0.0
  0
VERTEX
  8
0
 10
-6.65
 20
-4.0
 30
0.0
  0
VERTEX
  8
0
 10
-6.7
 20
-4.0
 30
0.0
  0
VERTEX
  8
0
 10
-6.75
 20
-4.0
 30
0.0
  0
VERTEX
  8
0
 10
-6.8
 20
-4.0
 30
0.0
  0
VERTEX
  8
0
 10
-6.85
 20
-4.0
 30
0.0
  0
VERTEX
  8
0
 10
-6.9
 20
-4.0
 30
0.0
  0
VERTEX
  8
0
 10
-6.95
 20
-4.0
 30
0.0
  0
VERTEX
  8
0
 10
-7.0
 20
-4.0
 30
0.0
  0
VERTEX
  8
0
 10
-7.05
 20
-4.0
 30
0.0
  0
VERTEX
  8
0
 10
-7.1
 20
-4.0
 30
0.0
  0
VERTEX
  8
0
 10
-7.15
 20
-4.0
 30
0.0
  0
VERTEX
  8
0
 10
-7.2
 20
-4.0
 30
0.0
  0
VERTEX
  8
0
 10
-7.25
 20
-4.0
 30
0.0
  0
VERTEX
  8
0
 10
-7.3
 20
-4.0
 30
0.0
  0
VERTEX
  8
0
 10
-7.35
 20
-4.0
 30
0.0
  0
VERTEX
  8
0
 10
-7.4
 20
-4.0
 30
0.0
  0
VERTEX
  8
0
 10
-7.45
 20
-4.0
 30
0.0
  0
VERTEX
  8
0
 10
-7.5
 20
-4.0
 30
0.0
  0
VERTEX
  8
0
 10
-7.55
 20
-4.0
 30
0.0
  0
VERTEX
  8
0
 10
-7.6
 20
-4.0
 30
0.0
  0
VERTEX
  8
0
 10
-7.65
 20
-4.0
 30
0.0
  0
VERTEX
  8
0
 10
-7.7
 20
-4.0
 30
0.0
  0
VERTEX
  8
0
 10
-7.75
 20
-4.0
 30
0.0
  0
VERTEX
  8
0
 10
-7.8
 20
-4.0
 30
0.0
  0
VERTEX
  8
0
 10
-7.85
 20
-4.0
 30
0.0
  0
VERTEX
  8
0
 10
-7.9
 20
-4.0
 30
0.0
  0
VERTEX
  8
0
 10
-7.95
 20
-4.0
 30
0.0
  0
VERTEX
  8
0
 10
-8.0
 20
-4.0
 30
0.0
  0
VERTEX
  8
0
 10
-8.05
 20
-4.0
 30
0.0
  0
VERTEX
  8
0
 10
-8.1
 20
-4.0
 30
0.0
  0
VERTEX
  8
0
 10
-8.15
 20
-4.0
 30
0.0
  0
VERTEX
  8
0
 10
-8.2
 20
-4.0
 30
0.0
  0
VERTEX
  8
0
 10
-8.25
 20
-4.0
 30
0.0
  0
VERTEX
  8
0
 10
-8.3
 20
-4.0
 30
0.0
  0
VERTEX
  8
0
 10
-8.35
 20
-4.0
 30
0.0
  0
VERTEX
  8
0
 10
-8.4
 20
-4.0
 30
0.0
  0
VERTEX
  8
0
 10
-8.45
 20
-4.0
 30
0.0
  0
VERTEX
  8
0
 10
-8.5
 20
-4.0
 30
0.0
  0
VERTEX
  8
0
 10
-8.55
 20
-4.0
 30
0.0
  0
VERTEX
  8
0
 10
-8.6
 20
-4.0
 30
0.0
  0
VERTEX
  8
0
 10
-8.65
 20
-4.0
 30
0.0
  0
VERTEX
  8
0
 10
-8.7
 20
-4.0
 30
0.0
  0
VERTEX
  8
0
 10
-8.75
 20
-4.0
 30
0.0
  0
VERTEX
  8
0
 10
-8.8
 20
-4.0
 30
0.0
  0
VERTEX
  8
0
 10
-8.85
 20
-4.0
 30
0.0
  0
VERTEX
  8
0
 10
-8.9
 20
-4.0
 30
0.0
  0
VERTEX
  8
0
 10
-8.95
 20
-4.0
 30
0.0
  0
VERTEX
  8
0
 10
-9.0
 20
-4.0
 30
0.0
  0
VERTEX
  8
0
 10
-9.05
 20
-4.0
 30
0.0
  0
VERTEX
  8
0
 10
-9.1
 20
-4.0
 30
0.0
  0
VERTEX
  8
0
 10
-9.15
 20
-4.0
 30
0.0
  0
VERTEX
  8
0
 10
-9.2
 20
-4.0
 30
0.0
  0
VERTEX
  8
0
 10
-9.25
 20
-4.0
 30
0.0
  0
VERTEX
  8
0
 10
-9.3
 20
-4.0
 30
0.0
  0
VERTEX
  8
0
 10
-9.35
 20
-4.0
 30
0.0
  0
VERTEX
  8
0
 10
-9.4
 20
-4.0
 30
0.0
  0
VERTEX
  8
0
 10
-9.45
 20
-4.0
 30
0.0
  0
VERTEX
  8
0
 10
-9.5
 20
-4.0
 30
0.0
  0
VERTEX
  8
0
 10
-9.55
 20
-4.0
 30
0.0
  0
VERTEX
  8
0
 10
-9.6
 20
-4.0
 30
0.0
  0
VERTEX
  8
0
 10
-9.65
 20
-4.0
 30
0.0
  0
VERTEX
  8
0
 10
-9.7
 20
-4.0
 30
0.0
  0
VERTEX
  8
0
 10
-9.75
 20
-4.0
 30
0.0
  0
VERTEX
  8
0
 10
-9.8
 20
-4.0
 30
0.0
  0
VERTEX
  8
0
 10
-9.85
 20
-4.0
 30
0.0
  0
VERTEX
  8
0
 10
-9.9
 20
-4.0
 30
0.0
  0
VERTEX
  8
0
 10
-9.95
 20
-4.0
 30
0.0
  0
VERTEX
  8
0
 10
-10.0
 20
-4.0
 30
0.0
  0
SEQEND
  8
0
  0
POLYLINE
  8
0
 62
0
 70
0
 66
1
 10
0.0
 20
0.0
 30
0.0
  0
VERTEX
  8
0
 10
14.2741158753
 20
-4.0
 30
0.0
  0
VERTEX
  8
0
 10
14.3241158753
 20
-4.0
 30
0.0
  0
VERTEX
  8
0
 10
14.3741158753
 20
-4.0
 30
0.0
  0
VERTEX
  8
0
 10
14.4241158753
 20
-4.0
 30
0.0
  0
VERTEX
  8
0
 10
14.4741158753
 20
-4.0
 30
0.0
  0
VERTEX
  8
0
 10
14.5241158753
 20
-4.0
 30
0.0
  0
VERTEX
  8
0
 10
14.5741158753
 20
-4.0
 30
0.0
  0
VERTEX
  8
0
 10
14.6241158753
 20
-4.0
 30
0.0
  0
VERTEX
  8
0
 10
14.6741158753
 20
-4.0
 30
0.0
  0
VERTEX
  8
0
 10
14.7241158753
 20
-4.0
 30
0.0
  0
VERTEX
  8
0
 10
14.7741158753
 20
-4.0
 30
0.0
  0
VERTEX
  8
0
 10
14.8241158753
 20
-4.0
 30
0.0
  0
VERTEX
  8
0
 10
14.8741158753
 20
-4.0
 30
0.0
  0
VERTEX
  8
0
 10
14.9241158753
 20
-4.0
 30
0.0
  0
VERTEX
  8
0
 10
14.9741158753
 20
-4.0
 30
0.0
  0
VERTEX
  8
0
 10
15.0241158753
 20
-4.0
 30
0.0
  0
VERTEX
  8
0
 10
15.0741158753
 20
-4.0
 30
0.0
  0
VERTEX
  8
0
 10
15.1241158753
 20
-4.0
 30
0.0
  0
VERTEX
  8
0
 10
15.1741158753
 20
-4.0
 30
0.0
  0
VERTEX
  8
0
 10
15.2241158753
 20
-4.0
 30
0.0
  0
VERTEX
  8
0
 10
15.2741158753
 20
-4.0
 30
0.0
  0
VERTEX
  8
0
 10
15.3241158753
 20
-4.0
 30
0.0
  0
VERTEX
  8
0
 10
15.3741158753
 20
-4.0
 30
0.0
  0
VERTEX
  8
0
 10
15.4241158753
 20
-4.0
 30
0.0
  0
VERTEX
  8
0
 10
15.4741158753
 20
-4.0
 30
0.0
  0
VERTEX
  8
0
 10
15.5241158753
 20
-4.0
 30
0.0
  0
VERTEX
  8
0
 10
15.5741158753
 20
-4.0
 30
0.0
  0
VERTEX
  8
0
 10
15.6241158753
 20
-4.0
 30
0.0
  0
VERTEX
  8
0
 10
15.6741158753
 20
-4.0
 30
0.0
  0
VERTEX
  8
0
 10
15.7241158753
 20
-4.0
 30
0.0
  0
VERTEX
  8
0
 10
15.7741158753
 20
-4.0
 30
0.0
  0
VERTEX
  8
0
 10
15.8241158753
 20
-4.0
 30
0.0
  0
VERTEX
  8
0
 10
15.8741158753
 20
-4.0
 30
0.0
  0
VERTEX
  8
0
 10
15.9241158753
 20
-4.0
 30
0.0
  0
VERTEX
  8
0
 10
15.9741158753
 20
-4.0
 30
0.0
  0
VERTEX
  8
0
 10
16.0241158753
 20
-4.0
 30
0.0
  0
VERTEX
  8
0
 10
16.0741158753
 20
-4.0
 30
0.0
  0
VERTEX
  8
0
 10
16.1241158753
 20
-4.0
 30
0.0
  0
VERTEX
  8
0
 10
16.1741158753
 20
-4.0
 30
0.0
  0
VERTEX
  8
0
 10
16.2241158753
 20
-4.0
 30
0.0
  0
VERTEX
  8
0
 10
16.2741158753
 20
-4.0
 30
0.0
  0
VERTEX
  8
0
 10
16.3241158753
 20
-4.0
 30
0.0
  0
VERTEX
  8
0
 10
16.3741158753
 20
-4.0
 30
0.0
  0
VERTEX
  8
0
 10
16.4241158753
 20
-4.0
 30
0.0
  0
VERTEX
  8
0
 10
16.4741158753
 20
-4.0
 30
0.0
  0
VERTEX
  8
0
 10
16.5241158753
 20
-4.0
 30
0.0
  0
VERTEX
  8
0
 10
16.5741158753
 20
-4.0
 30
0.0
  0
VERTEX
  8
0
 10
16.6241158753
 20
-4.0
 30
0.0
  0
VERTEX
  8
0
 10
16.6741158753
 20
-4.0
 30
0.0
  0
VERTEX
  8
0
 10
16.7241158753
 20
-4.0
 30
0.0
  0
VERTEX
  8
0
 10
16.7741158753
 20
-4.0
 30
0.0
  0
SEQEND
  8
0
  0
POLYLINE
  8
0
 62
0
 70
0
 66
1
 10
0.0
 20
0.0
 30
0.0
  0
VERTEX
  8
0
 10
4.1
 20
-4.0
 30
0.0
  0
VERTEX
  8
0
 10
4.05
 20
-4.0
 30
0.0
  0
VERTEX
  8
0
 10
4.0
 20
-4.0
 30
0.0
  0
VERTEX
  8
0
 10
3.95
 20
-4.0
 30
0.0
  0
VERTEX
  8
0
 10
3.9
 20
-4.0
 30
0.0
  0
VERTEX
  8
0
 10
3.85
 20
-4.0
 30
0.0
  0
VERTEX
  8
0
 10
3.8
 20
-4.0
 30
0.0
  0
VERTEX
  8
0
 10
3.75
 20
-4.0
 30
0.0
  0
VERTEX
  8
0
 10
3.7
 20
-4.0
 30
0.0
  0
VERTEX
  8
0
 10
3.65
 20
-4.0
 30
0.0
  0
VERTEX
  8
0
 10
3.6
 20
-4.0
 30
0.0
  0
VERTEX
  8
0
 10
3.55
 20
-4.0
 30
0.0
  0
VERTEX
  8
0
 10
3.5
 20
-4.0
 30
0.0
  0
VERTEX
  8
0
 10
3.45
 20
-4.0
 30
0.0
  0
VERTEX
  8
0
 10
3.4
 20
-4.0
 30
0.0
  0
VERTEX
  8
0
 10
3.35
 20
-4.0
 30
0.0
  0
VERTEX
  8
0
 10
3.3
 20
-4.0
 30
0.0
  0
VERTEX
  8
0
 10
3.25
 20
-4.0
 30
0.0
  0
VERTEX
  8
0
 10
3.2
 20
-4.0
 30
0.0
  0
VERTEX
  8
0
 10
3.15
 20
-4.0
 30
0.0
  0
VERTEX
  8
0
 10
3.1
 20
-4.0
 30
0.0
  0
VERTEX
  8
0
 10
3.05
 20
-4.0
 30
0.0
  0
VERTEX
  8
0
 10
3.0
 20
-4.0
 30
0.0
  0
VERTEX
  8
0
 10
2.95
 20
-4.0
 30
0.0
  0
VERTEX
  8
0
 10
2.9
 20
-4.0
 30
0.0
  0
VERTEX
  8
0
 10
2.85
 20
-4.0
 30
0.0
  0
VERTEX
  8
0
 10
2.8
 20
-4.0
 30
0.0
  0
VERTEX
  8
0
 10
2.75
 20
-4.0
 30
0.0
  0
VERTEX
  8
0
 10
2.7
 20
-4.0
 30
0.0
  0
VERTEX
  8
0
 10
2.65
 20
-4.0
 30
0.0
  0
VERTEX
  8
0
 10
2.6
 20
-4.0
 30
0.0
  0
VERTEX
  8
0
 10
2.55
 20
-4.0
 30
0.0
  0
VERTEX
  8
0
 10
2.5
 20
-4.0
 30
0.0
  0
VERTEX
  8
0
 10
2.45
 20
-4.0
 30
0.0
  0
VERTEX
  8
0
 10
2.4
 20
-4.0
 30
0.0
  0
VERTEX
  8
0
 10
2.35
 20
-4.0
 30
0.0
  0
VERTEX
  8
0
 10
2.3
 20
-4.0
 30
0.0
  0
VERTEX
  8
0
 10
2.25
 20
-4.0
 30
0.0
  0
VERTEX
  8
0
 10
2.2
 20
-4.0
 30
0.0
  0
VERTEX
  8
0
 10
2.15
 20
-4.0
 30
0.0
  0
VERTEX
  8
0
 10
2.1
 20
-4.0
 30
0.0
  0
VERTEX
  8
0
 10
2.05
 20
-4.0
 30
0.0
  0
VERTEX
  8
0
 10
2.0
 20
-4.0
 30
0.0
  0
VERTEX
  8
0
 10
1.95
 20
-4.0
 30
0.0
  0
VERTEX
  8
0
 10
1.9
 20
-4.0
 30
0.0
  0
VERTEX
  8
0
 10
1.85
 20
-4.0
 30
0.0
  0
VERTEX
  8
0
 10
1.8
 20
-4.0
 30
0.0
  0
VERTEX
  8
0
 10
1.75
 20
-4.0
 30
0.0
  0
VERTEX
  8
0
 10
1.7
 20
-4.0
 30
0.0
  0
VERTEX
  8
0
 10
1.65
 20
-4.0
 30
0.0
  0
VERTEX
  8
0
 10
1.6
 20
-4.0
 30
0.0
  0
VERTEX
  8
0
 10
1.55
 20
-4.0
 30
0.0
  0
VERTEX
  8
0
 10
1.5
 20
-4.0
 30
0.0
  0
VERTEX
  8
0
 10
1.45
 20
-4.0
 30
0.0
  0
VERTEX
  8
0
 10
1.4
 20
-4.0
 30
0.0
  0
VERTEX
  8
0
 10
1.35
 20
-4.0
 30
0.0
  0
VERTEX
  8
0
 10
1.3
 20
-4.0
 30
0.0
  0
VERTEX
  8
0
 10
1.25
 20
-4.0
 30
0.0
  0
VERTEX
  8
0
 10
1.2
 20
-4.0
 30
0.0
  0
VERTEX
  8
0
 10
1.15
 20
-4.0
 30
0.0
  0
VERTEX
  8
0
 10
1.1
 20
-4.0
 30
0.0
  0
VERTEX
  8
0
 10
1.05
 20
-4.0
 30
0.0
  0
VERTEX
  8
0
 10
1.0
 20
-4.0
 30
0.0
  0
VERTEX
  8
0
 10
0.95
 20
-4.0
 30
0.0
  0
VERTEX
  8
0
 10
0.9
 20
-4.0
 30
0.0
  0
VERTEX
  8
0
 10
0.85
 20
-4.0
 30
0.0
  0
VERTEX
  8
0
 10
0.8
 20
-4.0
 30
0.0
  0
VERTEX
  8
0
 10
0.75
 20
-4.0
 30
0.0
  0
VERTEX
  8
0
 10
0.7
 20
-4.0
 30
0.0
  0
VERTEX
  8
0
 10
0.65
 20
-4.0
 30
0.0
  0
VERTEX
  8
0
 10
0.6
 20
-4.0
 30
0.0
  0
VERTEX
  8
0
 10
0.55
 20
-4.0
 30
0.0
  0
VERTEX
  8
0
 10
0.5
 20
-4.0
 30
0.0
  0
VERTEX
  8
0
 10
0.45
 20
-4.0
 30
0.0
  0
VERTEX
  8
0
 10
0.4
 20
-4.0
 30
0.0
  0
VERTEX
  8
0
 10
0.35
 20
-4.0
 30
0.0
  0
VERTEX
  8
0
 10
0.3
 20
-4.0
 30
0.0
  0
VERTEX
  8
0
 10
0.25
 20
-4.0
 30
0.0
  0
VERTEX
  8
0
 10
0.2
 20
-4.0
 30
0.0
  0
VERTEX
  8
0
 10
0.15
 20
-4.0
 30
0.0
  0
VERTEX
  8
0
 10
0.1
 20
-4.0
 30
0.0
  0
VERTEX
  8
0
 10
0.05
 20
-4.0
 30
0.0
  0
VERTEX
  8
0
 10
2.51052593825e-16
 20
-4.0
 30
0.0
  0
VERTEX
  8
0
 10
-0.05
 20
-4.0
 30
0.0
  0
VERTEX
  8
0
 10
-0.1
 20
-4.0
 30
0.0
  0
VERTEX
  8
0
 10
-0.15
 20
-4.0
 30
0.0
  0
VERTEX
  8
0
 10
-0.2
 20
-4.0
 30
0.0
  0
VERTEX
  8
0
 10
-0.25
 20
-4.0
 30
0.0
  0
VERTEX
  8
0
 10
-0.3
 20
-4.0
 30
0.0
  0
VERTEX
  8
0
 10
-0.35
 20
-4.0
 30
0.0
  0
VERTEX
  8
0
 10
-0.4
 20
-4.0
 30
0.0
  0
VERTEX
  8
0
 10
-0.45
 20
-4.0
 30
0.0
  0
VERTEX
  8
0
 10
-0.5
 20
-4.0
 30
0.0
  0
VERTEX
  8
0
 10
-0.55
 20
-4.0
 30
0.0
  0
VERTEX
  8
0
 10
-0.6
 20
-4.0
 30
0.0
  0
VERTEX
  8
0
 10
-0.65
 20
-4.0
 30
0.0
  0
VERTEX
  8
0
 10
-0.7
 20
-4.0
 30
0.0
  0
VERTEX
  8
0
 10
-0.75
 20
-4.0
 30
0.0
  0
VERTEX
  8
0
 10
-0.8
 20
-4.0
 30
0.0
  0
VERTEX
  8
0
 10
-0.85
 20
-4.0
 30
0.0
  0
VERTEX
  8
0
 10
-0.9
 20
-4.0
 30
0.0
  0
VERTEX
  8
0
 10
-0.95
 20
-4.0
 30
0.0
  0
VERTEX
  8
0
 10
-1.0
 20
-4.0
 30
0.0
  0
VERTEX
  8
0
 10
-1.05
 20
-4.0
 30
0.0
  0
VERTEX
  8
0
 10
-1.1
 20
-4.0
 30
0.0
  0
VERTEX
  8
0
 10
-1.15
 20
-4.0
 30
0.0
  0
VERTEX
  8
0
 10
-1.2
 20
-4.0
 30
0.0
  0
VERTEX
  8
0
 10
-1.25
 20
-4.0
 30
0.0
  0
VERTEX
  8
0
 10
-1.3
 20
-4.0
 30
0.0
  0
VERTEX
  8
0
 10
-1.35
 20
-4.0
 30
0.0
  0
VERTEX
  8
0
 10
-1.4
 20
-4.0
 30
0.0
  0
VERTEX
  8
0
 10
-1.45
 20
-4.0
 30
0.0
  0
VERTEX
  8
0
 10
-1.5
 20
-4.0
 30
0.0
  0
VERTEX
  8
0
 10
-1.55
 20
-4.0
 30
0.0
  0
VERTEX
  8
0
 10
-1.6
 20
-4.0
 30
0.0
  0
VERTEX
  8
0
 10
-1.65
 20
-4.0
 30
0.0
  0
VERTEX
  8
0
 10
-1.7
 20
-4.0
 30
0.0
  0
VERTEX
  8
0
 10
-1.75
 20
-4.0
 30
0.0
  0
VERTEX
  8
0
 10
-1.8
 20
-4.0
 30
0.0
  0
VERTEX
  8
0
 10
-1.85
 20
-4.0
 30
0.0
  0
VERTEX
  8
0
 10
-1.9
 20
-4.0
 30
0.0
  0
VERTEX
  8
0
 10
-1.95
 20
-4.0
 30
0.0
  0
VERTEX
  8
0
 10
-2.0
 20
-4.0
 30
0.0
  0
VERTEX
  8
0
 10
-2.05
 20
-4.0
 30
0.0
  0
VERTEX
  8
0
 10
-2.1
 20
-4.0
 30
0.0
  0
VERTEX
  8
0
 10
-2.15
 20
-4.0
 30
0.0
  0
VERTEX
  8
0
 10
-2.2
 20
-4.0
 30
0.0
  0
VERTEX
  8
0
 10
-2.25
 20
-4.0
 30
0.0
  0
VERTEX
  8
0
 10
-2.3
 20
-4.0
 30
0.0
  0
VERTEX
  8
0
 10
-2.35
 20
-4.0
 30
0.0
  0
VERTEX
  8
0
 10
-2.4
 20
-4.0
 30
0.0
  0
VERTEX
  8
0
 10
-2.45
 20
-4.0
 30
0.0
  0
VERTEX
  8
0
 10
-2.5
 20
-4.0
 30
0.0
  0
VERTEX
  8
0
 10
-2.55
 20
-4.0
 30
0.0
  0
VERTEX
  8
0
 10
-2.6
 20
-4.0
 30
0.0
  0
VERTEX
  8
0
 10
-2.65
 20
-4.0
 30
0.0
  0
VERTEX
  8
0
 10
-2.7
 20
-4.0
 30
0.0
  0
VERTEX
  8
0
 10
-2.75
 20
-4.0
 30
0.0
  0
VERTEX
  8
0
 10
-2.8
 20
-4.0
 30
0.0
  0
VERTEX
  8
0
 10
-2.85
 20
-4.0
 30
0.0
  0
VERTEX
  8
0
 10
-2.9
 20
-4.0
 30
0.0
  0
VERTEX
  8
0
 10
-2.95
 20
-4.0
 30
0.0
  0
VERTEX
  8
0
 10
-3.0
 20
-4.0
 30
0.0
  0
VERTEX
  8
0
 10
-3.05
 20
-4.0
 30
0.0
  0
VERTEX
  8
0
 10
-3.1
 20
-4.0
 30
0.0
  0
VERTEX
  8
0
 10
-3.15
 20
-4.0
 30
0.0
  0
VERTEX
  8
0
 10
-3.2
 20
-4.0
 30
0.0
  0
VERTEX
  8
0
 10
-3.25
 20
-4.0
 30
0.0
  0
VERTEX
  8
0
 10
-3.3
 20
-4.0
 30
0.0
  0
VERTEX
  8
0
 10
-3.35
 20
-4.0
 30
0.0
  0
VERTEX
  8
0
 10
-3.4
 20
-4.0
 30
0.0
  0
VERTEX
  8
0
 10
-3.45
 20
-4.0
 30
0.0
  0
VERTEX
  8
0
 10
-3.5
 20
-4.0
 30
0.0
  0
VERTEX
  8
0
 10
-3.55
 20
-4.0
 30
0.0
  0
VERTEX
  8
0
 10
-3.6
 20
-4.0
 30
0.0
  0
VERTEX
  8
0
 10
-3.65
 20
-4.0
 30
0.0
  0
VERTEX
  8
0
 10
-3.7
 20
-4.0
 30
0.0
  0
VERTEX
  8
0
 10
-3.75
 20
-4.0
 30
0.0
  0
VERTEX
  8
0
 10
-3.8
 20
-4.0
 30
0.0
  0
VERTEX
  8
0
 10
-3.85
 20
-4.0
 30
0.0
  0
VERTEX
  8
0
 10
-3.9
 20
-4.0
 30
0.0
  0
VERTEX
  8
0
 10
-3.95
 20
-4.0
 30
0.0
  0
VERTEX
  8
0
 10
-4.0
 20
-4.0
 30
0.0
  0
VERTEX
  8
0
 10
-4.05
 20
-4.0
 30
0.0
  0
VERTEX
  8
0
 10
-4.1
 20
-4.0
 30
0.0
  0
SEQEND
  8
0
  0
LINE
  8
0
 62
0
 10
-16.7741158753
 20
4.7498446197e-14
 30
0.0
 11
16.7741158753
 21
4.7498446197e-14
 31
0.0
  0
LINE
  8
0
 62
0
 10
-16.7741158753
 20
-4.0
 30
0.0
 11
16.7741158753
 21
-4.0
 31
0.0
  0
LINE
  8
0
 62
0
 10
-24.7741158753
 20
3.8616662e-14
 30
0.0
 11
-24.7741158753
 21
-4.0
 31
0.0
  0
LINE
  8
0
 62
0
 10
24.7741158753
 20
3.8616662e-14
 30
0.0
 11
24.7741158753
 21
-4.0
 31
0.0
  0
LINE
  8
0
 62
0
 10
-16.7741158753
 20
4.7498446197e-14
 30
0.0
 11
-16.7741158753
 21
-4.0
 31
0.0
  0
LINE
  8
0
 62
0
 10
16.7741158753
 20
4.7498446197e-14
 30
0.0
 11
16.7741158753
 21
-4.0
 31
0.0
  0
ENDBLK
  0
ENDSEC
  0
SECTION
  2
ENTITIES
  0
INSERT
  2
POCKET
  8
0
 10
0.0
 20
0.0
 30
0.0
  0
ENDSEC
  0
EOF
