  0
SECTION
  2
HEADER
  9
$ACADVER
  1
AC1009
  9
$INSBASE
 10
0.0
 20
0.0
 30
0.0
  9
$EXTMIN
 10
0.0
 20
0.0
 30
0.0
  9
$EXTMAX
 10
0.0
 20
0.0
 30
0.0
  0
ENDSEC
  0
SECTION
  2
TABLES
  0
TABLE
  2
VPORT
 70
0
  0
ENDTAB
  0
TABLE
  2
LTYPE
 70
1
  0
LTYPE
  2
CONTINUOUS
 70
0
  3
Solid line
 72
65
 73
0
 40
0.0
  0
ENDTAB
  0
TABLE
  2
LAYER
 70
1
  0
LAYER
  2
0
 70
64
 62
7
  6
continuous
  0
ENDTAB
  0
TABLE
  2
STYLE
 70
1
  0
STYLE
  2
STANDARD
 70
0
 40
0
 41
1.0
 50
0.0
 71
0
 42
1
 3
ARIAL.TTF
 4

  0
ENDTAB
  0
TABLE
  2
VIEW
 70
0
  0
ENDTAB
  0
ENDSEC
  0
SECTION
  2
BLOCKS
  0
BLOCK
  8
0
  2
PAD
 70
0
 10
0.0
 20
0.0
 30
0.0
  3
PAD
  0
LINE
  8
0
 62
0
 10
-279.52246673
 20
243.525117835
 30
0.0
 11
264.814553082
 21
243.525117835
 31
0.0
  0
LINE
  8
0
 62
0
 10
264.814553082
 20
243.525117835
 30
0.0
 11
264.814553082
 21
-201.705131609
 31
0.0
  0
LINE
  8
0
 62
0
 10
264.814553082
 20
-201.705131609
 30
0.0
 11
-279.52246673
 21
-201.705131609
 31
0.0
  0
LINE
  8
0
 62
0
 10
-279.52246673
 20
-201.705131609
 30
0.0
 11
-279.52246673
 21
243.525117835
 31
0.0
  0
CIRCLE
  8
0
 62
0
 10
154.814553082
 20
0.0
 30
0.0
 40
43.0
  0
CIRCLE
  8
0
 62
0
 10
254.81456
 20
-191.82843
 30
0.0
 40
2.5
  0
CIRCLE
  8
0
 62
0
 10
189.814553082
 20
220.257285678
 30
0.0
 40
2.5
  0
CIRCLE
  8
0
 62
0
 10
244.814553082
 20
233.525117835
 30
0.0
 40
2.5
  0
CIRCLE
  8
0
 62
0
 10
254.814553082
 20
223.525117835
 30
0.0
 40
2.5
  0
CIRCLE
  8
0
 62
0
 10
254.814553082
 20
233.525117835
 30
0.0
 40
2.5
  0
CIRCLE
  8
0
 62
0
 10
244.814553082
 20
-191.705131609
 30
0.0
 40
2.5
  0
CIRCLE
  8
0
 62
0
 10
254.814553082
 20
-181.705131609
 30
0.0
 40
2.5
  0
CIRCLE
  8
0
 62
0
 10
-259.52246673
 20
-191.705131609
 30
0.0
 40
2.5
  0
CIRCLE
  8
0
 62
0
 10
-269.52246673
 20
-191.705131609
 30
0.0
 40
2.5
  0
CIRCLE
  8
0
 62
0
 10
-269.52246673
 20
-181.705131609
 30
0.0
 40
2.5
  0
CIRCLE
  8
0
 62
0
 10
-269.52246673
 20
223.525117835
 30
0.0
 40
2.5
  0
CIRCLE
  8
0
 62
0
 10
-259.52246673
 20
233.525117835
 30
0.0
 40
2.5
  0
CIRCLE
  8
0
 62
0
 10
-269.52246673
 20
233.525117835
 30
0.0
 40
2.5
  0
CIRCLE
  8
0
 62
0
 10
149.814553082
 20
144.0
 30
0.0
 40
2.5
  0
CIRCLE
  8
0
 62
0
 10
111.814553082
 20
43.0
 30
0.0
 40
2.5
  0
CIRCLE
  8
0
 62
0
 10
111.814553082
 20
-43.0
 30
0.0
 40
2.5
  0
CIRCLE
  8
0
 62
0
 10
197.814553082
 20
-43.0
 30
0.0
 40
2.5
  0
CIRCLE
  8
0
 62
0
 10
197.814553082
 20
43.0
 30
0.0
 40
2.5
  0
CIRCLE
  8
0
 62
0
 10
149.814553082
 20
174.0
 30
0.0
 40
2.5
  0
CIRCLE
  8
0
 62
0
 10
-173.685446918
 20
-146.0
 30
0.0
 40
2.5
  0
CIRCLE
  8
0
 62
0
 10
-173.685446918
 20
-104.0
 30
0.0
 40
2.5
  0
CIRCLE
  8
0
 62
0
 10
-173.685446918
 20
146.0
 30
0.0
 40
2.5
  0
CIRCLE
  8
0
 62
0
 10
-173.685446918
 20
104.0
 30
0.0
 40
2.5
  0
CIRCLE
  8
0
 62
0
 10
189.814553082
 20
200.257285678
 30
0.0
 40
2.5
  0
CIRCLE
  8
0
 62
0
 10
-221.185446918
 20
175.0
 30
0.0
 40
2.0
  0
CIRCLE
  8
0
 62
0
 10
164.814553082
 20
143.0
 30
0.0
 40
2.0
  0
CIRCLE
  8
0
 62
0
 10
164.814553082
 20
175.0
 30
0.0
 40
2.0
  0
CIRCLE
  8
0
 62
0
 10
-221.185446918
 20
-175.0
 30
0.0
 40
2.0
  0
CIRCLE
  8
0
 62
0
 10
-221.185446918
 20
-143.0
 30
0.0
 40
2.0
  0
CIRCLE
  8
0
 62
0
 10
-221.185446918
 20
143.0
 30
0.0
 40
2.0
  0
CIRCLE
  8
0
 62
0
 10
164.814553082
 20
-143.0
 30
0.0
 40
2.0
  0
CIRCLE
  8
0
 62
0
 10
204.814553082
 20
-140.5
 30
0.0
 40
2.0
  0
CIRCLE
  8
0
 62
0
 10
189.814553082
 20
-140.5
 30
0.0
 40
2.0
  0
CIRCLE
  8
0
 62
0
 10
204.814553082
 20
-109.5
 30
0.0
 40
2.0
  0
CIRCLE
  8
0
 62
0
 10
164.814553082
 20
-175.0
 30
0.0
 40
2.0
  0
CIRCLE
  8
0
 62
0
 10
204.814553082
 20
109.5
 30
0.0
 40
2.0
  0
CIRCLE
  8
0
 62
0
 10
189.814553082
 20
109.5
 30
0.0
 40
2.0
  0
CIRCLE
  8
0
 62
0
 10
204.814553082
 20
140.5
 30
0.0
 40
2.0
  0
CIRCLE
  8
0
 62
0
 10
189.814553082
 20
140.5
 30
0.0
 40
2.0
  0
CIRCLE
  8
0
 62
0
 10
189.814553082
 20
-109.5
 30
0.0
 40
2.0
  0
ENDBLK
  0
ENDSEC
  0
SECTION
  2
ENTITIES
  0
INSERT
  2
PAD
  8
0
 62
0
 10
0.0
 20
0.0
 30
0.0
  0
ENDSEC
  0
EOF
