<?xml version="1.0" encoding="UTF-8" standalone="no"?>

<svg
	xmlns="http://www.w3.org/2000/svg" version="1.1"
	xmlns:freecad="http://www.freecadweb.org/wiki/index.php?title=Svg_Namespace"
	width="210mm"
	height="297mm"
	viewBox="0 0 210 297">
	<!-- Working space 20 10 200 287 -->
	<!-- Title block 20 227 200 287 -->
	<g>
		<rect
			id="drawing-border"
			style="fill:none;stroke:#000000;stroke-width:0.35;stroke-linecap:miter;stroke-miterlimit:4"
			width="180"
			height="277"
			x="20"
			y="10" />
			<!-- width-30, height-20 -->
		<g
			transform="translate(0,0)">
			<!-- A4 Portrait based for other formats width-210, height-297 -->
			<!--        page       rect   translation
			               w    h    rw   rh   tx   ty
			        A4-P  210  297  180  277    0    0
			        A3-L  420  297  390  277  210    0
			        A2-L  594  420  564  400  384  123
			        A1-L  841  594  811  574  631  297
			        A0-L 1189  841 1159  821  979  544
			-->
			<g
				id="titleblock-structure"
				style="fill:none;stroke:#000000;stroke-width:0.35;stroke-linecap:miter;stroke-miterlimit:4">
				<rect width="180" height="60" x="20" y="227" />
				<path d="m 20,239 h 180" />
				<path d="m 80,227 v 12" />
				<path d="m 140,239 v 48" />
				<path d="m 160,239 v 12" />
				<path d="m 180,239 v 12" />
				<path d="m 140,251 h 60" />
				<path d="m 140,275 h 60" />
				<path d="m 180,275 v 12" />
			</g>
			<g
				id="titleblock-text-non-editable"
				style="font-size:3px;text-anchor:start;fill:#000000;font-family:osifont"
				xml:space="preserve">
				<text x="21" y="230">Created by:</text>
				<text x="81" y="230">Title:</text>
				<text x="21" y="242">Supplementary information:</text>
				<text x="141" y="242">Size:</text>
				<text x="161" y="242">Sheet:</text>
				<text x="181" y="242">Scale:</text>
				<text x="141" y="254">Part number:</text>
				<text x="141" y="266">Drawing number:</text>
				<text x="141" y="278">Date:</text>
				<text x="181" y="278">Revision:</text>
			</g>
			<g
				id="titleblock-text-editable"
				style="font-size:5px;text-anchor:middle;fill:#000000;font-family:osifont"
				xml:space="preserve">
				<text freecad:editable="AUTHOR NAME" x="50" y="236"><tspan>AUTHOR NAME</tspan></text>
				<text freecad:editable="DRAWING TITLE" x="140" y="236"><tspan>DRAWING TITLE</tspan></text>
				<text freecad:editable="SI-1" x="80" y="248"><tspan></tspan></text>
				<text freecad:editable="SI-2" x="80" y="255"><tspan></tspan></text>
				<text freecad:editable="FreeCAD DRAWING" x="80" y="262"><tspan>FreeCAD DRAWING</tspan></text>
				<text freecad:editable="SI-4" x="80" y="269"><tspan></tspan></text>
				<text freecad:editable="SI-5" x="80" y="276"><tspan></tspan></text>
				<text freecad:editable="SI-6" x="80" y="283"><tspan></tspan></text>
				<text freecad:editable="FC-SI" x="150" y="248"><tspan>A4</tspan></text>
				<text freecad:editable="FC-SH" x="170" y="248"><tspan>X / Y</tspan></text>
				<text freecad:editable="FC-SC" x="190" y="248"><tspan>SCALE</tspan></text>
				<text freecad:editable="PN" x="170" y="260"><tspan>PN</tspan></text>
				<text freecad:editable="DN" x="170" y="272"><tspan>DN</tspan></text>
				<text freecad:editable="FC-DATE" x="160" y="284"><tspan>DD/MM/YYYY</tspan></text>
				<text freecad:editable="FC-REV" x="190" y="284"><tspan>REV A</tspan></text>
			</g>
			<!-- Set display:none to hide FreeCAD Logo -->
			<g
				style="display:inline"
				id="freecad-logo"
				transform="translate(128.5,276)"
				fill-rule="evenodd"
				stroke="#000"
				stroke-width="0.35"
				fill="none">
					<path d="m0.1524 0.15254v8.8549h1.9744v-3.4652h1.396v-1.3661h-1.396v-1.4745h3.4391v-2.5441l-5.4135-0.005z"/>
					<path d="m7.7927 3.4504-0.50715-0.176-0.48387-1.2366-0.76115 0.04-0.34718 1.2787-0.4859 0.23269-1.2119-0.53015-0.51188 0.56882 0.65892 1.1485-0.18006 0.50567-1.2366 0.48387 0.044064 0.76263 1.2787 0.34718 0.23269 0.4859-0.53421 1.2104 0.56882 0.51188 1.1485-0.65891 0.50973 0.18155 0.4798 1.2351 0.7667-0.04258 0.34311-1.2802 0.4859-0.23269 1.2145 0.5357 0.51188-0.56882-0.65891-1.1485 0.17748-0.51122 1.2351-0.4798-0.03851-0.76521-1.2802-0.34311-0.23269-0.4859 0.53163-1.216-0.56881-0.51184zm-0.5715 1.2244 0.23576 0.13679 0.20426 0.18519 0.16353 0.22101 0.11763 0.24572 0.06916 0.26489 0.01146 0.27146-0.03921 0.27139-0.08948 0.25764-0.14234 0.23834-0.17964 0.20167-0.22101 0.16353-0.24572 0.11763-0.26489 0.06916-0.27295 0.01553-0.2719-0.04-0.2576-0.089-0.2383-0.143-0.2002-0.183-0.165-0.217-0.1177-0.246-0.0676-0.269-0.0156-0.273 0.039206-0.2714 0.089484-0.25764 0.14085-0.23427 0.18113-0.20574 0.22101-0.16352 0.24572-0.11763 0.26895-0.06768 0.27147-0.01146 0.27139 0.03921 0.25764 0.08948z"/>
			</g>
		</g>
	</g>
<g id="Ortho_0_0"
   transform="rotate(-90,50.3012,118.5) translate(50.3012,118.5) scale(1,1)"
  >
<g   stroke="rgb(0, 0, 0)"
   stroke-width="0.35"
   stroke-linecap="butt"
   stroke-linejoin="miter"
   fill="none"
   transform="scale(1,-1)"
  >
<path id= "1" d=" M 42.7828 -6.64978e-014 L 42.7828 4 " />
<path d="M42.7828,-6.62758e-014 L42.7765,-6.62674e-014  L42.7577,-6.62424e-014  L42.7267,-6.6201e-014  L42.6838,-6.61438e-014  L42.6295,-6.60716e-014  L42.5646,-6.59851e-014  L42.4899,-6.58856e-014  L42.4063,-6.57742e-014  L42.3148,-6.56523e-014  L42.2167,-6.55216e-014  L42.1131,-6.53835e-014  L42.0053,-6.524e-014  L41.8948,-6.50927e-014  L41.7828,-6.49435e-014 " /><path id= "3" d=" M 41.7828 -6.49435e-014 L -42.7828 6.64978e-014 " />
<path d="M0,0 L1.45554,-2.26236e-015  L2.89277,-4.49627e-015  L4.29363,-6.67364e-015  L5.64049,-8.76708e-015  L6.91642,-1.07503e-014  L8.10537,-1.25983e-014  L9.19239,-1.42878e-014  L10.1638,-1.57977e-014  L11.0074,-1.7109e-014  L11.7126,-1.8205e-014  L12.2705,-1.90722e-014  L12.6741,-1.96995e-014  L12.9183,-2.0079e-014  L13,-2.02061e-014 " /><path d="M-29,4.50751e-014 L-28.5409,4.43615e-014  L-28.0877,4.3657e-014  L-27.6459,4.29703e-014  L-27.2211,4.23101e-014  L-26.8187,4.16846e-014  L-26.4437,4.11018e-014  L-26.1009,4.05689e-014  L-25.7945,4.00927e-014  L-25.5284,3.96792e-014  L-25.306,3.93335e-014  L-25.1301,3.906e-014  L-25.0028,3.88622e-014  L-24.9258,3.87424e-014  L-24.9,3.87024e-014 " /><path d="M-17,2.64233e-014 L-16.9906,2.64086e-014  L-16.9624,2.63649e-014  L-16.9158,2.62925e-014  L-16.8515,2.61924e-014  L-16.7701,2.6066e-014  L-16.6727,2.59147e-014  L-16.5607,2.57404e-014  L-16.4352,2.55455e-014  L-16.298,2.53323e-014  L-16.1508,2.51034e-014  L-15.9954,2.48619e-014  L-15.8338,2.46106e-014  L-15.6679,2.43529e-014  L-15.5,2.40918e-014 " /><path d="M42.7828,4 L42.7765,4  L42.7577,4  L42.7267,4  L42.6838,4  L42.6295,4  L42.5646,4  L42.4899,4  L42.4063,4  L42.3148,4  L42.2167,4  L42.1131,4  L42.0053,4  L41.8948,4  L41.7828,4 " /><path id= "8" d=" M 41.7828 4 L -42.7828 4 " />
<path id= "9" d=" M -42.7828 6.64978e-014 L -42.7828 4 " />
</g>
</g>



<g id="Ortho_1_0"
   transform="rotate(-90,126.151,118.5) translate(126.151,118.5) scale(1,1)"
  >
<g   stroke="rgb(0, 0, 0)"
   stroke-width="0.35"
   stroke-linecap="butt"
   stroke-linejoin="miter"
   fill="none"
   transform="scale(1,-1)"
  >
<path id= "1" d=" M 42.7828 -23.7741 L 42.7828 23.7741 " />
<path d="M42.7828 -23.7741 A1 1 0 0 0 41.7828 -24.7741" /><path d="M42.7828 23.7741 A1 1 0 0 1 41.7828 24.7741" /><path id= "4" d=" M -42.7828 -24.7741 L 41.7828 -24.7741 " />
<path id= "5" d=" M 41.7828 24.7741 L -42.7828 24.7741 " />
<path id= "6" d=" M -42.7828 24.7741 L -42.7828 -24.7741 " />
<circle cx ="-15.5" cy ="-15.5" r ="1.5" /><circle cx ="0" cy ="0" r ="13" /><circle cx ="29" cy ="0" r ="4.1" /><circle cx ="15.5" cy ="-15.5" r ="1.5" /><circle cx ="-37.7828" cy ="-16.7741" r ="2.5" /><circle cx ="-29" cy ="0" r ="4.1" /><circle cx ="-37.7828" cy ="16.7741" r ="2.5" /><circle cx ="-15.5" cy ="15.5" r ="1.5" /><circle cx ="15.5" cy ="15.5" r ="1.5" /><circle cx ="35.7828" cy ="17.7741" r ="3.9" /></g>
</g>



</svg>

