  0
SECTION
  2
HEADER
  9
$ACADVER
  1
AC1009
  9
$INSBASE
 10
0.0
 20
0.0
 30
0.0
  9
$EXTMIN
 10
0.0
 20
0.0
 30
0.0
  9
$EXTMAX
 10
0.0
 20
0.0
 30
0.0
  0
ENDSEC
  0
SECTION
  2
TABLES
  0
TABLE
  2
VPORT
 70
0
  0
ENDTAB
  0
TABLE
  2
LTYPE
 70
1
  0
LTYPE
  2
CONTINUOUS
 70
0
  3
Solid line
 72
65
 73
0
 40
0.0
  0
ENDTAB
  0
TABLE
  2
LAYER
 70
1
  0
LAYER
  2
0
 70
64
 62
7
  6
continuous
  0
ENDTAB
  0
TABLE
  2
STYLE
 70
1
  0
STYLE
  2
STANDARD
 70
0
 40
0
 41
1.0
 50
0.0
 71
0
 42
1
 3
ARIAL.TTF
 4

  0
ENDTAB
  0
TABLE
  2
VIEW
 70
0
  0
ENDTAB
  0
ENDSEC
  0
SECTION
  2
BLOCKS
  0
BLOCK
  8
0
  2
SHAPE2DVIEW
 70
0
 10
0.0
 20
0.0
 30
0.0
  3
SHAPE2DVIEW
  0
LINE
  8
0
 62
0
 10
140.0
 20
-62.0
 30
0.0
 11
140.0
 21
62.0
 31
0.0
  0
ARC
  8
0
 62
0
 10
139.0
 20
-62.0
 30
0.0
 40
1.0
 50
-90.0
 51
-0.0
  0
ARC
  8
0
 62
0
 10
139.0
 20
62.0
 30
0.0
 40
1.0
 50
-0.0
 51
90.0
  0
LINE
  8
0
 62
0
 10
-52.0
 20
-63.0
 30
0.0
 11
139.0
 21
-63.0
 31
0.0
  0
LINE
  8
0
 62
0
 10
139.0
 20
63.0
 30
0.0
 11
-52.0
 21
63.0
 31
0.0
  0
ARC
  8
0
 62
0
 10
-52.0
 20
-62.0
 30
0.0
 40
1.0
 50
-180.0
 51
-90.0
  0
ARC
  8
0
 62
0
 10
-52.0
 20
62.0
 30
0.0
 40
1.0
 50
90.0
 51
-180.0
  0
LINE
  8
0
 62
0
 10
-53.0
 20
62.0
 30
0.0
 11
-53.0
 21
-62.0
 31
0.0
  0
CIRCLE
  8
0
 62
0
 10
-21.0
 20
40.0
 30
0.0
 40
2.0
  0
LINE
  8
0
 62
0
 10
-14.421563
 20
48.591103
 30
0.0
 11
13.913884
 21
48.591103
 31
0.0
  0
LINE
  8
0
 62
0
 10
-14.421563
 20
14.544634
 30
0.0
 11
-14.421563
 21
48.591103
 31
0.0
  0
LINE
  8
0
 62
0
 10
13.913884
 20
14.544634
 30
0.0
 11
-14.421563
 21
14.544634
 31
0.0
  0
LINE
  8
0
 62
0
 10
13.913884
 20
48.591103
 30
0.0
 11
13.913884
 21
14.544634
 31
0.0
  0
CIRCLE
  8
0
 62
0
 10
21.0
 20
-30.0
 30
0.0
 40
2.0
  0
CIRCLE
  8
0
 62
0
 10
8.0
 20
-5.0
 30
0.0
 40
2.5
  0
CIRCLE
  8
0
 62
0
 10
8.0
 20
5.0
 30
0.0
 40
2.5
  0
CIRCLE
  8
0
 62
0
 10
88.0
 20
15.5
 30
0.0
 40
2.1
  0
CIRCLE
  8
0
 62
0
 10
103.0
 20
15.5
 30
0.0
 40
2.1
  0
LINE
  8
0
 62
0
 10
45.0
 20
49.0
 30
0.0
 11
115.0
 21
49.0
 31
0.0
  0
LINE
  8
0
 62
0
 10
45.0
 20
21.108473
 30
0.0
 11
45.0
 21
49.0
 31
0.0
  0
LINE
  8
0
 62
0
 10
115.0
 20
21.108473
 30
0.0
 11
45.0
 21
21.108473
 31
0.0
  0
LINE
  8
0
 62
0
 10
115.0
 20
49.0
 30
0.0
 11
115.0
 21
21.108473
 31
0.0
  0
LINE
  8
0
 62
0
 10
45.0
 20
-21.108473
 30
0.0
 11
115.0
 21
-21.108473
 31
0.0
  0
LINE
  8
0
 62
0
 10
45.0
 20
-49.0
 30
0.0
 11
45.0
 21
-21.108473
 31
0.0
  0
LINE
  8
0
 62
0
 10
115.0
 20
-49.0
 30
0.0
 11
45.0
 21
-49.0
 31
0.0
  0
LINE
  8
0
 62
0
 10
115.0
 20
-21.108473
 30
0.0
 11
115.0
 21
-49.0
 31
0.0
  0
CIRCLE
  8
0
 62
0
 10
88.0
 20
-15.5
 30
0.0
 40
2.1
  0
CIRCLE
  8
0
 62
0
 10
103.0
 20
-15.5
 30
0.0
 40
2.1
  0
CIRCLE
  8
0
 62
0
 10
-48.0
 20
-59.0
 30
0.0
 40
2.5
  0
CIRCLE
  8
0
 62
0
 10
-21.0
 20
-40.0
 30
0.0
 40
2.0
  0
CIRCLE
  8
0
 62
0
 10
-37.0
 20
-40.0
 30
0.0
 40
2.0
  0
CIRCLE
  8
0
 62
0
 10
-37.0
 20
-30.0
 30
0.0
 40
2.0
  0
CIRCLE
  8
0
 62
0
 10
-21.0
 20
-30.0
 30
0.0
 40
2.0
  0
CIRCLE
  8
0
 62
0
 10
-48.0
 20
-27.0
 30
0.0
 40
2.5
  0
CIRCLE
  8
0
 62
0
 10
-9.5
 20
-59.658745
 30
0.0
 40
1.625
  0
CIRCLE
  8
0
 62
0
 10
9.5
 20
-59.658745
 30
0.0
 40
1.625
  0
LINE
  8
0
 62
0
 10
-13.103637
 20
-13.790819
 30
0.0
 11
13.694231
 21
-13.790819
 31
0.0
  0
LINE
  8
0
 62
0
 10
-13.103637
 20
-41.4673
 30
0.0
 11
-13.103637
 21
-13.790819
 31
0.0
  0
LINE
  8
0
 62
0
 10
13.694231
 20
-41.4673
 30
0.0
 11
-13.103637
 21
-41.4673
 31
0.0
  0
LINE
  8
0
 62
0
 10
13.694231
 20
-13.790819
 30
0.0
 11
13.694231
 21
-41.4673
 31
0.0
  0
CIRCLE
  8
0
 62
0
 10
37.0
 20
-40.0
 30
0.0
 40
2.0
  0
CIRCLE
  8
0
 62
0
 10
21.0
 20
-40.0
 30
0.0
 40
2.0
  0
CIRCLE
  8
0
 62
0
 10
37.0
 20
-30.0
 30
0.0
 40
2.0
  0
CIRCLE
  8
0
 62
0
 10
-37.0
 20
40.0
 30
0.0
 40
2.0
  0
CIRCLE
  8
0
 62
0
 10
-37.0
 20
30.0
 30
0.0
 40
2.0
  0
CIRCLE
  8
0
 62
0
 10
-21.0
 20
30.0
 30
0.0
 40
2.0
  0
CIRCLE
  8
0
 62
0
 10
-20.0
 20
15.0
 30
0.0
 40
2.0
  0
CIRCLE
  8
0
 62
0
 10
20.0
 20
15.0
 30
0.0
 40
2.0
  0
CIRCLE
  8
0
 62
0
 10
21.0
 20
40.0
 30
0.0
 40
2.0
  0
CIRCLE
  8
0
 62
0
 10
21.0
 20
30.0
 30
0.0
 40
2.0
  0
CIRCLE
  8
0
 62
0
 10
-8.0
 20
-5.0
 30
0.0
 40
2.5
  0
CIRCLE
  8
0
 62
0
 10
-8.0
 20
5.0
 30
0.0
 40
2.5
  0
CIRCLE
  8
0
 62
0
 10
-20.0
 20
-15.0
 30
0.0
 40
2.0
  0
CIRCLE
  8
0
 62
0
 10
20.0
 20
-15.0
 30
0.0
 40
2.0
  0
CIRCLE
  8
0
 62
0
 10
-48.0
 20
16.5
 30
0.0
 40
2.1
  0
CIRCLE
  8
0
 62
0
 10
-48.0
 20
27.0
 30
0.0
 40
2.5
  0
CIRCLE
  8
0
 62
0
 10
-48.0
 20
-16.5
 30
0.0
 40
2.1
  0
CIRCLE
  8
0
 62
0
 10
37.0
 20
30.0
 30
0.0
 40
2.0
  0
CIRCLE
  8
0
 62
0
 10
37.0
 20
40.0
 30
0.0
 40
2.0
  0
CIRCLE
  8
0
 62
0
 10
135.0
 20
-27.0
 30
0.0
 40
2.5
  0
CIRCLE
  8
0
 62
0
 10
135.0
 20
-59.0
 30
0.0
 40
2.5
  0
CIRCLE
  8
0
 62
0
 10
135.0
 20
27.0
 30
0.0
 40
2.5
  0
CIRCLE
  8
0
 62
0
 10
135.0
 20
59.0
 30
0.0
 40
2.5
  0
CIRCLE
  8
0
 62
0
 10
-47.931396
 20
59.0
 30
0.0
 40
2.5
  0
ENDBLK
  0
ENDSEC
  0
SECTION
  2
ENTITIES
  0
INSERT
  2
SHAPE2DVIEW
  8
0
 62
0
 10
0.0
 20
0.0
 30
0.0
  0
ENDSEC
  0
EOF
