  0
SECTION
  2
HEADER
  9
$ACADVER
  1
AC1009
  9
$INSBASE
 10
0.0
 20
0.0
 30
0.0
  9
$EXTMIN
 10
0.0
 20
0.0
 30
0.0
  9
$EXTMAX
 10
0.0
 20
0.0
 30
0.0
  0
ENDSEC
  0
SECTION
  2
TABLES
  0
TABLE
  2
VPORT
 70
0
  0
ENDTAB
  0
TABLE
  2
LTYPE
 70
1
  0
LTYPE
  2
CONTINUOUS
 70
0
  3
Solid line
 72
65
 73
0
 40
0.0
  0
ENDTAB
  0
TABLE
  2
LAYER
 70
1
  0
LAYER
  2
0
 70
64
 62
7
  6
continuous
  0
ENDTAB
  0
TABLE
  2
STYLE
 70
1
  0
STYLE
  2
STANDARD
 70
0
 40
0
 41
1.0
 50
0.0
 71
0
 42
1
 3
ARIAL.TTF
 4

  0
ENDTAB
  0
TABLE
  2
VIEW
 70
0
  0
ENDTAB
  0
ENDSEC
  0
SECTION
  2
BLOCKS
  0
BLOCK
  8
0
  2
SHAPE2DVIEW
 70
0
 10
0.0
 20
0.0
 30
0.0
  3
SHAPE2DVIEW
  0
LINE
  8
0
 62
0
 10
-140.0
 20
-62.0
 30
0.0
 11
-140.0
 21
62.0
 31
0.0
  0
ARC
  8
0
 62
0
 10
-139.0
 20
-62.0
 30
0.0
 40
1.0
 50
-180.0
 51
-90.0
  0
ARC
  8
0
 62
0
 10
-139.0
 20
62.0
 30
0.0
 40
1.0
 50
90.0
 51
-180.0
  0
LINE
  8
0
 62
0
 10
52.0
 20
-63.0
 30
0.0
 11
-139.0
 21
-63.0
 31
0.0
  0
LINE
  8
0
 62
0
 10
-139.0
 20
63.0
 30
0.0
 11
52.0
 21
63.0
 31
0.0
  0
ARC
  8
0
 62
0
 10
52.0
 20
-62.0
 30
0.0
 40
1.0
 50
-90.0
 51
-0.0
  0
ARC
  8
0
 62
0
 10
52.0
 20
62.0
 30
0.0
 40
1.0
 50
-0.0
 51
90.0
  0
LINE
  8
0
 62
0
 10
53.0
 20
62.0
 30
0.0
 11
53.0
 21
-62.0
 31
0.0
  0
CIRCLE
  8
0
 62
0
 10
48.0
 20
27.0
 30
0.0
 40
2.5
  0
CIRCLE
  8
0
 62
0
 10
37.0
 20
30.0
 30
0.0
 40
2.0
  0
CIRCLE
  8
0
 62
0
 10
37.0
 20
40.0
 30
0.0
 40
2.0
  0
CIRCLE
  8
0
 62
0
 10
21.0
 20
40.0
 30
0.0
 40
2.0
  0
CIRCLE
  8
0
 62
0
 10
21.0
 20
30.0
 30
0.0
 40
2.0
  0
CIRCLE
  8
0
 62
0
 10
48.0
 20
16.5
 30
0.0
 40
2.0
  0
LINE
  8
0
 62
0
 10
-13.913884
 20
14.544634
 30
0.0
 11
-13.913884
 21
48.591103
 31
0.0
  0
LINE
  8
0
 62
0
 10
-13.913884
 20
48.591103
 30
0.0
 11
14.421563
 21
48.591103
 31
0.0
  0
LINE
  8
0
 62
0
 10
14.421563
 20
48.591103
 30
0.0
 11
14.421563
 21
14.544634
 31
0.0
  0
LINE
  8
0
 62
0
 10
14.421563
 20
14.544634
 30
0.0
 11
-13.913884
 21
14.544634
 31
0.0
  0
CIRCLE
  8
0
 62
0
 10
-37.0
 20
40.0
 30
0.0
 40
2.0
  0
LINE
  8
0
 62
0
 10
-34.864063
 20
6.770271
 30
0.0
 11
-75.40966
 21
6.770271
 31
0.0
  0
LINE
  8
0
 62
0
 10
-34.864063
 20
22.775856
 30
0.0
 11
-34.864063
 21
6.770271
 31
0.0
  0
LINE
  8
0
 62
0
 10
-75.40966
 20
6.770271
 30
0.0
 11
-75.40966
 21
52.659397
 31
0.0
  0
LINE
  8
0
 62
0
 10
-48.351913
 20
22.775856
 30
0.0
 11
-34.864063
 21
22.775856
 31
0.0
  0
LINE
  8
0
 62
0
 10
-75.40966
 20
52.659397
 30
0.0
 11
-35.125942
 21
52.659397
 31
0.0
  0
LINE
  8
0
 62
0
 10
-48.351913
 20
46.154793
 30
0.0
 11
-48.351913
 21
22.775856
 31
0.0
  0
LINE
  8
0
 62
0
 10
-35.125942
 20
52.659397
 30
0.0
 11
-35.125942
 21
46.154793
 31
0.0
  0
LINE
  8
0
 62
0
 10
-35.125942
 20
46.154793
 30
0.0
 11
-48.351913
 21
46.154793
 31
0.0
  0
CIRCLE
  8
0
 62
0
 10
-37.0
 20
30.0
 30
0.0
 40
2.0
  0
CIRCLE
  8
0
 62
0
 10
-20.0
 20
15.0
 30
0.0
 40
2.0
  0
CIRCLE
  8
0
 62
0
 10
-21.0
 20
30.0
 30
0.0
 40
2.0
  0
CIRCLE
  8
0
 62
0
 10
-21.0
 20
40.0
 30
0.0
 40
2.0
  0
CIRCLE
  8
0
 62
0
 10
47.931396
 20
59.0
 30
0.0
 40
2.5
  0
CIRCLE
  8
0
 62
0
 10
-135.0
 20
59.0
 30
0.0
 40
2.5
  0
CIRCLE
  8
0
 62
0
 10
-135.0
 20
27.0
 30
0.0
 40
2.5
  0
LINE
  8
0
 62
0
 10
-85.770447
 20
23.485942
 30
0.0
 11
-125.247749
 21
23.485942
 31
0.0
  0
LINE
  8
0
 62
0
 10
-85.770447
 20
21.850573
 30
0.0
 11
-85.770447
 21
23.485942
 31
0.0
  0
LINE
  8
0
 62
0
 10
-125.247749
 20
23.485942
 30
0.0
 11
-125.247749
 21
53.2697
 31
0.0
  0
LINE
  8
0
 62
0
 10
-81.688751
 20
21.850573
 30
0.0
 11
-85.770447
 21
21.850573
 31
0.0
  0
LINE
  8
0
 62
0
 10
-125.247749
 20
53.2697
 30
0.0
 11
-81.688751
 21
53.2697
 31
0.0
  0
LINE
  8
0
 62
0
 10
-81.688751
 20
53.2697
 30
0.0
 11
-81.688751
 21
21.850573
 31
0.0
  0
CIRCLE
  8
0
 62
0
 10
-88.0
 20
15.5
 30
0.0
 40
2.0
  0
CIRCLE
  8
0
 62
0
 10
-103.0
 20
15.5
 30
0.0
 40
2.0
  0
CIRCLE
  8
0
 62
0
 10
20.0
 20
15.0
 30
0.0
 40
2.0
  0
CIRCLE
  8
0
 62
0
 10
8.0
 20
-5.0
 30
0.0
 40
2.0
  0
CIRCLE
  8
0
 62
0
 10
-8.0
 20
-5.0
 30
0.0
 40
2.0
  0
CIRCLE
  8
0
 62
0
 10
-8.0
 20
5.0
 30
0.0
 40
2.0
  0
CIRCLE
  8
0
 62
0
 10
8.0
 20
5.0
 30
0.0
 40
2.0
  0
CIRCLE
  8
0
 62
0
 10
-135.0
 20
-27.0
 30
0.0
 40
2.5
  0
CIRCLE
  8
0
 62
0
 10
-88.0
 20
-15.5
 30
0.0
 40
2.0
  0
CIRCLE
  8
0
 62
0
 10
-103.0
 20
-15.5
 30
0.0
 40
2.0
  0
LINE
  8
0
 62
0
 10
-81.128167
 20
-51.235206
 30
0.0
 11
-125.56488
 21
-51.235206
 31
0.0
  0
LINE
  8
0
 62
0
 10
-81.128167
 20
-19.698885
 30
0.0
 11
-81.128167
 21
-51.235206
 31
0.0
  0
LINE
  8
0
 62
0
 10
-125.56488
 20
-51.235206
 30
0.0
 11
-125.56488
 21
-21.456263
 31
0.0
  0
LINE
  8
0
 62
0
 10
-84.818268
 20
-19.698885
 30
0.0
 11
-81.128167
 21
-19.698885
 31
0.0
  0
LINE
  8
0
 62
0
 10
-125.56488
 20
-21.456263
 30
0.0
 11
-84.818268
 21
-21.456263
 31
0.0
  0
LINE
  8
0
 62
0
 10
-84.818268
 20
-21.456263
 30
0.0
 11
-84.818268
 21
-19.698885
 31
0.0
  0
LINE
  8
0
 62
0
 10
-13.694231
 20
-41.4673
 30
0.0
 11
-13.694231
 21
-13.790819
 31
0.0
  0
LINE
  8
0
 62
0
 10
-13.694231
 20
-13.790819
 30
0.0
 11
13.103637
 21
-13.790819
 31
0.0
  0
LINE
  8
0
 62
0
 10
13.103637
 20
-13.790819
 30
0.0
 11
13.103637
 21
-41.4673
 31
0.0
  0
LINE
  8
0
 62
0
 10
13.103637
 20
-41.4673
 30
0.0
 11
-13.694231
 21
-41.4673
 31
0.0
  0
CIRCLE
  8
0
 62
0
 10
-21.0
 20
-30.0
 30
0.0
 40
2.0
  0
CIRCLE
  8
0
 62
0
 10
-21.0
 20
-40.0
 30
0.0
 40
2.0
  0
CIRCLE
  8
0
 62
0
 10
-20.0
 20
-15.0
 30
0.0
 40
2.0
  0
CIRCLE
  8
0
 62
0
 10
-37.0
 20
-30.0
 30
0.0
 40
2.0
  0
LINE
  8
0
 62
0
 10
-33.821651
 20
-51.457267
 30
0.0
 11
-74.897072
 21
-51.457267
 31
0.0
  0
LINE
  8
0
 62
0
 10
-33.821651
 20
-45.3924359888
 30
0.0
 11
-33.821651
 21
-51.457267
 31
0.0
  0
LINE
  8
0
 62
0
 10
-74.897072
 20
-51.457267
 30
0.0
 11
-74.897072
 21
-6.739401
 31
0.0
  0
LINE
  8
0
 62
0
 10
-48.466095
 20
-45.3924359888
 30
0.0
 11
-33.821651
 21
-45.3924359888
 31
0.0
  0
LINE
  8
0
 62
0
 10
-74.897072
 20
-6.739401
 30
0.0
 11
-35.067162
 21
-6.739401
 31
0.0
  0
LINE
  8
0
 62
0
 10
-48.466095
 20
-20.7372586572
 30
0.0
 11
-48.466095
 21
-45.3924359888
 31
0.0
  0
LINE
  8
0
 62
0
 10
-35.067162
 20
-6.739401
 30
0.0
 11
-35.067162
 21
-20.7372586572
 31
0.0
  0
LINE
  8
0
 62
0
 10
-35.067162
 20
-20.7372586572
 30
0.0
 11
-48.466095
 21
-20.7372586572
 31
0.0
  0
CIRCLE
  8
0
 62
0
 10
-37.0
 20
-40.0
 30
0.0
 40
2.0
  0
CIRCLE
  8
0
 62
0
 10
48.0
 20
-27.0
 30
0.0
 40
2.5
  0
CIRCLE
  8
0
 62
0
 10
48.0
 20
-16.5
 30
0.0
 40
2.0
  0
CIRCLE
  8
0
 62
0
 10
37.0
 20
-30.0
 30
0.0
 40
2.0
  0
CIRCLE
  8
0
 62
0
 10
20.0
 20
-15.0
 30
0.0
 40
2.0
  0
CIRCLE
  8
0
 62
0
 10
21.0
 20
-30.0
 30
0.0
 40
2.0
  0
CIRCLE
  8
0
 62
0
 10
21.0
 20
-40.0
 30
0.0
 40
2.0
  0
CIRCLE
  8
0
 62
0
 10
37.0
 20
-40.0
 30
0.0
 40
2.0
  0
CIRCLE
  8
0
 62
0
 10
48.0
 20
-59.0
 30
0.0
 40
2.5
  0
CIRCLE
  8
0
 62
0
 10
9.5
 20
-59.658745
 30
0.0
 40
1.5
  0
CIRCLE
  8
0
 62
0
 10
-9.5
 20
-59.658745
 30
0.0
 40
1.5
  0
CIRCLE
  8
0
 62
0
 10
-135.0
 20
-59.0
 30
0.0
 40
2.5
  0
ENDBLK
  0
ENDSEC
  0
SECTION
  2
ENTITIES
  0
INSERT
  2
SHAPE2DVIEW
  8
0
 62
0
 10
0.0
 20
0.0
 30
0.0
  0
ENDSEC
  0
EOF
