  0
SECTION
  2
HEADER
  9
$ACADVER
  1
AC1009
  9
$INSBASE
 10
0.0
 20
0.0
 30
0.0
  9
$EXTMIN
 10
0.0
 20
0.0
 30
0.0
  9
$EXTMAX
 10
0.0
 20
0.0
 30
0.0
  0
ENDSEC
  0
SECTION
  2
TABLES
  0
TABLE
  2
VPORT
 70
0
  0
ENDTAB
  0
TABLE
  2
LTYPE
 70
1
  0
LTYPE
  2
CONTINUOUS
 70
0
  3
Solid line
 72
65
 73
0
 40
0.0
  0
ENDTAB
  0
TABLE
  2
LAYER
 70
1
  0
LAYER
  2
0
 70
64
 62
7
  6
continuous
  0
ENDTAB
  0
TABLE
  2
STYLE
 70
1
  0
STYLE
  2
STANDARD
 70
0
 40
0
 41
1.0
 50
0.0
 71
0
 42
1
 3
ARIAL.TTF
 4

  0
ENDTAB
  0
TABLE
  2
VIEW
 70
0
  0
ENDTAB
  0
ENDSEC
  0
SECTION
  2
BLOCKS
  0
BLOCK
  8
0
  2
SHAPE2DVIEW
 70
0
 10
0.0
 20
0.0
 30
0.0
  3
SHAPE2DVIEW
  0
LINE
  8
0
 62
0
 10
-94.3800502222
 20
91.4612581237
 30
0.0
 11
50.6199497778
 21
91.4612581237
 31
0.0
  0
LINE
  8
0
 62
0
 10
50.6199497778
 20
91.4612581237
 30
0.0
 11
50.6199497778
 21
-106.538745946
 31
0.0
  0
LINE
  8
0
 62
0
 10
50.6199497778
 20
-106.538745946
 30
0.0
 11
-94.3800502222
 21
-106.538745946
 31
0.0
  0
LINE
  8
0
 62
0
 10
-94.3800502222
 20
-106.538745946
 30
0.0
 11
-94.3800502222
 21
91.4612581237
 31
0.0
  0
CIRCLE
  8
0
 62
0
 10
-22.3800502222
 20
-1.53874594551
 30
0.0
 40
19.0
  0
CIRCLE
  8
0
 62
0
 10
-37.3800502222
 20
-101.538745946
 30
0.0
 40
2.564518
  0
CIRCLE
  8
0
 62
0
 10
-22.3800502222
 20
-101.538745946
 30
0.0
 40
2.5
  0
CIRCLE
  8
0
 62
0
 10
-7.38005022218
 20
-101.538745944
 30
0.0
 40
2.432941
  0
CIRCLE
  8
0
 62
0
 10
40.6199497778
 20
-43.5387459455
 30
0.0
 40
2.1
  0
CIRCLE
  8
0
 62
0
 10
22.6199497778
 20
-43.5387459455
 30
0.0
 40
2.1
  0
CIRCLE
  8
0
 62
0
 10
22.6199497778
 20
-19.5387459455
 30
0.0
 40
2.1
  0
CIRCLE
  8
0
 62
0
 10
40.6199497778
 20
-19.5387459455
 30
0.0
 40
2.1
  0
CIRCLE
  8
0
 62
0
 10
22.6199497778
 20
-77.5387459455
 30
0.0
 40
2.1
  0
CIRCLE
  8
0
 62
0
 10
22.6199497778
 20
-101.538745946
 30
0.0
 40
2.1
  0
CIRCLE
  8
0
 62
0
 10
40.6199497778
 20
-101.538745946
 30
0.0
 40
2.1
  0
CIRCLE
  8
0
 62
0
 10
40.6199497778
 20
-77.5387459455
 30
0.0
 40
2.1
  0
CIRCLE
  8
0
 62
0
 10
-66.3800502222
 20
-43.5387459455
 30
0.0
 40
2.1
  0
CIRCLE
  8
0
 62
0
 10
-84.3800502222
 20
-43.5387459455
 30
0.0
 40
2.1
  0
CIRCLE
  8
0
 62
0
 10
-66.3800502222
 20
-19.5387459455
 30
0.0
 40
2.1
  0
CIRCLE
  8
0
 62
0
 10
-84.3800502222
 20
-19.5387459455
 30
0.0
 40
2.1
  0
CIRCLE
  8
0
 62
0
 10
-66.3800502222
 20
-101.538745946
 30
0.0
 40
2.1
  0
CIRCLE
  8
0
 62
0
 10
-84.3800502222
 20
-101.538745946
 30
0.0
 40
2.1
  0
CIRCLE
  8
0
 62
0
 10
-66.3800502222
 20
-77.5387459455
 30
0.0
 40
2.1
  0
CIRCLE
  8
0
 62
0
 10
-84.3800502222
 20
-77.5387459455
 30
0.0
 40
2.1
  0
CIRCLE
  8
0
 62
0
 10
-37.8800502222
 20
-17.0387459456
 30
0.0
 40
1.5
  0
CIRCLE
  8
0
 62
0
 10
-6.88005022218
 20
-17.0387459456
 30
0.0
 40
1.5
  0
CIRCLE
  8
0
 62
0
 10
-6.88005022218
 20
13.9612540544
 30
0.0
 40
1.5
  0
CIRCLE
  8
0
 62
0
 10
-37.8800502222
 20
13.9612540544
 30
0.0
 40
1.5
  0
CIRCLE
  8
0
 62
0
 10
4.61994977782
 20
-96.5387418763
 30
0.0
 40
1.5
  0
CIRCLE
  8
0
 62
0
 10
4.61994977782
 20
78.4612581237
 30
0.0
 40
1.5
  0
CIRCLE
  8
0
 62
0
 10
-49.3800502222
 20
78.4612540545
 30
0.0
 40
1.5
  0
CIRCLE
  8
0
 62
0
 10
-49.3800502222
 20
-96.5387459455
 30
0.0
 40
1.5
  0
ENDBLK
  0
ENDSEC
  0
SECTION
  2
ENTITIES
  0
INSERT
  2
SHAPE2DVIEW
  8
0
 62
0
 10
0.0
 20
0.0
 30
0.0
  0
ENDSEC
  0
EOF
